<svg width="30" height="30" viewBox="0 0 30 30" fill="none" xmlns="http://www.w3.org/2000/svg">
<path d="M25.955 8.99809V6.18001C25.955 4.82041 24.8426 3.70801 23.483 3.70801H6.17903C4.80707 3.70801 3.70703 4.82041 3.70703 6.18001V23.484C3.70703 24.8436 4.80707 25.956 6.17903 25.956H23.483C24.8426 25.956 25.955 24.8436 25.955 23.484V20.6659C26.6843 20.2333 27.191 19.4546 27.191 18.54V11.124C27.191 10.2094 26.6843 9.43069 25.955 8.99809ZM24.719 11.124V18.54H16.067V11.124H24.719ZM6.17903 23.484V6.18001H23.483V8.65201H16.067C14.7074 8.65201 13.595 9.76441 13.595 11.124V18.54C13.595 19.8996 14.7074 21.012 16.067 21.012H23.483V23.484H6.17903Z" fill="white"/>
<path d="M19.7759 16.686C20.7998 16.686 21.6299 15.856 21.6299 14.832C21.6299 13.8081 20.7998 12.978 19.7759 12.978C18.7519 12.978 17.9219 13.8081 17.9219 14.832C17.9219 15.856 18.7519 16.686 19.7759 16.686Z" fill="white"/>
</svg>
