<svg width="30" height="30" viewBox="0 0 30 30" fill="none" xmlns="http://www.w3.org/2000/svg">
<path d="M25.955 9.1099V6.29182C25.955 4.93222 24.8426 3.81982 23.483 3.81982H6.17903C4.80707 3.81982 3.70703 4.93222 3.70703 6.29182V23.5958C3.70703 24.9554 4.80707 26.0678 6.17903 26.0678H23.483C24.8426 26.0678 25.955 24.9554 25.955 23.5958V20.7777C26.6843 20.3451 27.191 19.5665 27.191 18.6518V11.2358C27.191 10.3212 26.6843 9.5425 25.955 9.1099ZM24.719 11.2358V18.6518H16.067V11.2358H24.719ZM6.17903 23.5958V6.29182H23.483V8.76382H16.067C14.7074 8.76382 13.595 9.87622 13.595 11.2358V18.6518C13.595 20.0114 14.7074 21.1238 16.067 21.1238H23.483V23.5958H6.17903Z" fill="#8F8F8F"/>
<path d="M19.7759 16.7978C20.7998 16.7978 21.6299 15.9678 21.6299 14.9438C21.6299 13.9199 20.7998 13.0898 19.7759 13.0898C18.7519 13.0898 17.9219 13.9199 17.9219 14.9438C17.9219 15.9678 18.7519 16.7978 19.7759 16.7978Z" fill="#8F8F8F"/>
</svg>
