<svg width="30" height="30" viewBox="0 0 30 30" fill="none" xmlns="http://www.w3.org/2000/svg">
<path d="M24.0156 16.1551C24.065 15.7596 24.1021 15.3641 24.1021 14.9439C24.1021 14.5236 24.065 14.1281 24.0156 13.7326L26.6235 11.6932C26.8584 11.5078 26.9202 11.1741 26.7719 10.9021L24.2999 6.62558C24.1886 6.42782 23.9785 6.31658 23.756 6.31658C23.6819 6.31658 23.6077 6.32894 23.5459 6.35366L20.4683 7.58966C19.8255 7.09526 19.1334 6.68738 18.3794 6.37838L17.9097 3.10298C17.8727 2.80634 17.6131 2.58386 17.3041 2.58386H12.3601C12.0511 2.58386 11.7915 2.80634 11.7545 3.10298L11.2848 6.37838C10.5308 6.68738 9.83865 7.10762 9.19593 7.58966L6.11829 6.35366C6.04413 6.32894 5.96997 6.31658 5.89581 6.31658C5.68569 6.31658 5.47557 6.42782 5.36433 6.62558L2.89233 10.9021C2.73165 11.1741 2.80581 11.5078 3.04065 11.6932L5.64861 13.7326C5.59917 14.1281 5.56209 14.536 5.56209 14.9439C5.56209 15.3517 5.59917 15.7596 5.64861 16.1551L3.04065 18.1945C2.80581 18.3799 2.74401 18.7137 2.89233 18.9856L5.36433 23.2621C5.47557 23.4599 5.6857 23.5711 5.90818 23.5711C5.98234 23.5711 6.05649 23.5588 6.11829 23.5341L9.19593 22.2981C9.83865 22.7925 10.5308 23.2003 11.2848 23.5093L11.7545 26.7847C11.7915 27.0814 12.0511 27.3039 12.3601 27.3039H17.3041C17.6131 27.3039 17.8727 27.0814 17.9097 26.7847L18.3794 23.5093C19.1334 23.2003 19.8255 22.7801 20.4683 22.2981L23.5459 23.5341C23.6201 23.5588 23.6942 23.5711 23.7684 23.5711C23.9785 23.5711 24.1886 23.4599 24.2999 23.2621L26.7719 18.9856C26.9202 18.7137 26.8584 18.3799 26.6235 18.1945L24.0156 16.1551V16.1551ZM21.5683 14.0416C21.6177 14.4247 21.6301 14.6843 21.6301 14.9439C21.6301 15.2034 21.6054 15.4753 21.5683 15.8461L21.3953 17.2428L22.4953 18.108L23.8302 19.1463L22.965 20.6418L21.3953 20.0115L20.1098 19.4923L18.9974 20.3328C18.4659 20.7283 17.9592 21.025 17.4524 21.2351L16.1423 21.7666L15.9445 23.1633L15.6973 24.8319H13.9669L13.7321 23.1633L13.5343 21.7666L12.2241 21.2351C11.6927 21.0126 11.1983 20.7283 10.7039 20.3575L9.57909 19.4923L8.26893 20.0238L6.69921 20.6542L5.83401 19.1586L7.1689 18.1204L8.26893 17.2552L8.09589 15.8585C8.05881 15.4753 8.03409 15.1911 8.03409 14.9439C8.03409 14.6967 8.05881 14.4124 8.09589 14.0416L8.26893 12.6449L7.1689 11.7797L5.83401 10.7415L6.69921 9.2459L8.26893 9.87626L9.55437 10.3954L10.6668 9.5549C11.1983 9.15938 11.705 8.86274 12.2118 8.65262L13.5219 8.12114L13.7197 6.72446L13.9669 5.05586H15.6849L15.9198 6.72446L16.1175 8.12114L17.4277 8.65262C17.9592 8.8751 18.4536 9.15938 18.948 9.53018L20.0727 10.3954L21.3829 9.8639L22.9526 9.23354L23.8178 10.7291L22.4953 11.7797L21.3953 12.6449L21.5683 14.0416ZM14.8321 9.99986C12.1005 9.99986 9.88809 12.2123 9.88809 14.9439C9.88809 17.6754 12.1005 19.8879 14.8321 19.8879C17.5637 19.8879 19.7761 17.6754 19.7761 14.9439C19.7761 12.2123 17.5637 9.99986 14.8321 9.99986ZM14.8321 17.4159C13.4725 17.4159 12.3601 16.3035 12.3601 14.9439C12.3601 13.5843 13.4725 12.4719 14.8321 12.4719C16.1917 12.4719 17.3041 13.5843 17.3041 14.9439C17.3041 16.3035 16.1917 17.4159 14.8321 17.4159Z" fill="#8F8F8F"/>
</svg>
