<svg width="30" height="30" viewBox="0 0 30 30" fill="none" xmlns="http://www.w3.org/2000/svg">
<path d="M24.0156 16.0433C24.065 15.6478 24.1021 15.2523 24.1021 14.832C24.1021 14.4118 24.065 14.0163 24.0156 13.6208L26.6235 11.5814C26.8584 11.396 26.9202 11.0622 26.7719 10.7903L24.2999 6.51377C24.1886 6.31601 23.9785 6.20477 23.756 6.20477C23.6819 6.20477 23.6077 6.21713 23.5459 6.24185L20.4683 7.47785C19.8255 6.98345 19.1334 6.57557 18.3794 6.26657L17.9097 2.99117C17.8727 2.69453 17.6131 2.47205 17.3041 2.47205H12.3601C12.0511 2.47205 11.7915 2.69453 11.7545 2.99117L11.2848 6.26657C10.5308 6.57557 9.83865 6.99581 9.19593 7.47785L6.11829 6.24185C6.04413 6.21713 5.96997 6.20477 5.89581 6.20477C5.68569 6.20477 5.47557 6.31601 5.36433 6.51377L2.89233 10.7903C2.73165 11.0622 2.80581 11.396 3.04065 11.5814L5.64861 13.6208C5.59917 14.0163 5.56209 14.4242 5.56209 14.832C5.56209 15.2399 5.59917 15.6478 5.64861 16.0433L3.04065 18.0827C2.80581 18.2681 2.74401 18.6018 2.89233 18.8738L5.36433 23.1503C5.47557 23.3481 5.6857 23.4593 5.90818 23.4593C5.98234 23.4593 6.05649 23.447 6.11829 23.4222L9.19593 22.1862C9.83865 22.6806 10.5308 23.0885 11.2848 23.3975L11.7545 26.6729C11.7915 26.9696 12.0511 27.192 12.3601 27.192H17.3041C17.6131 27.192 17.8727 26.9696 17.9097 26.6729L18.3794 23.3975C19.1334 23.0885 19.8255 22.6683 20.4683 22.1862L23.5459 23.4222C23.6201 23.447 23.6942 23.4593 23.7684 23.4593C23.9785 23.4593 24.1886 23.3481 24.2999 23.1503L26.7719 18.8738C26.9202 18.6018 26.8584 18.2681 26.6235 18.0827L24.0156 16.0433V16.0433ZM21.5683 13.9298C21.6177 14.3129 21.6301 14.5725 21.6301 14.832C21.6301 15.0916 21.6054 15.3635 21.5683 15.7343L21.3953 17.131L22.4953 17.9962L23.8302 19.0344L22.965 20.53L21.3953 19.8996L20.1098 19.3805L18.9974 20.221C18.4659 20.6165 17.9592 20.9132 17.4524 21.1233L16.1423 21.6548L15.9445 23.0514L15.6973 24.72H13.9669L13.7321 23.0514L13.5343 21.6548L12.2241 21.1233C11.6927 20.9008 11.1983 20.6165 10.7039 20.2457L9.57909 19.3805L8.26893 19.912L6.69921 20.5424L5.83401 19.0468L7.1689 18.0086L8.26893 17.1434L8.09589 15.7467C8.05881 15.3635 8.03409 15.0792 8.03409 14.832C8.03409 14.5848 8.05881 14.3006 8.09589 13.9298L8.26893 12.5331L7.1689 11.6679L5.83401 10.6296L6.69921 9.13409L8.26893 9.76445L9.55437 10.2836L10.6668 9.44309C11.1983 9.04757 11.705 8.75093 12.2118 8.54081L13.5219 8.00933L13.7197 6.61265L13.9669 4.94405H15.6849L15.9198 6.61265L16.1175 8.00933L17.4277 8.54081C17.9592 8.76329 18.4536 9.04757 18.948 9.41837L20.0727 10.2836L21.3829 9.75209L22.9526 9.12173L23.8178 10.6173L22.4953 11.6679L21.3953 12.5331L21.5683 13.9298ZM14.8321 9.88805C12.1005 9.88805 9.88809 12.1005 9.88809 14.832C9.88809 17.5636 12.1005 19.776 14.8321 19.776C17.5637 19.776 19.7761 17.5636 19.7761 14.832C19.7761 12.1005 17.5637 9.88805 14.8321 9.88805ZM14.8321 17.304C13.4725 17.304 12.3601 16.1916 12.3601 14.832C12.3601 13.4724 13.4725 12.36 14.8321 12.36C16.1917 12.36 17.3041 13.4724 17.3041 14.832C17.3041 16.1916 16.1917 17.304 14.8321 17.304Z" fill="white"/>
</svg>
