<svg width="20" height="20" viewBox="0 0 20 20" fill="none" xmlns="http://www.w3.org/2000/svg">
<path id="Vector" d="M2.59419 0C1.90617 0 1.24633 0.276562 0.759822 0.768845C0.273316 1.26113 0 1.92881 0 2.625V15.375C0 16.825 1.16121 18 2.59419 18H9.15083C8.90377 17.61 8.69722 17.191 8.53613 16.75H2.59419C2.2338 16.75 1.88817 16.6051 1.63333 16.3473C1.3785 16.0894 1.23533 15.7397 1.23533 15.375V2.625C1.23533 2.26033 1.3785 1.91059 1.63333 1.65273C1.88817 1.39487 2.2338 1.25 2.59419 1.25H15.1946C15.555 1.25 15.9006 1.39487 16.1554 1.65273C16.4103 1.91059 16.5534 2.26033 16.5534 2.625V8.3175C16.9873 8.4605 17.4009 8.6485 17.7888 8.877V2.625C17.7888 1.175 16.6275 0 15.1946 0H2.59419ZM9.15182 10.998C8.90476 11.388 8.69821 11.8065 8.53712 12.248H2.59419C2.43038 12.248 2.27327 12.1822 2.15744 12.0649C2.0416 11.9477 1.97653 11.7888 1.97653 11.623C1.97653 11.4572 2.0416 11.2983 2.15744 11.1811C2.27327 11.0638 2.43038 10.998 2.59419 10.998H9.15182ZM13.3406 2.624C13.3406 2.45824 13.2755 2.29927 13.1597 2.18206C13.0438 2.06485 12.8867 1.999 12.7229 1.999C12.5591 1.999 12.402 2.06485 12.2862 2.18206C12.1703 2.29927 12.1053 2.45824 12.1053 2.624V4H10.7474C10.5836 4 10.4265 4.06585 10.3106 4.18306C10.1948 4.30027 10.1297 4.45924 10.1297 4.625C10.1297 4.79076 10.1948 4.94973 10.3106 5.06694C10.4265 5.18415 10.5836 5.25 10.7474 5.25H12.1053V6.624C12.1053 6.78976 12.1703 6.94873 12.2862 7.06594C12.402 7.18315 12.5591 7.249 12.7229 7.249C12.8867 7.249 13.0438 7.18315 13.1597 7.06594C13.2755 6.94873 13.3406 6.78976 13.3406 6.624V5.25H14.7004C14.8642 5.25 15.0214 5.18415 15.1372 5.06694C15.253 4.94973 15.3181 4.79076 15.3181 4.625C15.3181 4.45924 15.253 4.30027 15.1372 4.18306C15.0214 4.06585 14.8642 4 14.7004 4H13.3406V2.624ZM7.24052 2.3855C7.19379 2.27125 7.11463 2.17359 7.01303 2.10488C6.91144 2.03617 6.79199 1.9995 6.6698 1.9995C6.5476 1.9995 6.42815 2.03617 6.32656 2.10488C6.22497 2.17359 6.1458 2.27125 6.09907 2.3855L3.75293 8.139C3.71911 8.21534 3.70078 8.29778 3.69902 8.38142C3.69727 8.46507 3.71213 8.54822 3.74272 8.62594C3.77332 8.70367 3.81902 8.77439 3.87713 8.83391C3.93523 8.89343 4.00455 8.94054 4.08099 8.97245C4.15742 9.00435 4.23941 9.02041 4.32208 9.01966C4.40476 9.01891 4.48645 9.00137 4.56231 8.96808C4.63816 8.93479 4.70664 8.88643 4.76368 8.82587C4.82072 8.7653 4.86517 8.69377 4.89438 8.6155L5.24373 7.759H8.09734L8.44719 8.616C8.47721 8.69323 8.52212 8.76364 8.57932 8.82311C8.63651 8.88259 8.70484 8.92995 8.78031 8.96242C8.85578 8.99489 8.93689 9.01183 9.01891 9.01225C9.10092 9.01266 9.18219 8.99655 9.25798 8.96484C9.33378 8.93314 9.40257 8.88647 9.46035 8.82758C9.51813 8.76868 9.56374 8.69874 9.59452 8.62181C9.6253 8.54489 9.64063 8.46254 9.63962 8.37956C9.63861 8.29658 9.62128 8.21463 9.58864 8.1385L7.24052 2.3855ZM7.58691 6.509H5.75367L6.6698 4.262L7.58691 6.509ZM1.97653 14.625C1.97653 14.28 2.25324 14 2.59419 14H6.5512C6.71502 14 6.87213 14.0658 6.98796 14.1831C7.10379 14.3003 7.16887 14.4592 7.16887 14.625C7.16887 14.7908 7.10379 14.9497 6.98796 15.0669C6.87213 15.1842 6.71502 15.25 6.5512 15.25H2.59419C2.25324 15.25 1.97653 14.97 1.97653 14.625ZM20 14.5C20 17.5375 17.5664 20 14.5645 20C11.5627 20 9.12909 17.5375 9.12909 14.5C9.12909 11.4625 11.5627 9 14.5645 9C17.5664 9 20 11.4625 20 14.5ZM15.0587 11C15.0587 10.8674 15.0066 10.7402 14.9139 10.6464C14.8213 10.5527 14.6956 10.5 14.5645 10.5C14.4335 10.5 14.3078 10.5527 14.2151 10.6464C14.1225 10.7402 14.0704 10.8674 14.0704 11V14H11.1056C10.9746 14 10.8489 14.0527 10.7562 14.1464C10.6635 14.2402 10.6115 14.3674 10.6115 14.5C10.6115 14.6326 10.6635 14.7598 10.7562 14.8536C10.8489 14.9473 10.9746 15 11.1056 15H14.0704V18C14.0704 18.1326 14.1225 18.2598 14.2151 18.3536C14.3078 18.4473 14.4335 18.5 14.5645 18.5C14.6956 18.5 14.8213 18.4473 14.9139 18.3536C15.0066 18.2598 15.0587 18.1326 15.0587 18V15H18.0235C18.1545 15 18.2802 14.9473 18.3729 14.8536C18.4655 14.7598 18.5176 14.6326 18.5176 14.5C18.5176 14.3674 18.4655 14.2402 18.3729 14.1464C18.2802 14.0527 18.1545 14 18.0235 14H15.0587V11Z" fill="#6A6A6A"/>
</svg>
