<svg width="24" height="24" viewBox="0 0 24 24" fill="none" xmlns="http://www.w3.org/2000/svg">
<g id="mingcute:exit-door-line" clip-path="url(#clip0_4701_34584)">
<g id="Group">
<path id="Vector" d="M11.5008 3C11.7557 3.00028 12.0009 3.09788 12.1862 3.27285C12.3715 3.44782 12.4831 3.68695 12.498 3.94139C12.513 4.19584 12.4302 4.44638 12.2666 4.64183C12.103 4.83729 11.8709 4.9629 11.6178 4.993L11.5008 5H6.00085V19H16.0008V12.5C16.0011 12.2451 16.0987 12 16.2737 11.8146C16.4487 11.6293 16.6878 11.5178 16.9422 11.5028C17.1967 11.4879 17.4472 11.5707 17.6427 11.7343C17.8381 11.8979 17.9637 12.1299 17.9938 12.383L18.0008 12.5V19H20.0008C20.2557 19.0003 20.5009 19.0979 20.6862 19.2728C20.8715 19.4478 20.9831 19.687 20.998 19.9414C21.013 20.1958 20.9302 20.4464 20.7666 20.6418C20.603 20.8373 20.3709 20.9629 20.1178 20.993L20.0008 21H4.00085C3.74597 20.9997 3.50081 20.9021 3.31548 20.7272C3.13014 20.5522 3.01861 20.313 3.00367 20.0586C2.98874 19.8042 3.07152 19.5536 3.23511 19.3582C3.3987 19.1627 3.63075 19.0371 3.88385 19.007L4.00085 19V5C4.00069 4.49542 4.19125 4.00943 4.53434 3.63945C4.87743 3.26947 5.34769 3.04284 5.85085 3.005L6.00085 3H11.5008ZM13.5008 11C13.6978 11 13.8929 11.0388 14.0749 11.1142C14.2569 11.1896 14.4222 11.3001 14.5615 11.4393C14.7008 11.5786 14.8113 11.744 14.8867 11.926C14.962 12.108 15.0008 12.303 15.0008 12.5C15.0008 12.697 14.962 12.892 14.8867 13.074C14.8113 13.256 14.7008 13.4214 14.5615 13.5607C14.4222 13.6999 14.2569 13.8104 14.0749 13.8858C13.8929 13.9612 13.6978 14 13.5008 14C13.103 14 12.7215 13.842 12.4402 13.5607C12.1589 13.2794 12.0008 12.8978 12.0008 12.5C12.0008 12.1022 12.1589 11.7206 12.4402 11.4393C12.7215 11.158 13.103 11 13.5008 11ZM18.5878 4.172L20.7078 6.292C20.895 6.47949 21.0001 6.73358 21.0001 6.9985C21.0001 7.26342 20.895 7.51751 20.7078 7.705L18.5878 9.828C18.3994 10.0103 18.1468 10.1113 17.8846 10.1092C17.6224 10.1071 17.3715 10.0021 17.186 9.81682C17.0005 9.63154 16.8951 9.3808 16.8927 9.1186C16.8902 8.85641 16.9908 8.60373 17.1728 8.415L17.5888 7.998H14.3808C14.1156 7.998 13.8613 7.89264 13.6737 7.70511C13.4862 7.51757 13.3808 7.26322 13.3808 6.998C13.3808 6.73278 13.4862 6.47843 13.6737 6.29089C13.8613 6.10336 14.1156 5.998 14.3808 5.998H17.5858L17.1738 5.586C16.9917 5.3974 16.8909 5.1448 16.8932 4.8826C16.8954 4.6204 17.0006 4.36959 17.186 4.18418C17.3714 3.99877 17.6222 3.8936 17.8844 3.89133C18.1466 3.88905 18.3992 3.98984 18.5878 4.172Z" fill="#001246"/>
</g>
</g>
<defs>
<clipPath id="clip0_4701_34584">
<rect width="24" height="24" fill="white"/>
</clipPath>
</defs>
</svg>
