<svg width="19" height="20" viewBox="0 0 19 20" fill="none" xmlns="http://www.w3.org/2000/svg">
<g id="feListTask0">
<g id="feListTask1">
<path id="Vector" d="M15.367 0C13.3543 0 11.7341 1.68139 11.7341 3.76623C11.7341 5.85281 13.3543 7.53247 15.367 7.53247C17.3798 7.53247 19 5.85281 19 3.76623C19 1.68139 17.3798 0 15.367 0ZM17.0582 1.47229L17.6846 1.90433L14.7574 6.45455L12.4273 4.04329L12.9618 3.48918L14.6404 5.23377L17.0582 1.47229ZM11.3875 5.67533L6.44747 9.22078H0V10.7792H6.44747L11.3875 14.3247C11.6004 13.8485 11.8927 13.4156 12.2435 13.0476L8.00088 10L12.2435 6.95238C11.8927 6.58442 11.6004 6.15152 11.3875 5.67533ZM15.367 12.4675C13.3543 12.4675 11.7341 14.1472 11.7341 16.2338C11.7341 18.3203 13.3543 20 15.367 20C17.3798 20 19 18.3203 19 16.2338C19 14.1472 17.3798 12.4675 15.367 12.4675ZM13.6299 13.8788L15.367 15.6797L17.1042 13.8788L17.6387 14.4329L15.9015 16.2338L17.6387 18.0346L17.1042 18.5887L15.367 16.7879L13.6299 18.5887L13.0954 18.0346L14.8325 16.2338L13.0954 14.4329L13.6299 13.8788Z" fill="#6A6A6A"/>
</g>
</g>
</svg>
