<svg width="21" height="24" viewBox="0 0 21 24" fill="none" xmlns="http://www.w3.org/2000/svg">
<path id="Vector" d="M2.33333 24C1.69167 24 1.14217 23.7652 0.684833 23.2956C0.228278 22.8252 0 22.26 0 21.6V4.8C0 4.14 0.228278 3.5752 0.684833 3.1056C1.14217 2.6352 1.69167 2.4 2.33333 2.4H3.5V0H5.83333V2.4H15.1667V0H17.5V2.4H18.6667C19.3083 2.4 19.8578 2.6352 20.3152 3.1056C20.7717 3.5752 21 4.14 21 4.8V21.6C21 22.26 20.7717 22.8252 20.3152 23.2956C19.8578 23.7652 19.3083 24 18.6667 24H2.33333ZM2.33333 21.6H18.6667V9.6H2.33333V21.6ZM2.33333 7.2H18.6667V4.8H2.33333V7.2ZM10.5 14.4C10.1694 14.4 9.89256 14.2848 9.66933 14.0544C9.44533 13.8248 9.33333 13.54 9.33333 13.2C9.33333 12.86 9.44533 12.5748 9.66933 12.3444C9.89256 12.1148 10.1694 12 10.5 12C10.8306 12 11.1078 12.1148 11.3318 12.3444C11.5551 12.5748 11.6667 12.86 11.6667 13.2C11.6667 13.54 11.5551 13.8248 11.3318 14.0544C11.1078 14.2848 10.8306 14.4 10.5 14.4ZM5.83333 14.4C5.50278 14.4 5.2255 14.2848 5.0015 14.0544C4.77828 13.8248 4.66667 13.54 4.66667 13.2C4.66667 12.86 4.77828 12.5748 5.0015 12.3444C5.2255 12.1148 5.50278 12 5.83333 12C6.16389 12 6.44117 12.1148 6.66517 12.3444C6.88839 12.5748 7 12.86 7 13.2C7 13.54 6.88839 13.8248 6.66517 14.0544C6.44117 14.2848 6.16389 14.4 5.83333 14.4ZM15.1667 14.4C14.8361 14.4 14.5592 14.2848 14.336 14.0544C14.112 13.8248 14 13.54 14 13.2C14 12.86 14.112 12.5748 14.336 12.3444C14.5592 12.1148 14.8361 12 15.1667 12C15.4972 12 15.7741 12.1148 15.9973 12.3444C16.2213 12.5748 16.3333 12.86 16.3333 13.2C16.3333 13.54 16.2213 13.8248 15.9973 14.0544C15.7741 14.2848 15.4972 14.4 15.1667 14.4ZM10.5 19.2C10.1694 19.2 9.89256 19.0848 9.66933 18.8544C9.44533 18.6248 9.33333 18.34 9.33333 18C9.33333 17.66 9.44533 17.3752 9.66933 17.1456C9.89256 16.9152 10.1694 16.8 10.5 16.8C10.8306 16.8 11.1078 16.9152 11.3318 17.1456C11.5551 17.3752 11.6667 17.66 11.6667 18C11.6667 18.34 11.5551 18.6248 11.3318 18.8544C11.1078 19.0848 10.8306 19.2 10.5 19.2ZM5.83333 19.2C5.50278 19.2 5.2255 19.0848 5.0015 18.8544C4.77828 18.6248 4.66667 18.34 4.66667 18C4.66667 17.66 4.77828 17.3752 5.0015 17.1456C5.2255 16.9152 5.50278 16.8 5.83333 16.8C6.16389 16.8 6.44117 16.9152 6.66517 17.1456C6.88839 17.3752 7 17.66 7 18C7 18.34 6.88839 18.6248 6.66517 18.8544C6.44117 19.0848 6.16389 19.2 5.83333 19.2ZM15.1667 19.2C14.8361 19.2 14.5592 19.0848 14.336 18.8544C14.112 18.6248 14 18.34 14 18C14 17.66 14.112 17.3752 14.336 17.1456C14.5592 16.9152 14.8361 16.8 15.1667 16.8C15.4972 16.8 15.7741 16.9152 15.9973 17.1456C16.2213 17.3752 16.3333 17.66 16.3333 18C16.3333 18.34 16.2213 18.6248 15.9973 18.8544C15.7741 19.0848 15.4972 19.2 15.1667 19.2Z" fill="#6A6A6A"/>
</svg>
