<svg width="32" height="49" viewBox="0 0 32 49" fill="none" xmlns="http://www.w3.org/2000/svg">
<g id="Group 28">
<path id="path604" d="M22.7912 18.4124C27.8688 21.0317 31.3456 26.3679 31.3456 32.5251C31.3456 41.272 24.3283 48.3633 15.6723 48.3633C7.01634 48.3633 0 41.272 0 32.5251C0 26.5125 3.31531 21.2824 8.20033 18.5996C10.4209 17.3809 12.9663 16.6878 15.6723 16.6878C18.2355 16.6878 20.6555 17.3095 22.7912 18.4124Z" fill="#E3E3E3"/>
<path id="path606" d="M15.6733 47.7148C11.6583 47.7148 7.88365 46.1349 5.04487 43.2658C2.20587 40.3969 0.642578 36.5823 0.642578 32.5251C0.642578 26.9511 3.65633 21.8335 8.50764 19.1692C10.6928 17.97 13.1707 17.3359 15.6733 17.3359C18.0782 17.3359 20.3751 17.8923 22.5002 18.9896C24.9305 20.2433 26.9807 22.1438 28.4295 24.4857C29.9181 26.8923 30.7051 29.6722 30.7051 32.5251C30.7051 36.5823 29.1414 40.3969 26.3023 43.2658C23.4631 46.1349 19.6885 47.7148 15.6733 47.7148Z" fill="#C9C9C9"/>
<path id="path608" d="M15.6645 45.8633C12.1391 45.8633 8.82498 44.4759 6.33225 41.9567C3.83952 39.4377 2.4668 36.0882 2.4668 32.5258C2.4668 27.6315 5.11295 23.1381 9.37284 20.7988C11.2913 19.7455 13.4672 19.1889 15.6645 19.1889C17.7763 19.1889 19.793 19.6774 21.659 20.641C23.7931 21.7417 25.5932 23.4104 26.8651 25.4669C28.1724 27.5798 28.8632 30.0207 28.8632 32.5258C28.8632 36.0882 27.4904 39.4375 24.9975 41.9567C22.5045 44.4759 19.1901 45.8633 15.6645 45.8633Z" stroke="#929292" stroke-width="2.61099" stroke-miterlimit="10"/>
<path id="path610" d="M15.672 41.5703C13.2815 41.5703 11.0341 40.6297 9.34381 38.9216C7.65371 37.2132 6.72266 34.9423 6.72266 32.5264C6.72266 29.208 8.5171 26.1609 11.4056 24.5746C12.7066 23.8604 14.1818 23.4832 15.672 23.4832C17.1038 23.4832 18.4713 23.8143 19.7367 24.4676C21.1837 25.2142 22.4044 26.3456 23.2669 27.7399C24.1532 29.1727 24.6217 30.828 24.6217 32.5264C24.6217 34.9423 23.6907 37.2132 22.0003 38.9216C20.31 40.6297 18.0624 41.5703 15.672 41.5703V41.5703Z" stroke="#C9C9C9" stroke-width="1.865" stroke-miterlimit="10"/>
<path id="path612" d="M15.6765 43.5391C12.7657 43.5391 10.0289 42.3936 7.97077 40.3135C5.91261 38.2334 4.7793 35.4681 4.7793 32.5265C4.7793 28.4855 6.96428 24.7754 10.4814 22.8436C12.0655 21.9742 13.8621 21.5146 15.6765 21.5146C17.42 21.5146 19.0851 21.9181 20.6259 22.7134C22.3878 23.6225 23.8743 25.0004 24.9243 26.6981C26.0038 28.4428 26.5743 30.4583 26.5743 32.5265C26.5743 35.4679 25.4405 38.2334 23.3824 40.3135C21.324 42.3936 18.5872 43.5391 15.6765 43.5391V43.5391Z" stroke="#929292" stroke-width="2.61099" stroke-miterlimit="10"/>
<path id="path614" d="M20.4598 16.0026V15.4173C20.4598 15.2479 20.3239 15.1105 20.156 15.1105H10.6304C10.4628 15.1105 10.3268 15.2479 10.3268 15.4173V16.0026C10.3268 16.173 10.4628 16.3104 10.6304 16.3104H20.156C20.3239 16.3104 20.4598 16.173 20.4598 16.0026ZM22.0305 15.5647C22.4295 16.4638 22.6512 17.432 22.6866 18.4143C20.5507 17.3115 18.1306 16.6895 15.5677 16.6895C12.8617 16.6895 10.3162 17.3829 8.0957 18.6016C8.10717 17.555 8.33236 16.521 8.75615 15.5647L8.95382 15.1193C9.17466 14.6206 9.63377 14.2718 10.1697 14.196L10.7533 14.1131C13.8311 13.6776 16.9556 13.6776 20.0342 14.1131L20.6169 14.196C21.1529 14.2718 21.612 14.6206 21.8328 15.1193L22.0305 15.5647Z" fill="#C9C9C9"/>
<path id="path616" d="M25.3407 0.000828743L19.9064 15.3359H16.8867L22.3051 0.0133429V0.000828743H25.3407Z" fill="#FF545F"/>
<path id="path618" d="M22.3041 0.000828743V0.0133429L16.8857 15.3359H13.9043L19.3227 0.0133429V0.000828743H22.3041Z" fill="#62DADC"/>
<path id="path620" d="M19.3297 0.000828743V0.0133429L13.9113 15.3359H10.8652L16.2995 0.000828743H19.3297Z" fill="#AC748C"/>
<path id="path622" d="M30.3014 32.5269C30.3014 37.5214 26.2947 41.5703 21.3519 41.5703C16.4093 41.5703 12.4023 37.5214 12.4023 32.5269C12.4023 27.532 16.4093 23.4832 21.3519 23.4832C26.2947 23.4832 30.3014 27.532 30.3014 32.5269Z" fill="#9A9898"/>
<path id="path624" d="M5.42578 0.000828743L10.86 15.3359H13.8795L8.46109 0.0133429V0.000828743H5.42578Z" fill="#AC748C"/>
<path id="path626" d="M8.46289 0.000828743V0.0133429L13.8813 15.3359H16.863L11.4445 0.0133429V0.000828743H8.46289Z" fill="#62DADC"/>
<path id="path628" d="M11.4453 0.000828743V0.0133429L16.8637 15.3359H19.9096L14.4753 0.000828743H11.4453Z" fill="#FF545F"/>
<path id="path630" d="M29.7195 32.5259C29.7195 37.1951 25.9738 40.9805 21.3529 40.9805C16.7323 40.9805 12.9863 37.1951 12.9863 32.5259C12.9863 27.8564 16.7323 24.071 21.3529 24.071C25.9738 24.071 29.7195 27.8564 29.7195 32.5259Z" fill="#E3E3E3"/>
<path id="path632" d="M27.7245 32.527C27.7245 36.0825 24.8722 38.9648 21.3535 38.9648C17.835 38.9648 14.9824 36.0825 14.9824 32.527C14.9824 28.9712 17.835 26.0889 21.3535 26.0889C24.8722 26.0889 27.7245 28.9712 27.7245 32.527Z" fill="#929292"/>
<path id="path634" d="M13.8331 29.7109C13.8331 29.7116 13.8333 29.7121 13.8333 29.7127C13.8328 29.7519 13.8306 30.3141 13.9697 30.6874C14.114 31.0747 13.9913 31.6758 13.9913 31.6758C13.9913 31.6758 13.5987 31.2237 13.5712 30.893C13.537 30.4951 13.8239 29.7345 13.8331 29.7109Z" fill="#929292"/>
<path id="path636" d="M13.9293 30.039C14.0403 30.284 14.1545 30.4803 14.2504 30.7725C14.3063 30.943 14.2236 31.3799 14.0974 31.5606C14.0564 31.6433 13.994 31.6758 13.994 31.6758C13.994 31.6758 14.1167 31.0747 13.9725 30.6874C13.8333 30.3141 13.8356 29.7519 13.836 29.7127C13.8401 29.7341 13.8716 29.9111 13.9293 30.039Z" fill="#E6E6E6"/>
<path id="path638" d="M15.1413 30.2548C15.1408 30.2553 15.1408 30.2557 15.1404 30.2562C15.1145 30.2852 14.7455 30.706 14.6061 31.0793C14.4614 31.4663 13.9766 31.8359 13.9766 31.8359C13.9766 31.8359 13.977 31.2346 14.1722 30.9676C14.4065 30.646 15.119 30.2662 15.1413 30.2548Z" fill="#929292"/>
<path id="path640" d="M14.9973 30.5631C14.9207 30.8213 14.8783 31.0447 14.7592 31.3283C14.69 31.4938 14.3423 31.7665 14.1293 31.8182C14.0444 31.8527 13.9766 31.8356 13.9766 31.8356C13.9766 31.8356 14.4614 31.466 14.6061 31.079C14.7455 30.7056 15.1145 30.2848 15.1404 30.2558C15.1296 30.2746 15.0374 30.4285 14.9973 30.5631Z" fill="#E6E6E6"/>
<path id="path642" d="M13.4915 31.0877C13.4915 31.0881 13.4919 31.0886 13.4919 31.089C13.497 31.128 13.5763 31.6844 13.768 32.0334C13.9669 32.3951 13.9327 33.0078 13.9327 33.0078C13.9327 33.0078 13.4789 32.6187 13.4034 32.2957C13.3122 31.9071 13.4858 31.1122 13.4915 31.0877Z" fill="#929292"/>
<path id="path644" d="M13.6238 31.3982C13.7692 31.6241 13.9107 31.8014 14.0478 32.0762C14.1279 32.2368 14.1093 32.6811 14.0107 32.8785C13.9818 32.9663 13.9251 33.0078 13.9251 33.0078C13.9251 33.0078 13.9593 32.3951 13.7605 32.0334C13.5688 31.6844 13.4894 31.128 13.4844 31.089C13.4915 31.1099 13.5481 31.2805 13.6238 31.3982Z" fill="#E6E6E6"/>
<path id="path646" d="M14.8635 31.4313C14.863 31.432 14.863 31.4325 14.8628 31.433C14.8413 31.4654 14.5372 31.9363 14.4532 32.3263C14.3663 32.7307 13.9402 33.168 13.9402 33.168C13.9402 33.168 13.8536 32.5731 14.0081 32.2802C14.1934 31.9273 14.8431 31.4462 14.8635 31.4313Z" fill="#929292"/>
<path id="path648" d="M14.7687 31.758C14.7304 32.0245 14.7208 32.252 14.6442 32.55C14.5995 32.7238 14.2951 33.0452 14.092 33.1277C14.0131 33.1746 13.9434 33.1676 13.9434 33.1676C13.9434 33.1676 14.3694 32.7303 14.4564 32.3259C14.5403 31.9359 14.8444 31.465 14.8659 31.4326C14.8577 31.453 14.7889 31.6189 14.7687 31.758Z" fill="#E6E6E6"/>
<path id="path650" d="M13.3457 32.583C13.3459 32.5835 13.3464 32.5837 13.3464 32.5844C13.3604 32.621 13.5652 33.1436 13.8314 33.4383C14.108 33.7435 14.2151 34.3477 14.2151 34.3477C14.2151 34.3477 13.6844 34.0754 13.537 33.7787C13.359 33.4221 13.3457 32.6082 13.3457 32.583Z" fill="#929292"/>
<path id="path652" d="M13.5526 32.8523C13.7456 33.0381 13.9238 33.1774 14.1201 33.4128C14.2348 33.55 14.3187 33.9866 14.268 34.2019C14.26 34.2941 14.2144 34.3477 14.2144 34.3477C14.2144 34.3477 14.1073 33.7435 13.8307 33.4383C13.5645 33.1436 13.3597 32.621 13.3457 32.5844C13.3576 32.6027 13.4519 32.7554 13.5526 32.8523Z" fill="#E6E6E6"/>
<path id="path654" d="M14.7598 32.5944C14.7596 32.5951 14.7598 32.5956 14.7596 32.5961C14.746 32.6329 14.5582 33.162 14.5658 33.561C14.574 33.9747 14.2599 34.5 14.2599 34.5C14.2599 34.5 14.039 33.9413 14.1223 33.6203C14.2216 33.2336 14.7433 32.6137 14.7598 32.5944Z" fill="#929292"/>
<path id="path656" d="M14.7395 32.9353C14.7631 33.2037 14.806 33.4271 14.7998 33.735C14.7962 33.9146 14.5739 34.2984 14.3951 34.4263C14.329 34.4903 14.2598 34.5 14.2598 34.5C14.2598 34.5 14.5739 33.9747 14.5657 33.561C14.5581 33.162 14.7459 32.6329 14.7595 32.5961C14.7562 32.6178 14.7271 32.7954 14.7395 32.9353Z" fill="#E6E6E6"/>
<path id="path658" d="M13.5137 33.983C13.5139 33.9837 13.5144 33.9837 13.5146 33.9844C13.5325 34.0192 13.7925 34.516 14.0895 34.7793C14.3975 35.052 14.5695 35.6406 14.5695 35.6406C14.5695 35.6406 14.0124 35.4288 13.8338 35.1505C13.618 34.8156 13.5164 34.0083 13.5137 33.983Z" fill="#929292"/>
<path id="path660" d="M13.7483 34.228C13.9604 34.3911 14.1526 34.5098 14.3734 34.7218C14.5023 34.8455 14.633 35.2703 14.6062 35.4898C14.6082 35.5822 14.5686 35.6406 14.5686 35.6406C14.5686 35.6406 14.3966 35.052 14.0886 34.7793C13.7916 34.516 13.5316 34.0192 13.5137 33.9844C13.5274 34.0013 13.6377 34.1427 13.7483 34.228Z" fill="#E6E6E6"/>
<path id="path662" d="M14.9185 33.8394C14.9183 33.8401 14.9185 33.8406 14.9183 33.8413C14.9089 33.8793 14.7798 34.426 14.8307 34.8218C14.8839 35.2319 14.6286 35.7891 14.6286 35.7891C14.6286 35.7891 14.3484 35.2584 14.3961 34.93C14.453 34.5347 14.904 33.8603 14.9185 33.8394Z" fill="#929292"/>
<path id="path664" d="M14.9377 34.1806C14.9904 34.4447 15.0572 34.6619 15.0845 34.9687C15.1005 35.1476 14.9212 35.5538 14.7574 35.7007C14.6987 35.7717 14.6309 35.7891 14.6309 35.7891C14.6309 35.7891 14.8861 35.2319 14.8329 34.8218C14.782 34.426 14.9111 33.8793 14.9205 33.8413C14.9198 33.8631 14.9102 34.0427 14.9377 34.1806Z" fill="#E6E6E6"/>
<path id="path666" d="M13.877 35.3581C13.8772 35.3588 13.8776 35.3588 13.8781 35.3593C13.9019 35.3903 14.2487 35.8297 14.5888 36.0327C14.9415 36.2431 15.2185 36.7891 15.2185 36.7891C15.2185 36.7891 14.6321 36.6855 14.4055 36.4454C14.1322 36.1569 13.8843 35.3824 13.877 35.3581Z" fill="#929292"/>
<path id="path668" d="M14.1636 35.5546C14.4021 35.6751 14.6129 35.7558 14.8688 35.9231C15.0181 36.0204 15.2245 36.4132 15.2382 36.6341C15.2573 36.7244 15.2291 36.7891 15.2291 36.7891C15.2291 36.7891 14.952 36.2431 14.5993 36.0327C14.2593 35.8297 13.9125 35.3903 13.8887 35.3593C13.9052 35.3734 14.0393 35.4916 14.1636 35.5546Z" fill="#E6E6E6"/>
<path id="path670" d="M15.2397 34.9521C15.2394 34.9528 15.2399 34.953 15.2397 34.9537C15.2376 34.9929 15.2108 35.5544 15.3335 35.9338C15.461 36.327 15.3124 36.9219 15.3124 36.9219C15.3124 36.9219 14.9397 36.4528 14.9264 36.1215C14.9097 35.7222 15.2294 34.9753 15.2397 34.9521Z" fill="#929292"/>
<path id="path672" d="M15.3193 35.284C15.4195 35.5335 15.5253 35.7347 15.6083 36.0309C15.6567 36.2037 15.5551 36.6364 15.4211 36.8115C15.3764 36.8922 15.3129 36.9219 15.3129 36.9219C15.3129 36.9219 15.4615 36.327 15.334 35.9338C15.2113 35.5544 15.2381 34.9929 15.2402 34.9537C15.2434 34.9753 15.267 35.1537 15.3193 35.284Z" fill="#E6E6E6"/>
<path id="path674" d="M14.4551 36.6176C14.4555 36.6181 14.456 36.6181 14.4565 36.6186C14.4853 36.6448 14.9029 37.0162 15.2728 37.1558C15.6565 37.3006 16.0241 37.7891 16.0241 37.7891C16.0241 37.7891 15.4288 37.791 15.1641 37.5944C14.8449 37.3587 14.4665 36.6401 14.4551 36.6176Z" fill="#929292"/>
<path id="path676" d="M14.7598 36.7623C15.0155 36.8388 15.2368 36.8808 15.5178 37C15.6817 37.0695 15.953 37.4196 16.0048 37.6347C16.0392 37.7204 16.0227 37.7891 16.0227 37.7891C16.0227 37.7891 15.6551 37.3006 15.2715 37.1558C14.9016 37.0162 14.484 36.6448 14.4551 36.6186C14.4739 36.6296 14.6264 36.7222 14.7598 36.7623Z" fill="#E6E6E6"/>
<path id="path678" d="M15.7161 35.9798C15.7161 35.9805 15.7166 35.9808 15.7166 35.9814C15.7212 36.0203 15.7923 36.5779 15.9789 36.9294C16.1725 37.2942 16.1291 37.9062 16.1291 37.9062C16.1291 37.9062 15.681 37.5104 15.6104 37.1864C15.5249 36.7964 15.7102 36.0044 15.7161 35.9798Z" fill="#929292"/>
<path id="path680" d="M15.8558 36.2924C15.9977 36.5204 16.1367 36.6998 16.2697 36.9767C16.3474 37.1384 16.3225 37.5824 16.2209 37.7785C16.1908 37.8659 16.1333 37.9062 16.1333 37.9062C16.1333 37.9062 16.1766 37.2942 15.9831 36.9294C15.7964 36.5779 15.7253 36.0203 15.7207 35.9814C15.7276 36.002 15.7819 36.1735 15.8558 36.2924Z" fill="#E6E6E6"/>
<path id="path682" d="M15.3965 37.8803C15.3969 37.8805 15.3974 37.8805 15.3979 37.8807C15.4323 37.8991 15.9269 38.1563 16.3193 38.2008C16.7263 38.2467 17.2006 38.63 17.2006 38.63C17.2006 38.63 16.6238 38.778 16.3195 38.6529C15.9533 38.503 15.413 37.8993 15.3965 37.8803Z" fill="#929292"/>
<path id="path684" d="M15.7267 37.9438C15.9932 37.9552 16.2179 37.9416 16.5193 37.9879C16.6949 38.015 17.0426 38.2877 17.1446 38.4836C17.1987 38.5579 17.1992 38.6289 17.1992 38.6289C17.1992 38.6289 16.7249 38.2456 16.3179 38.1997C15.9255 38.1552 15.4309 37.898 15.3965 37.8797C15.4174 37.8857 15.5877 37.9378 15.7267 37.9438Z" fill="#E6E6E6"/>
<path id="path686" d="M16.4668 36.9442C16.467 36.9447 16.4673 36.9449 16.4675 36.9456C16.4812 36.9822 16.6849 37.5054 16.9507 37.8005C17.2263 38.1066 17.332 38.7109 17.332 38.7109C17.332 38.7109 16.8018 38.4373 16.6553 38.1404C16.478 37.7833 16.4668 36.9695 16.4668 36.9442Z" fill="#929292"/>
<path id="path688" d="M16.673 37.2142C16.8656 37.4003 17.0435 37.54 17.2394 37.7759C17.3536 37.9133 17.4364 38.3501 17.3852 38.5655C17.3772 38.6574 17.3313 38.7109 17.3313 38.7109C17.3313 38.7109 17.2256 38.1066 16.95 37.8005C16.6842 37.5054 16.4806 36.9822 16.4668 36.9456C16.4785 36.964 16.5725 37.1169 16.673 37.2142Z" fill="#E6E6E6"/>
<path id="path690" d="M16.418 38.777C16.4187 38.7774 16.4191 38.7771 16.4196 38.7776C16.4547 38.7945 16.9583 39.0335 17.352 39.0634C17.7602 39.0942 18.248 39.4599 18.248 39.4599C18.248 39.4599 17.677 39.6292 17.3685 39.5153C16.997 39.3787 16.4354 38.7954 16.418 38.777Z" fill="#929292"/>
<path id="path692" d="M16.76 38.8306C17.0267 38.832 17.251 38.8102 17.5535 38.8455C17.7303 38.866 18.0873 39.1258 18.1965 39.3177C18.2531 39.3902 18.2561 39.4609 18.2561 39.4609C18.2561 39.4609 17.7683 39.0952 17.3602 39.0645C16.9664 39.0346 16.4628 38.7956 16.4277 38.7787C16.4488 38.7838 16.621 38.8296 16.76 38.8306Z" fill="#E6E6E6"/>
<path id="path694" d="M17.4609 37.8094C17.4612 37.8098 17.4616 37.81 17.4619 37.8107C17.477 37.8467 17.6992 38.3623 17.9753 38.6474C18.262 38.943 18.3892 39.543 18.3892 39.543C18.3892 39.543 17.8496 39.2892 17.6925 38.9979C17.5024 38.6475 17.4619 37.8347 17.4609 37.8094Z" fill="#929292"/>
<path id="path696" d="M17.6765 38.0714C17.8758 38.2503 18.0586 38.3836 18.2626 38.6121C18.3821 38.7454 18.4805 39.1787 18.4369 39.3956C18.4323 39.488 18.3883 39.543 18.3883 39.543C18.3883 39.543 18.261 38.943 17.9744 38.6474C17.6983 38.3623 17.4761 37.8467 17.4609 37.8107C17.4733 37.8286 17.5726 37.978 17.6765 38.0714Z" fill="#E6E6E6"/>
<path id="path698" d="M17.7363 39.6311C17.7368 39.6311 17.7372 39.631 17.7379 39.6311C17.776 39.638 18.3248 39.7311 18.7119 39.6523C19.1134 39.5705 19.6808 39.7904 19.6808 39.7904C19.6808 39.7904 19.1758 40.1101 18.8485 40.0845C18.4543 40.0543 17.7579 39.6442 17.7363 39.6311Z" fill="#929292"/>
<path id="path700" d="M18.0702 39.593C18.3273 39.5217 18.5374 39.4392 18.8382 39.3906C19.0137 39.362 19.4269 39.5153 19.5833 39.6712C19.6574 39.7256 19.6792 39.793 19.6792 39.793C19.6792 39.793 19.1118 39.573 18.7103 39.6548C18.3232 39.7337 17.7744 39.6405 17.7363 39.6337C17.7579 39.633 17.9361 39.6302 18.0702 39.593Z" fill="#E6E6E6"/>
<path id="path702" d="M19.2852 40.1808C19.2858 40.1808 19.2863 40.1807 19.2868 40.1807C19.3255 40.1808 19.8819 40.1795 20.2506 40.0367C20.6329 39.8883 21.2284 40.0085 21.2284 40.0085C21.2284 40.0085 20.7835 40.4081 20.4565 40.4381C20.063 40.4751 19.3085 40.1899 19.2852 40.1808Z" fill="#929292"/>
<path id="path704" d="M19.6078 40.0829C19.8495 39.9688 20.0428 39.8518 20.3316 39.7528C20.4999 39.6949 20.9326 39.776 21.1124 39.903C21.1943 39.9441 21.2268 40.007 21.2268 40.007C21.2268 40.007 20.6313 39.8864 20.249 40.0353C19.8802 40.1785 19.3239 40.1798 19.2852 40.1797C19.3065 40.1752 19.4815 40.1424 19.6078 40.0829Z" fill="#E6E6E6"/>
<path id="path706" d="M18.4824 38.4155C18.4827 38.4162 18.4831 38.4162 18.4836 38.4166C18.5077 38.4472 18.8592 38.8831 19.2013 39.0824C19.5561 39.2891 19.8389 39.832 19.8389 39.832C19.8389 39.832 19.2516 39.7347 19.0225 39.4969C18.7461 39.2115 18.49 38.4398 18.4824 38.4155Z" fill="#929292"/>
<path id="path708" d="M18.7594 38.609C18.9993 38.7271 19.2107 38.8054 19.4683 38.9697C19.6187 39.0657 19.8292 39.4562 19.8453 39.677C19.8655 39.7671 19.8377 39.832 19.8377 39.832C19.8377 39.832 19.555 39.2891 19.2002 39.0824C18.858 38.8831 18.5065 38.4472 18.4824 38.4166C18.4992 38.4305 18.6347 38.5473 18.7594 38.609Z" fill="#E6E6E6"/>
<path id="path710" d="M19.793 38.9917C19.7934 38.9921 19.7937 38.9921 19.7941 38.9926C19.8196 39.015 20.1883 39.3366 20.5135 39.4558C20.8506 39.5793 21.1765 40.0039 21.1765 40.0039C21.1765 40.0039 20.6552 40.0103 20.4218 39.8409C20.1404 39.6373 19.8033 39.0113 19.793 38.9917Z" fill="#929292"/>
<path id="path712" d="M20.061 39.1156C20.2856 39.1805 20.4796 39.2153 20.7265 39.3175C20.8708 39.3768 21.1111 39.6811 21.1584 39.869C21.1893 39.9436 21.1753 40.0039 21.1753 40.0039C21.1753 40.0039 20.8495 39.5794 20.5124 39.4558C20.1872 39.3367 19.8184 39.015 19.793 38.9926C19.8095 39.0018 19.9439 39.0819 20.061 39.1156Z" fill="#E6E6E6"/>
<path id="path714" d="M20.3672 40.5352C20.3674 40.5349 20.3674 40.5347 20.3679 40.5344C20.3858 40.5257 20.6428 40.3963 20.7809 40.245C20.9242 40.0879 21.2267 40.0056 21.2267 40.0056C21.2267 40.0056 21.1116 40.2932 20.9671 40.3829C20.7935 40.4912 20.38 40.5338 20.3672 40.5352Z" fill="#929292"/>
<path id="path716" d="M20.4945 40.416C20.5805 40.3076 20.6435 40.2089 20.7545 40.0965C20.8194 40.0307 21.0377 39.9678 21.1496 39.9848C21.1969 39.9848 21.226 40.0063 21.226 40.0063C21.226 40.0063 20.9235 40.0886 20.7802 40.2458C20.6422 40.397 20.3851 40.5264 20.3672 40.5352C20.3759 40.5285 20.4495 40.4726 20.4945 40.416Z" fill="#E6E6E6"/>
<path id="path718" d="M28.8729 29.7109C28.8729 29.7116 28.8726 29.7121 28.8726 29.7127C28.8731 29.7519 28.8754 30.3141 28.7364 30.6874C28.5919 31.0747 28.7146 31.6758 28.7146 31.6758C28.7146 31.6758 29.1072 31.2237 29.135 30.893C29.1691 30.4951 28.882 29.7345 28.8729 29.7109Z" fill="#929292"/>
<path id="path720" d="M28.7783 30.039C28.6673 30.284 28.5531 30.4803 28.4573 30.7725C28.4013 30.943 28.4841 31.3799 28.6102 31.5606C28.6515 31.6433 28.7136 31.6758 28.7136 31.6758C28.7136 31.6758 28.5909 31.0747 28.7354 30.6874C28.8744 30.3141 28.8721 29.7519 28.8716 29.7127C28.8675 29.7341 28.8361 29.9111 28.7783 30.039Z" fill="#E6E6E6"/>
<path id="path722" d="M27.5645 30.2548C27.5649 30.2553 27.5649 30.2557 27.5654 30.2562C27.5913 30.2852 27.9603 30.706 28.0999 31.0793C28.2444 31.4663 28.7292 31.8359 28.7292 31.8359C28.7292 31.8359 28.7287 31.2346 28.5336 30.9676C28.2992 30.646 27.5867 30.2662 27.5645 30.2548Z" fill="#929292"/>
<path id="path724" d="M27.7076 30.5631C27.7841 30.8213 27.8266 31.0447 27.9458 31.3283C28.0151 31.4938 28.3625 31.7665 28.5755 31.8182C28.6604 31.8527 28.7283 31.8356 28.7283 31.8356C28.7283 31.8356 28.2435 31.466 28.099 31.079C27.9593 30.7056 27.5904 30.2848 27.5645 30.2558C27.5755 30.2746 27.6674 30.4285 27.7076 30.5631Z" fill="#E6E6E6"/>
<path id="path726" d="M29.2206 31.0877C29.2206 31.0881 29.2204 31.0886 29.2204 31.089C29.2151 31.128 29.136 31.6844 28.9443 32.0334C28.7452 32.3951 28.7796 33.0078 28.7796 33.0078C28.7796 33.0078 29.2334 32.6187 29.3087 32.2957C29.4002 31.9071 29.2266 31.1122 29.2206 31.0877Z" fill="#929292"/>
<path id="path728" d="M29.0756 31.3982C28.9302 31.6241 28.7889 31.8014 28.6518 32.0762C28.5715 32.2368 28.5901 32.6811 28.6889 32.8785C28.7176 32.9663 28.7745 33.0078 28.7745 33.0078C28.7745 33.0078 28.7401 32.3951 28.9391 32.0334C29.1308 31.6844 29.2099 31.128 29.2152 31.089C29.2079 31.1099 29.1512 31.2805 29.0756 31.3982Z" fill="#E6E6E6"/>
<path id="path730" d="M27.8438 31.4313C27.8442 31.432 27.8442 31.4325 27.8447 31.433C27.866 31.4654 28.1701 31.9363 28.254 32.3263C28.3409 32.7307 28.767 33.168 28.767 33.168C28.767 33.168 28.8537 32.5731 28.6993 32.2802C28.514 31.9273 27.8644 31.4462 27.8438 31.4313Z" fill="#929292"/>
<path id="path732" d="M27.9408 31.758C27.9793 32.0245 27.9887 32.252 28.0655 32.55C28.11 32.7238 28.4143 33.0452 28.6175 33.1277C28.6964 33.1746 28.7661 33.1676 28.7661 33.1676C28.7661 33.1676 28.34 32.7303 28.2531 32.3259C28.1692 31.9359 27.8651 31.465 27.8438 31.4326C27.8518 31.453 27.9206 31.6189 27.9408 31.758Z" fill="#E6E6E6"/>
<path id="path734" d="M29.3635 32.583C29.3633 32.5835 29.363 32.5837 29.3628 32.5844C29.3488 32.621 29.1443 33.1436 28.8778 33.4383C28.6015 33.7435 28.4941 34.3477 28.4941 34.3477C28.4941 34.3477 29.025 34.0754 29.1722 33.7787C29.3502 33.4221 29.3635 32.6082 29.3635 32.583Z" fill="#929292"/>
<path id="path736" d="M29.1525 32.8523C28.9592 33.0381 28.7812 33.1774 28.5847 33.4128C28.47 33.55 28.3863 33.9866 28.437 34.2019C28.4448 34.2941 28.4904 34.3477 28.4904 34.3477C28.4904 34.3477 28.5977 33.7435 28.8741 33.4383C29.1406 33.1436 29.3451 32.621 29.3591 32.5844C29.3474 32.6027 29.2532 32.7554 29.1525 32.8523Z" fill="#E6E6E6"/>
<path id="path738" d="M27.9512 32.5944C27.9514 32.5951 27.9514 32.5956 27.9516 32.5961C27.9649 32.6329 28.153 33.162 28.1452 33.561C28.1372 33.9747 28.4513 34.5 28.4513 34.5C28.4513 34.5 28.6719 33.9413 28.5889 33.6203C28.4894 33.2336 27.9677 32.6137 27.9512 32.5944Z" fill="#929292"/>
<path id="path740" d="M27.9692 32.9353C27.9453 33.2037 27.9024 33.4271 27.9089 33.735C27.9123 33.9146 28.1347 34.2984 28.3134 34.4263C28.3794 34.4903 28.4489 34.5 28.4489 34.5C28.4489 34.5 28.1347 33.9747 28.1428 33.561C28.1506 33.162 27.9625 32.6329 27.9492 32.5961C27.9524 32.6178 27.9813 32.7954 27.9692 32.9353Z" fill="#E6E6E6"/>
<path id="path742" d="M29.1906 33.983C29.1903 33.9837 29.1899 33.9837 29.1896 33.9844C29.172 34.0192 28.9117 34.516 28.6147 34.7793C28.307 35.052 28.1348 35.6406 28.1348 35.6406C28.1348 35.6406 28.6918 35.4288 28.8704 35.1505C29.0862 34.8156 29.1878 34.0083 29.1906 33.983Z" fill="#929292"/>
<path id="path744" d="M28.9611 34.228C28.7487 34.3911 28.5566 34.5098 28.3357 34.7218C28.2069 34.8455 28.0761 35.2703 28.1032 35.4898C28.1009 35.5822 28.1406 35.6406 28.1406 35.6406C28.1406 35.6406 28.3128 35.052 28.6206 34.7793C28.9175 34.516 29.1778 34.0192 29.1955 33.9844C29.1819 34.0013 29.0716 34.1427 28.9611 34.228Z" fill="#E6E6E6"/>
<path id="path746" d="M27.791 33.8394C27.7912 33.8401 27.791 33.8406 27.7913 33.8413C27.8007 33.8793 27.9298 34.426 27.8788 34.8218C27.8259 35.2319 28.0811 35.7891 28.0811 35.7891C28.0811 35.7891 28.3611 35.2584 28.3134 34.93C28.2568 34.5347 27.8055 33.8603 27.791 33.8394Z" fill="#929292"/>
<path id="path748" d="M27.7689 34.1806C27.7159 34.4447 27.6492 34.6619 27.6221 34.9687C27.606 35.1476 27.7851 35.5538 27.9491 35.7007C28.0078 35.7717 28.0757 35.7891 28.0757 35.7891C28.0757 35.7891 27.8205 35.2319 27.8734 34.8218C27.9243 34.426 27.7952 33.8793 27.7858 33.8413C27.7868 33.8631 27.7962 34.0427 27.7689 34.1806Z" fill="#E6E6E6"/>
<path id="path750" d="M28.8222 35.3581C28.8218 35.3588 28.8213 35.3588 28.8209 35.3593C28.7972 35.3903 28.4503 35.8297 28.1102 36.0327C27.7577 36.2431 27.4805 36.7891 27.4805 36.7891C27.4805 36.7891 28.0668 36.6855 28.2934 36.4454C28.5668 36.1569 28.8149 35.3824 28.8222 35.3581Z" fill="#929292"/>
<path id="path752" d="M28.55 35.5546C28.3115 35.6751 28.1009 35.7558 27.845 35.9231C27.6955 36.0204 27.4891 36.4132 27.4753 36.6341C27.4563 36.7244 27.4845 36.7891 27.4845 36.7891C27.4845 36.7891 27.7618 36.2431 28.1142 36.0327C28.4543 35.8297 28.8013 35.3903 28.8249 35.3593C28.8084 35.3734 28.6743 35.4916 28.55 35.5546Z" fill="#E6E6E6"/>
<path id="path754" d="M27.4699 34.9521C27.4699 34.9528 27.4697 34.953 27.4697 34.9537C27.472 34.9929 27.4986 35.5544 27.3759 35.9338C27.2484 36.327 27.397 36.9219 27.397 36.9219C27.397 36.9219 27.7696 36.4528 27.7829 36.1215C27.7999 35.7222 27.48 34.9753 27.4699 34.9521Z" fill="#929292"/>
<path id="path756" d="M27.3909 35.284C27.2907 35.5335 27.1852 35.7347 27.1022 36.0309C27.0536 36.2037 27.1552 36.6364 27.2893 36.8115C27.3338 36.8922 27.3973 36.9219 27.3973 36.9219C27.3973 36.9219 27.2487 36.327 27.3762 35.9338C27.4989 35.5544 27.4723 34.9929 27.47 34.9537C27.4668 34.9753 27.4432 35.1537 27.3909 35.284Z" fill="#E6E6E6"/>
<path id="path758" d="M28.2504 36.6176C28.25 36.6181 28.2495 36.6181 28.2491 36.6186C28.2204 36.6448 27.8026 37.0162 27.4327 37.1558C27.049 37.3006 26.6816 37.7891 26.6816 37.7891C26.6816 37.7891 27.2767 37.791 27.5414 37.5944C27.8606 37.3587 28.239 36.6401 28.2504 36.6176Z" fill="#929292"/>
<path id="path760" d="M27.9486 36.7623C27.6929 36.8388 27.4714 36.8808 27.1905 37C27.0265 37.0695 26.7552 37.4196 26.7034 37.6347C26.669 37.7204 26.6857 37.7891 26.6857 37.7891C26.6857 37.7891 27.0531 37.3006 27.4367 37.1558C27.8066 37.0162 28.2245 36.6448 28.2531 36.6186C28.2346 36.6296 28.0818 36.7222 27.9486 36.7623Z" fill="#E6E6E6"/>
<path id="path762" d="M26.9875 35.9798C26.9875 35.9805 26.987 35.9808 26.987 35.9814C26.9824 36.0203 26.9113 36.5779 26.7249 36.9294C26.5311 37.2942 26.5745 37.9062 26.5745 37.9062C26.5745 37.9062 27.0226 37.5104 27.0932 37.1864C27.1789 36.7964 26.9937 36.0044 26.9875 35.9798Z" fill="#929292"/>
<path id="path764" d="M26.854 36.2924C26.712 36.5204 26.5733 36.6998 26.4403 36.9767C26.3623 37.1384 26.3875 37.5824 26.4891 37.7785C26.5189 37.8659 26.5765 37.9062 26.5765 37.9062C26.5765 37.9062 26.5332 37.2942 26.7269 36.9294C26.9134 36.5779 26.9845 36.0203 26.9891 35.9814C26.9822 36.002 26.928 36.1735 26.854 36.2924Z" fill="#E6E6E6"/>
<path id="path766" d="M27.3121 37.8803C27.3114 37.8805 27.311 37.8805 27.3105 37.8807C27.2764 37.8991 26.7815 38.1563 26.3891 38.2008C25.9823 38.2467 25.5078 38.63 25.5078 38.63C25.5078 38.63 26.0848 38.778 26.3889 38.6529C26.7553 38.503 27.2954 37.8993 27.3121 37.8803Z" fill="#929292"/>
<path id="path768" d="M26.9803 37.9438C26.7141 37.9552 26.4891 37.9416 26.188 37.9879C26.0121 38.015 25.6647 38.2877 25.5624 38.4836C25.5083 38.5579 25.5078 38.6289 25.5078 38.6289C25.5078 38.6289 25.9823 38.2456 26.3891 38.1997C26.7815 38.1552 27.2764 37.898 27.3105 37.8797C27.2897 37.8857 27.1193 37.9378 26.9803 37.9438Z" fill="#E6E6E6"/>
<path id="path770" d="M26.2344 36.9442C26.2341 36.9447 26.2337 36.9449 26.2335 36.9456C26.2197 36.9822 26.0163 37.5054 25.7505 37.8005C25.4749 38.1066 25.3691 38.7109 25.3691 38.7109C25.3691 38.7109 25.8991 38.4373 26.0456 38.1404C26.2229 37.7833 26.2344 36.9695 26.2344 36.9442Z" fill="#929292"/>
<path id="path772" d="M26.0326 37.2142C25.8398 37.4003 25.6621 37.54 25.4662 37.7759C25.3518 37.9133 25.269 38.3501 25.3201 38.5655C25.3282 38.6574 25.3743 38.7109 25.3743 38.7109C25.3743 38.7109 25.48 38.1066 25.7556 37.8005C26.0214 37.5054 26.2248 36.9822 26.2386 36.9456C26.2269 36.964 26.1331 37.1169 26.0326 37.2142Z" fill="#E6E6E6"/>
<path id="path774" d="M26.289 38.777C26.2883 38.7774 26.2878 38.7771 26.2874 38.7776C26.2525 38.7945 25.7489 39.0335 25.3549 39.0634C24.9467 39.0942 24.459 39.4599 24.459 39.4599C24.459 39.4599 25.03 39.6292 25.3384 39.5153C25.7102 39.3787 26.2718 38.7954 26.289 38.777Z" fill="#929292"/>
<path id="path776" d="M25.9551 38.8306C25.6884 38.832 25.4643 38.8102 25.1616 38.8455C24.985 38.866 24.6278 39.1258 24.5188 39.3177C24.462 39.3902 24.459 39.4609 24.459 39.4609C24.459 39.4609 24.9467 39.0952 25.3549 39.0645C25.7489 39.0346 26.2525 38.7956 26.2874 38.7787C26.2663 38.7838 26.0943 38.8296 25.9551 38.8306Z" fill="#E6E6E6"/>
<path id="path778" d="M25.2467 37.8094C25.2464 37.8098 25.246 37.81 25.2457 37.8107C25.2306 37.8467 25.0086 38.3623 24.7323 38.6474C24.4459 38.943 24.3184 39.543 24.3184 39.543C24.3184 39.543 24.8579 39.2892 25.0153 38.9979C25.2051 38.6475 25.2457 37.8347 25.2467 37.8094Z" fill="#929292"/>
<path id="path780" d="M25.0267 38.0714C24.8274 38.2503 24.6447 38.3836 24.4406 38.6121C24.3213 38.7454 24.2229 39.1787 24.2663 39.3956C24.2709 39.488 24.3149 39.543 24.3149 39.543C24.3149 39.543 24.4424 38.943 24.7288 38.6474C25.0052 38.3623 25.2271 37.8467 25.2423 37.8107C25.2299 37.8286 25.1306 37.978 25.0267 38.0714Z" fill="#E6E6E6"/>
<path id="path782" d="M24.9698 39.6311C24.9691 39.6311 24.9687 39.631 24.968 39.6311C24.9299 39.638 24.3811 39.7311 23.9941 39.6523C23.5925 39.5705 23.0254 39.7904 23.0254 39.7904C23.0254 39.7904 23.5301 40.1101 23.8576 40.0845C24.2518 40.0543 24.9483 39.6442 24.9698 39.6311Z" fill="#929292"/>
<path id="path784" d="M24.6343 39.593C24.377 39.5217 24.1672 39.4392 23.8661 39.3906C23.6907 39.362 23.2774 39.5153 23.121 39.6712C23.0472 39.7256 23.0254 39.793 23.0254 39.793C23.0254 39.793 23.5925 39.573 23.9941 39.6548C24.3811 39.7337 24.9299 39.6405 24.968 39.6337C24.9464 39.633 24.7685 39.6302 24.6343 39.593Z" fill="#E6E6E6"/>
<path id="path786" d="M24.2258 38.4155C24.2254 38.4162 24.2249 38.4162 24.2244 38.4166C24.2004 38.4472 23.8488 38.8831 23.5069 39.0824C23.1519 39.2891 22.8691 39.832 22.8691 39.832C22.8691 39.832 23.4564 39.7347 23.6855 39.4969C23.9621 39.2115 24.218 38.4398 24.2258 38.4155Z" fill="#929292"/>
<path id="path788" d="M23.9466 38.609C23.707 38.7271 23.4953 38.8054 23.2378 38.9697C23.0873 39.0657 22.8768 39.4562 22.8608 39.677C22.8408 39.7671 22.8683 39.832 22.8683 39.832C22.8683 39.832 23.1511 39.2891 23.5061 39.0824C23.848 38.8831 24.1996 38.4472 24.2236 38.4166C24.2071 38.4305 24.0716 38.5473 23.9466 38.609Z" fill="#E6E6E6"/>
<path id="path790" d="M23.6335 40.1767C23.6328 40.1767 23.6324 40.1764 23.6317 40.1764C23.593 40.1764 23.0368 40.1714 22.669 40.0258C22.2879 39.875 21.6914 39.9909 21.6914 39.9909C21.6914 39.9909 22.1335 40.3936 22.4603 40.4258C22.8536 40.4656 23.6099 40.1858 23.6335 40.1767Z" fill="#929292"/>
<path id="path792" d="M23.31 40.0809C23.0692 39.9649 22.8765 39.8466 22.5885 39.7457C22.4207 39.6867 21.9872 39.7648 21.8068 39.8903C21.7244 39.931 21.6914 39.9935 21.6914 39.9935C21.6914 39.9935 22.2879 39.8773 22.669 40.0286C23.0368 40.1746 23.593 40.1797 23.6317 40.1797C23.6106 40.1753 23.4359 40.1411 23.31 40.0809Z" fill="#E6E6E6"/>
<path id="path794" d="M22.9165 38.9917C22.9163 38.9921 22.9158 38.9921 22.9153 38.9926C22.8899 39.015 22.5211 39.3366 22.1959 39.4558C21.8591 39.5793 21.5332 40.0039 21.5332 40.0039C21.5332 40.0039 22.0542 40.0103 22.2877 39.8409C22.569 39.6373 22.9064 39.0113 22.9165 38.9917Z" fill="#929292"/>
<path id="path796" d="M22.6467 39.1156C22.4222 39.1805 22.228 39.2153 21.981 39.3175C21.837 39.3768 21.5964 39.6811 21.5494 39.869C21.5185 39.9436 21.5324 40.0039 21.5324 40.0039C21.5324 40.0039 21.8583 39.5794 22.1952 39.4558C22.5204 39.3367 22.8891 39.015 22.9146 38.9926C22.8981 39.0018 22.7637 39.0819 22.6467 39.1156Z" fill="#E6E6E6"/>
<path id="path798" d="M22.3363 40.5352C22.3358 40.5349 22.3358 40.5347 22.3356 40.5344C22.3175 40.5257 22.0604 40.3963 21.9224 40.245C21.7793 40.0879 21.4766 40.0056 21.4766 40.0056C21.4766 40.0056 21.5917 40.2932 21.7362 40.3829C21.9098 40.4912 22.3232 40.5338 22.3363 40.5352Z" fill="#929292"/>
<path id="path800" d="M22.2081 40.416C22.1223 40.3076 22.0593 40.2089 21.9481 40.0965C21.8834 40.0307 21.6648 39.9678 21.5529 39.9848C21.5059 39.9848 21.4766 40.0063 21.4766 40.0063C21.4766 40.0063 21.7793 40.0886 21.9224 40.2458C22.0604 40.397 22.3175 40.5264 22.3356 40.5352C22.3267 40.5285 22.253 40.4726 22.2081 40.416Z" fill="#E6E6E6"/>
<path id="path802" d="M17.5953 20.8503C13.4152 21.7038 10.2428 24.2235 8.44922 27.2794C6.9717 29.7939 6.7621 31.816 7.38677 34.2138C10.4049 46.3009 14.6909 39.947 20.4492 45.8367C20.4985 45.8882 20.4907 45.9538 20.4499 45.9927L20.0121 46.4084C19.9717 46.4466 19.9068 46.4493 19.8633 46.4038C16.3124 42.811 13.5581 44.1784 10.7337 42.1869C8.33571 40.4753 7.2978 36.9008 6.64377 33.9269C6.00625 31.0117 6.87149 28.4086 8.7079 25.9619C8.81774 25.8104 9.16448 25.3942 9.22181 25.3293C11.4749 22.85 14.1057 21.2551 17.5953 20.8503Z" fill="#929292"/>
<path id="path804" d="M5.25126 24.267C5.25081 24.2691 5.25149 24.2703 5.25104 24.2721C5.23154 24.3936 4.96897 26.1383 5.23085 27.3626C5.50283 28.632 4.84857 30.4414 4.84857 30.4414C4.84857 30.4414 3.8352 28.8554 3.89941 27.8158C3.97463 26.564 5.21182 24.3359 5.25126 24.267Z" fill="#929292"/>
<path id="path806" d="M5.38552 25.3291C5.61897 26.1413 5.88407 26.8036 6.04849 27.7558C6.14504 28.3113 5.68914 29.6289 5.2149 30.132C5.04956 30.3693 4.8418 30.4414 4.8418 30.4414C4.8418 30.4414 5.49605 28.632 5.22408 27.3626C4.96219 26.1383 5.22477 24.3936 5.24426 24.2721C5.24747 24.341 5.26421 24.9052 5.38552 25.3291Z" fill="#E6E6E6"/>
<path id="path808" d="M7.88577 26.379C7.88486 26.3809 7.88554 26.382 7.88463 26.3841C7.84427 26.5 7.27922 28.1696 7.32187 29.4217C7.36659 30.7196 6.40481 32.3828 6.40481 32.3828C6.40481 32.3828 5.68612 30.6404 5.93218 29.6289C6.22594 28.4104 7.83486 26.4395 7.88577 26.379Z" fill="#929292"/>
<path id="path810" d="M7.83538 27.4494C7.92252 28.2906 8.06722 28.99 8.06172 29.9565C8.05896 30.5204 7.37902 31.7356 6.82406 32.1455C6.61974 32.3492 6.40234 32.3828 6.40234 32.3828C6.40234 32.3828 7.36412 30.7196 7.3194 29.4217C7.27675 28.1696 7.84179 26.5 7.88215 26.3841C7.87321 26.4522 7.79066 27.0107 7.83538 27.4494Z" fill="#E6E6E6"/>
<path id="path812" d="M2.62305 27.6027C2.62373 27.6043 2.62488 27.6048 2.62557 27.6064C2.66983 27.7009 3.31927 29.0513 4.08772 29.7815C4.88485 30.5381 5.29098 32.125 5.29098 32.125C5.29098 32.125 3.82309 31.5084 3.37155 30.7485C2.82622 29.8348 2.62832 27.6701 2.62305 27.6027Z" fill="#929292"/>
<path id="path814" d="M3.22685 28.278C3.77837 28.7331 4.28082 29.0677 4.85091 29.6547C5.18389 29.9967 5.49416 31.1424 5.40198 31.7262C5.39968 31.9732 5.28846 32.125 5.28846 32.125C5.28846 32.125 4.88233 30.5381 4.08521 29.7815C3.31675 29.0513 2.66731 27.7009 2.62305 27.6064C2.6579 27.653 2.93951 28.0402 3.22685 28.278Z" fill="#E6E6E6"/>
<path id="path816" d="M2.15625 31.4392C2.1574 31.4406 2.15854 31.4409 2.15969 31.4422C2.22848 31.528 3.22925 32.7476 4.19791 33.3012C5.20257 33.8748 6.0123 35.3984 6.0123 35.3984C6.0123 35.3984 4.35499 35.138 3.70372 34.4738C2.91806 33.6755 2.17826 31.5071 2.15625 31.4392Z" fill="#929292"/>
<path id="path818" d="M2.9534 31.9778C3.63173 32.3045 4.22934 32.5203 4.95928 32.9773C5.38536 33.2438 5.98779 34.3392 6.03824 34.9609C6.09695 35.2144 6.02058 35.3984 6.02058 35.3984C6.02058 35.3984 5.21085 33.8748 4.20619 33.3012C3.23753 32.7476 2.23677 31.528 2.16797 31.4422C2.21521 31.4812 2.59978 31.807 2.9534 31.9778Z" fill="#E6E6E6"/>
<path id="path820" d="M5.70323 29.9319C5.70323 29.934 5.70438 29.9351 5.70438 29.9372C5.71263 30.0642 5.84931 31.888 6.39578 33.0627C6.96289 34.2807 6.7189 36.2617 6.7189 36.2617C6.7189 36.2617 5.33012 34.8985 5.1556 33.8334C4.94325 32.5517 5.67938 30.0107 5.70323 29.9319Z" fill="#929292"/>
<path id="path822" d="M6.08712 30.9712C6.50999 31.7367 6.93034 32.3429 7.31583 33.2659C7.54102 33.8042 7.38439 35.2421 7.02115 35.8615C6.90901 36.1399 6.71569 36.2617 6.71569 36.2617C6.71569 36.2617 6.95969 34.2807 6.39258 33.0627C5.8461 31.888 5.70943 30.0642 5.70117 29.9372C5.71998 30.0058 5.8672 30.5717 6.08712 30.9712Z" fill="#E6E6E6"/>
<path id="path824" d="M2.31055 37.4222C2.31238 37.4232 2.31376 37.4224 2.31559 37.4234C2.43438 37.4661 4.14535 38.0618 5.42933 38.0203C6.76077 37.9768 8.46395 38.9881 8.46395 38.9881C8.46395 38.9881 6.67524 39.7364 5.63847 39.4764C4.38958 39.1653 2.37246 37.4758 2.31055 37.4222Z" fill="#929292"/>
<path id="path826" d="M3.41304 37.4753C4.27598 37.386 4.99329 37.2363 5.98442 37.2445C6.56277 37.2486 7.8073 37.9638 8.22628 38.5461C8.43473 38.7607 8.46867 38.9883 8.46867 38.9883C8.46867 38.9883 6.76549 37.977 5.43405 38.0205C4.15007 38.062 2.4391 37.4662 2.32031 37.4236C2.39026 37.4331 2.96288 37.5211 3.41304 37.4753Z" fill="#E6E6E6"/>
<path id="path828" d="M5.98047 35.5179C5.98139 35.5198 5.98276 35.5202 5.98368 35.5221C6.04743 35.6319 6.97917 37.1999 7.9891 38.0021C9.03665 38.8336 9.69801 40.7148 9.69801 40.7148C9.69801 40.7148 7.85174 40.1257 7.22293 39.253C6.46411 38.2039 5.994 35.5993 5.98047 35.5179Z" fill="#929292"/>
<path id="path830" d="M6.78447 36.2715C7.50225 36.7638 8.14711 37.1151 8.90112 37.7651C9.34142 38.1442 9.83973 39.5003 9.7902 40.2184C9.81359 40.5183 9.6948 40.7148 9.6948 40.7148C9.6948 40.7148 9.03344 38.8336 7.9859 38.0021C6.97596 37.1999 6.04422 35.6319 5.98047 35.5221C6.02794 35.5749 6.41045 36.014 6.78447 36.2715Z" fill="#E6E6E6"/>
<path id="path832" d="M10.0072 35.1218C10.0072 35.1241 10.0083 35.125 10.0083 35.1271C10.0182 35.2541 10.1787 37.0757 10.7406 38.243C11.3235 39.4534 11.1056 41.4375 11.1056 41.4375C11.1056 41.4375 9.6992 40.093 9.5107 39.0304C9.28161 37.7517 9.98425 35.201 10.0072 35.1218Z" fill="#929292"/>
<path id="path834" d="M10.4073 36.156C10.84 36.9156 11.2684 37.5163 11.6658 38.4337C11.8981 38.9691 11.7603 40.409 11.4053 41.0333C11.2968 41.3133 11.1051 41.4375 11.1051 41.4375C11.1051 41.4375 11.323 39.4534 10.74 38.243C10.1782 37.0757 10.0177 35.2541 10.0078 35.1271C10.0275 35.1954 10.1821 35.7595 10.4073 36.156Z" fill="#E6E6E6"/>
<path id="path836" d="M12.7534 36.8327C12.7534 36.8348 12.7543 36.836 12.7545 36.8381C12.7644 36.9651 12.9249 38.7865 13.4867 39.9539C14.0697 41.1641 13.8516 43.1484 13.8516 43.1484C13.8516 43.1484 12.4451 41.8036 12.2569 40.7412C12.0276 39.4625 12.7302 36.9118 12.7534 36.8327Z" fill="#929292"/>
<path id="path838" d="M13.1573 37.8669C13.59 38.6263 14.0184 39.227 14.4158 40.1447C14.6481 40.68 14.5103 42.1197 14.1553 42.7441C14.0466 43.024 13.8549 43.1484 13.8549 43.1484C13.8549 43.1484 14.073 41.1641 13.49 39.9539C12.9282 38.7865 12.7677 36.9651 12.7578 36.8381C12.7775 36.9064 12.9319 37.4702 13.1573 37.8669Z" fill="#E6E6E6"/>
<path id="path840" d="M4.52344 41.5963C4.5255 41.5968 4.52688 41.596 4.52894 41.5965C4.65897 41.6199 6.52863 41.9377 7.84838 41.6712C9.21652 41.3944 11.149 42.143 11.149 42.143C11.149 42.143 9.42818 43.2277 8.31253 43.1394C6.96916 43.0356 4.59682 41.6407 4.52344 41.5963Z" fill="#929292"/>
<path id="path842" d="M5.66524 41.4611C6.54171 41.219 7.25765 40.9392 8.28318 40.775C8.88148 40.6788 10.2893 41.2011 10.8215 41.7299C11.0736 41.9151 11.1474 42.1445 11.1474 42.1445C11.1474 42.1445 9.21492 41.396 7.84678 41.6727C6.52703 41.9392 4.65737 41.6215 4.52734 41.5981C4.60119 41.596 5.20774 41.5869 5.66524 41.4611Z" fill="#E6E6E6"/>
<path id="path844" d="M10.0078 45.9685C10.0096 45.968 10.0101 45.9669 10.0119 45.9664C10.1172 45.9281 11.6204 45.3646 12.4769 44.6068C13.3646 43.8209 15.0937 43.5461 15.0937 43.5461C15.0937 43.5461 14.2847 45.0747 13.4298 45.4855C12.4015 45.9817 10.08 45.9699 10.0078 45.9685Z" fill="#929292"/>
<path id="path846" d="M10.7928 45.3836C11.3342 44.8325 11.7424 44.3223 12.4258 43.7649C12.8244 43.4393 14.0746 43.2224 14.6855 43.3836C14.9477 43.412 15.0974 43.5485 15.0974 43.5485C15.0974 43.5485 13.3683 43.8233 12.4806 44.6091C11.6241 45.367 10.1209 45.9305 10.0156 45.9688C10.0688 45.9356 10.5098 45.6708 10.7928 45.3836Z" fill="#E6E6E6"/>
<path id="path848" d="M19.2759 18.2986C19.2743 18.2991 19.2739 18.3003 19.272 18.3009C19.1725 18.3415 17.7477 18.938 16.9517 19.6976C16.1266 20.4853 14.4746 20.8125 14.4746 20.8125C14.4746 20.8125 15.1977 19.3139 16.0044 18.8879C16.9749 18.3735 19.2064 18.3 19.2759 18.2986Z" fill="#929292"/>
<path id="path850" d="M18.5462 18.8919C18.0454 19.4414 17.6714 19.9465 17.0345 20.5071C16.663 20.8346 15.4694 21.0888 14.8766 20.9565C14.6237 20.9386 14.4746 20.8128 14.4746 20.8128C14.4746 20.8128 16.1266 20.4856 16.9517 19.6979C17.7477 18.9383 19.1725 18.3418 19.272 18.3012C19.222 18.3348 18.8076 18.6057 18.5462 18.8919Z" fill="#E6E6E6"/>
<path id="path852" d="M15.8088 17.4749C15.8078 17.4762 15.8081 17.4776 15.8069 17.479C15.7489 17.5703 14.9282 18.8898 14.7137 19.9746C14.4918 21.0994 13.3314 22.332 13.3314 22.332C13.3314 22.332 13.0633 20.6869 13.4777 19.868C13.9746 18.8808 15.7528 17.5166 15.8088 17.4749Z" fill="#929292"/>
<path id="path854" d="M15.5557 18.3885C15.4616 19.1296 15.4458 19.7601 15.247 20.5897C15.1316 21.074 14.3033 21.979 13.744 22.2177C13.5275 22.3509 13.334 22.3354 13.334 22.3354C13.334 22.3354 14.4944 21.1028 14.7163 19.9779C14.9308 18.8932 15.7515 17.5737 15.8095 17.4824C15.7882 17.5391 15.6052 18.0022 15.5557 18.3885Z" fill="#E6E6E6"/>
<path id="path856" d="M13.0403 18.7767C13.0398 18.7781 13.0403 18.779 13.0396 18.7804C13.0153 18.8643 12.6761 20.073 12.7532 20.9613C12.8334 21.8824 12.212 23.1016 12.212 23.1016C12.212 23.1016 11.6359 21.89 11.7731 21.1617C11.9363 20.2844 13.0064 18.8219 13.0403 18.7767Z" fill="#929292"/>
<path id="path858" d="M13.0452 19.5396C13.1385 20.1344 13.2677 20.6259 13.3 21.3133C13.319 21.7142 12.881 22.604 12.5017 22.9166C12.3641 23.0694 12.2109 23.1016 12.2109 23.1016C12.2109 23.1016 12.8324 21.8824 12.7521 20.9613C12.6751 20.073 13.0143 18.8643 13.0386 18.7804C13.0347 18.8293 12.9971 19.2293 13.0452 19.5396Z" fill="#E6E6E6"/>
<path id="path860" d="M18.6797 21.7021C18.6783 21.7023 18.6776 21.7033 18.676 21.7037C18.5855 21.7271 17.2873 22.0784 16.514 22.6427C15.7123 23.2281 14.248 23.3203 14.248 23.3203C14.248 23.3203 15.0417 22.109 15.787 21.834C16.6835 21.5014 18.6196 21.6952 18.6797 21.7021Z" fill="#929292"/>
<path id="path862" d="M17.9823 22.1339C17.4877 22.5508 17.1075 22.944 16.494 23.3549C16.1363 23.595 15.0761 23.677 14.579 23.4942C14.3625 23.4497 14.248 23.3238 14.248 23.3238C14.248 23.3238 15.7123 23.2316 16.514 22.6462C17.2873 22.082 18.5855 21.7307 18.676 21.7072C18.629 21.7304 18.2406 21.9167 17.9823 22.1339Z" fill="#E6E6E6"/>
<path id="path864" d="M14.7092 20.8952C14.7081 20.8966 14.7081 20.8977 14.7069 20.8989C14.6446 20.9809 13.7603 22.1681 13.4707 23.181C13.1705 24.2317 11.9704 25.3086 11.9704 25.3086C11.9704 25.3086 11.8461 23.724 12.3048 22.9797C12.8552 22.0824 14.6528 20.9302 14.7092 20.8952Z" fill="#929292"/>
<path id="path866" d="M14.3961 21.7392C14.248 22.4356 14.1829 23.0332 13.9283 23.8054C13.7802 24.2558 12.9216 25.0486 12.3715 25.2298C12.1552 25.339 11.9727 25.3086 11.9727 25.3086C11.9727 25.3086 13.1727 24.2317 13.4729 23.1811C13.7625 22.1681 14.6468 20.981 14.7092 20.8989C14.6844 20.9511 14.4739 21.3763 14.3961 21.7392Z" fill="#E6E6E6"/>
<path id="path868" d="M15.4877 24.3597C15.4861 24.3602 15.4857 24.3613 15.4841 24.362C15.3905 24.4044 14.0552 25.0259 13.3248 25.7791C12.5675 26.5603 11.0059 26.9336 11.0059 26.9336C11.0059 26.9336 11.6397 25.479 12.3928 25.0431C13.2984 24.5168 15.4215 24.3634 15.4877 24.3597Z" fill="#929292"/>
<path id="path870" d="M14.8142 24.9528C14.3572 25.4948 14.0194 25.9901 13.433 26.5479C13.0913 26.8737 11.9635 27.1603 11.3939 27.0565C11.1522 27.0489 11.0059 26.9346 11.0059 26.9346C11.0059 26.9346 12.5675 26.5613 13.3248 25.7801C14.0552 25.027 15.3905 24.4055 15.4841 24.363C15.4377 24.3969 15.0527 24.6703 14.8142 24.9528Z" fill="#E6E6E6"/>
<path id="path872" d="M9.51103 20.9936C9.5108 20.9959 9.51195 20.9969 9.51172 20.9992C9.50851 21.1285 9.48329 22.9863 9.93092 24.2252C10.3953 25.5097 9.97082 27.4922 9.97082 27.4922C9.97082 27.4922 8.68777 25.9852 8.60682 24.8917C8.50683 23.5752 9.47962 21.0713 9.51103 20.9936Z" fill="#929292"/>
<path id="path874" d="M9.79895 22.0809C10.1583 22.8941 10.5293 23.5462 10.8364 24.5155C11.016 25.0807 10.7284 26.5214 10.3055 27.1152C10.1668 27.3867 9.96039 27.4922 9.96039 27.4922C9.96039 27.4922 10.3849 25.5097 9.92049 24.2252C9.47285 22.9863 9.49808 21.1285 9.50129 20.9992C9.51413 21.0703 9.61228 21.6566 9.79895 22.0809Z" fill="#E6E6E6"/>
<path id="path876" d="M12.1614 23.3881C12.1602 23.39 12.1607 23.3914 12.1595 23.3932C12.0978 23.5068 11.2289 25.1442 11.0622 26.4524C10.8895 27.8087 9.6097 29.3711 9.6097 29.3711C9.6097 29.3711 9.15702 27.4368 9.5831 26.4281C10.094 25.2128 12.0981 23.4424 12.1614 23.3881Z" fill="#929292"/>
<path id="path878" d="M11.9308 24.4921C11.8792 25.3813 11.9115 26.1328 11.7428 27.136C11.6448 27.7214 10.7333 28.8668 10.0875 29.1971C9.84076 29.3736 9.60938 29.3711 9.60938 29.3711C9.60938 29.3711 10.8892 27.8087 11.0619 26.4524C11.2286 25.1442 12.0975 23.5068 12.1592 23.3932C12.1381 23.4625 11.9581 24.0287 11.9308 24.4921Z" fill="#E6E6E6"/>
<path id="path880" d="M13.5558 27.4926C13.5544 27.4935 13.5542 27.4949 13.5528 27.496C13.467 27.5683 12.2486 28.6193 11.7031 29.6273C11.1378 30.6729 9.60938 31.5312 9.60938 31.5312C9.60938 31.5312 9.84833 29.8164 10.5106 29.1342C11.3061 28.3115 13.4877 27.5162 13.5558 27.4926Z" fill="#929292"/>
<path id="path882" d="M13.0228 28.3163C12.7022 29.0213 12.4931 29.6416 12.0416 30.4017C11.7785 30.8455 10.6796 31.4832 10.052 31.5444C9.79627 31.6088 9.60938 31.5328 9.60938 31.5328C9.60938 31.5328 11.1378 30.6745 11.7031 29.6289C12.2486 28.6208 13.467 27.5699 13.5528 27.4976C13.514 27.547 13.1905 27.9488 13.0228 28.3163Z" fill="#E6E6E6"/>
<path id="path884" d="M8.1514 26.9355C8.15163 26.9371 8.15254 26.9378 8.153 26.9392C8.17524 27.0326 8.50845 28.369 9.06364 29.1703C9.63947 30.0011 9.7101 31.5039 9.7101 31.5039C9.7101 31.5039 8.5057 30.6717 8.24083 29.9038C7.92001 28.9794 8.1436 26.9971 8.1514 26.9355Z" fill="#929292"/>
<path id="path886" d="M8.56649 27.6571C8.97767 28.1704 9.36683 28.5662 9.7702 29.2014C10.0059 29.5719 10.0725 30.6599 9.88166 31.167C9.8335 31.3883 9.70554 31.5039 9.70554 31.5039C9.70554 31.5039 9.6349 30.0011 9.05907 29.1703C8.50389 28.369 8.17068 27.0326 8.14844 26.9392C8.17114 26.9878 8.3523 27.389 8.56649 27.6571Z" fill="#E6E6E6"/>
<path id="path888" d="M12.1479 31.016C12.1465 31.0169 12.1465 31.0181 12.1451 31.019C12.0738 31.0825 11.0593 32.0034 10.6165 32.8733C10.1576 33.7755 8.875 34.5391 8.875 34.5391C8.875 34.5391 9.04195 33.0745 9.59094 32.4796C10.2505 31.7619 12.0901 31.0378 12.1479 31.016Z" fill="#929292"/>
<path id="path890" d="M11.7117 31.7276C11.454 32.3346 11.2888 32.8671 10.9208 33.5238C10.7064 33.9073 9.78472 34.4739 9.25177 34.5397C9.03575 34.6 8.875 34.5393 8.875 34.5393C8.875 34.5393 10.1576 33.7757 10.6165 32.8736C11.0593 32.0036 12.0738 31.0827 12.1451 31.0192C12.1133 31.0623 11.8466 31.4113 11.7117 31.7276Z" fill="#E6E6E6"/>
<path id="path892" d="M9.01201 30.6165C9.01132 30.6185 9.01224 30.6199 9.01155 30.622C8.9822 30.7509 8.57882 32.6036 8.77443 33.9356C8.97784 35.3168 8.14976 37.2109 8.14976 37.2109C8.14976 37.2109 7.1733 35.4375 7.3148 34.327C7.48266 32.9897 8.96477 30.6876 9.01201 30.6165Z" fill="#929292"/>
<path id="path894" d="M9.08797 31.7659C9.28175 32.6539 9.52025 33.3829 9.63009 34.416C9.69499 35.0187 9.11412 36.4001 8.57039 36.9058C8.37662 37.1484 8.14844 37.2109 8.14844 37.2109C8.14844 37.2109 8.97652 35.3168 8.77311 33.9356C8.5775 32.6036 8.98088 30.7509 9.01023 30.622C9.00863 30.6959 8.98753 31.3026 9.08797 31.7659Z" fill="#E6E6E6"/>
<path id="path602" d="M24.6931 36.5781H18.3711V35.2338C20.5366 33.6501 22.1944 32.2252 22.1944 31.0257C22.1944 29.5653 20.2967 29.5429 18.755 30.5996H18.5821V28.7904C20.2192 28.0686 24.3197 27.6677 24.3197 30.7416C24.3197 32.4718 22.7204 33.827 21.075 35.0204H24.6931V36.5781Z" fill="#E6E3E3"/>
</g>
</svg>
