<svg width="35" height="48" viewBox="0 0 35 48" fill="none" xmlns="http://www.w3.org/2000/svg">
<g id="Group 27">
<path id="path16" d="M25.0482 18.1458C30.6284 20.7273 34.4496 25.9864 34.4496 32.0546C34.4496 40.6752 26.7373 47.6641 17.2243 47.6641C7.71123 47.6641 0 40.6752 0 32.0546C0 26.1289 3.64362 20.9744 9.01243 18.3303C11.4528 17.1292 14.2502 16.4461 17.2243 16.4461C20.0411 16.4461 22.7008 17.0589 25.0482 18.1458Z" fill="#FFCE68"/>
<path id="path18" d="M17.2262 47.0273C12.8136 47.0273 8.66535 45.4702 5.54532 42.6426C2.42527 39.8151 0.707031 36.0556 0.707031 32.057C0.707031 26.5636 4.01926 21.5198 9.35105 18.894C11.7525 17.7121 14.4757 17.0873 17.2262 17.0873C19.8694 17.0873 22.3937 17.6356 24.7293 18.717C27.4 19.9526 29.6534 21.8256 31.2455 24.1337C32.8817 26.5055 33.7464 29.2453 33.7464 32.057C33.7464 36.0556 32.028 39.8151 28.9077 42.6426C25.7873 45.4702 21.6389 47.0273 17.2262 47.0273Z" fill="#FDBC62"/>
<path id="path20" d="M17.2196 45.1992C13.3451 45.1992 9.70257 43.8318 6.96313 41.3491C4.2236 38.8664 2.71484 35.5653 2.71484 32.0544C2.71484 27.2308 5.62304 22.8024 10.3047 20.4968C12.4134 19.4587 14.8045 18.9102 17.2196 18.9102C19.5403 18.9102 21.7569 19.3916 23.8076 20.3412C26.1528 21.4261 28.1312 23.0707 29.5292 25.0974C30.9658 27.1799 31.7252 29.5855 31.7252 32.0544C31.7252 35.5653 30.2163 38.8663 27.4764 41.3491C24.7366 43.8318 21.094 45.1992 17.2196 45.1992Z" stroke="#C49047" stroke-width="2.61099" stroke-miterlimit="10"/>
<path id="path22" d="M17.224 40.9688C14.5968 40.9688 12.1269 40.0417 10.2693 38.3583C8.41176 36.6746 7.38867 34.4364 7.38867 32.0555C7.38867 28.785 9.3607 25.7819 12.5352 24.2186C13.9651 23.5147 15.5864 23.1429 17.224 23.1429C18.7977 23.1429 20.3007 23.4692 21.6912 24.1131C23.2815 24.8489 24.6231 25.9639 25.5709 27.3381C26.545 28.7503 27.0602 30.3816 27.0602 32.0555C27.0602 34.4364 26.0369 36.6746 24.1792 38.3583C22.3213 40.0417 19.8514 40.9688 17.224 40.9688V40.9688Z" stroke="#FDBC62" stroke-width="1.865" stroke-miterlimit="10"/>
<path id="path24" d="M17.2301 42.9102C14.031 42.9102 11.0235 41.7813 8.76153 39.7312C6.49956 37.6811 5.25391 34.9558 5.25391 32.0567C5.25391 28.074 7.65517 24.4175 11.5207 22.5137C13.2618 21.6568 15.2361 21.2039 17.2301 21.2039C19.1463 21.2039 20.9765 21.6015 22.6696 22.3853C24.606 23.2813 26.2396 24.6393 27.3939 26.3125C28.58 28.032 29.207 30.0183 29.207 32.0567C29.207 34.9556 27.9612 37.6811 25.699 39.7312C23.4368 41.7813 20.4293 42.9102 17.2301 42.9102V42.9102Z" stroke="#C49047" stroke-width="2.61099" stroke-miterlimit="10"/>
<path id="path26" d="M22.4828 15.7707V15.1937C22.4828 15.0268 22.3334 14.8914 22.1492 14.8914H11.6803C11.4959 14.8914 11.3465 15.0268 11.3465 15.1937V15.7707C11.3465 15.9385 11.4959 16.074 11.6803 16.074H22.1492C22.3334 16.074 22.4828 15.9385 22.4828 15.7707ZM24.2093 15.339C24.6478 16.2251 24.8912 17.1794 24.9301 18.1475C22.5829 17.0606 19.9232 16.4478 17.1064 16.4478C14.1323 16.4478 11.3349 17.1309 8.89453 18.332C8.90713 17.3006 9.15453 16.2816 9.6203 15.339L9.83768 14.9C10.0803 14.4086 10.5848 14.0648 11.1737 13.9901L11.8151 13.9084C15.1977 13.4792 18.6317 13.4792 22.0153 13.9084L22.6557 13.9901C23.2447 14.0648 23.7493 14.4086 23.9917 14.9L24.2093 15.339Z" fill="#FDBC62"/>
<path id="path28" d="M27.8494 -0.000309944L21.8771 15.1133H18.5586L24.5136 0.0120239V-0.000309944H27.8494Z" fill="#FF545F"/>
<path id="path30" d="M24.513 -0.000309944V0.0120239L18.558 15.1133H15.2812L21.2361 0.0120239V-0.000309944H24.513Z" fill="#62DADC"/>
<path id="path32" d="M21.242 -0.000309944V0.0120239L15.2871 15.1133H11.9395L17.9118 -0.000309944H21.242Z" fill="#AC748C"/>
<path id="path34" d="M33.3002 32.0559C33.3002 36.9784 28.8967 40.9688 23.4647 40.9688C18.0325 40.9688 13.6289 36.9784 13.6289 32.0559C13.6289 27.1333 18.0325 23.1429 23.4647 23.1429C28.8967 23.1429 33.3002 27.1333 33.3002 32.0559Z" fill="#FFDEAE"/>
<path id="path36" d="M5.96484 -0.000309944L11.9373 15.1133H15.2558L9.30089 0.0120239V-0.000309944H5.96484Z" fill="#AC748C"/>
<path id="path38" d="M9.30078 -0.000309944V0.0120239L15.2557 15.1133H18.5325L12.5776 0.0120239V-0.000309944H9.30078Z" fill="#62DADC"/>
<path id="path40" d="M12.5781 -0.000309944V0.0120239L18.533 15.1133H21.8807L15.9083 -0.000309944H12.5781Z" fill="#FF545F"/>
<path id="path42" d="M32.6617 32.0582C32.6617 36.6599 28.5448 40.3906 23.4667 40.3906C18.3883 40.3906 14.2715 36.6599 14.2715 32.0582C14.2715 27.4561 18.3883 23.7254 23.4667 23.7254C28.5448 23.7254 32.6617 27.4561 32.6617 32.0582Z" fill="#FFCE68"/>
<path id="path44" d="M30.4704 32.0575C30.4704 35.5617 27.3357 38.4023 23.4688 38.4023C19.6016 38.4023 16.4668 35.5617 16.4668 32.0575C16.4668 28.5531 19.6016 25.7124 23.4688 25.7124C27.3357 25.7124 30.4704 28.5531 30.4704 32.0575Z" fill="#C49047"/>
<path id="path46" d="M26.4477 36.1055H20.498V34.6951H22.3774V30.4263H20.498V29.1083C20.7854 29.1083 21.0606 29.0928 21.3239 29.0622C21.5873 29.0313 21.8068 28.9781 21.9825 28.9021C22.1899 28.8119 22.3454 28.6942 22.4493 28.5495C22.5531 28.4049 22.6128 28.224 22.629 28.007H24.6102V34.6951H26.4477V36.1055Z" fill="#FFCE68"/>
<path id="path48" d="M15.2052 29.2822C15.2051 29.2829 15.2055 29.2834 15.2054 29.2841C15.2048 29.3227 15.2024 29.8767 15.3553 30.2447C15.514 30.6263 15.3791 31.2188 15.3791 31.2188C15.3791 31.2188 14.9477 30.7732 14.9172 30.4473C14.8797 30.0551 15.195 29.3055 15.2052 29.2822Z" fill="#C49047"/>
<path id="path50" d="M15.3077 29.6056C15.4298 29.8471 15.5552 30.0405 15.6605 30.3285C15.7221 30.4966 15.6312 30.9271 15.4924 31.1052C15.4473 31.1868 15.3788 31.2188 15.3788 31.2188C15.3788 31.2188 15.5137 30.6263 15.355 30.2447C15.2021 29.8767 15.2046 29.3227 15.2052 29.2841C15.2097 29.3051 15.2443 29.4796 15.3077 29.6056Z" fill="#FFDEAE"/>
<path id="path52" d="M16.6377 29.8167C16.6372 29.8172 16.6372 29.8176 16.6366 29.8181C16.608 29.8466 16.2025 30.2614 16.0492 30.6293C15.8902 31.0107 15.3574 31.375 15.3574 31.375C15.3574 31.375 15.3579 30.7823 15.5725 30.5192C15.8301 30.2022 16.613 29.8279 16.6377 29.8167Z" fill="#C49047"/>
<path id="path54" d="M16.4792 30.1206C16.395 30.3751 16.3484 30.5952 16.2176 30.8748C16.1414 31.0378 15.7595 31.3066 15.5254 31.3576C15.4321 31.3916 15.3574 31.3747 15.3574 31.3747C15.3574 31.3747 15.8902 31.0104 16.0492 30.629C16.2025 30.2611 16.608 29.8463 16.6366 29.8178C16.6246 29.8363 16.5233 29.9879 16.4792 30.1206Z" fill="#FFDEAE"/>
<path id="path56" d="M14.829 30.6388C14.8291 30.6393 14.8294 30.6397 14.8295 30.6402C14.8351 30.6786 14.9222 31.2269 15.1329 31.5709C15.3515 31.9274 15.3138 32.5312 15.3138 32.5312C15.3138 32.5312 14.815 32.1478 14.7323 31.8294C14.6318 31.4464 14.8227 30.663 14.829 30.6388Z" fill="#C49047"/>
<path id="path58" d="M14.9757 30.9449C15.1354 31.1675 15.2908 31.3423 15.4414 31.6131C15.5295 31.7714 15.509 32.2092 15.4006 32.4038C15.369 32.4904 15.3066 32.5312 15.3066 32.5312C15.3066 32.5312 15.3442 31.9274 15.1257 31.5709C14.915 31.2269 14.8279 30.6786 14.8223 30.6402C14.8302 30.6608 14.8925 30.8288 14.9757 30.9449Z" fill="#FFDEAE"/>
<path id="path60" d="M16.3342 30.9762C16.3338 30.9766 16.3339 30.9771 16.3334 30.9776C16.3098 31.0098 15.9757 31.4736 15.8834 31.858C15.7879 32.2565 15.3196 32.6875 15.3196 32.6875C15.3196 32.6875 15.2243 32.1012 15.3941 31.8125C15.5978 31.4647 16.3117 30.9906 16.3342 30.9762Z" fill="#C49047"/>
<path id="path62" d="M16.2312 31.2979C16.1891 31.5605 16.1786 31.7848 16.0943 32.0785C16.0453 32.2498 15.7108 32.5666 15.4874 32.6479C15.4008 32.694 15.3242 32.6871 15.3242 32.6871C15.3242 32.6871 15.7924 32.2562 15.8879 31.8576C15.9803 31.4733 16.3144 31.0094 16.3379 30.9772C16.3291 30.9973 16.2535 31.1608 16.2312 31.2979Z" fill="#FFDEAE"/>
<path id="path64" d="M14.666 32.1124C14.6662 32.1128 14.6666 32.1131 14.6668 32.1138C14.6822 32.1498 14.907 32.6649 15.1999 32.9554C15.5036 33.2562 15.6214 33.8516 15.6214 33.8516C15.6214 33.8516 15.0382 33.5832 14.8762 33.2909C14.6806 32.9394 14.666 32.1373 14.666 32.1124Z" fill="#C49047"/>
<path id="path66" d="M14.8931 32.3778C15.1055 32.5609 15.3013 32.6982 15.5171 32.9302C15.6432 33.0655 15.7353 33.4957 15.6795 33.7079C15.6709 33.7988 15.6206 33.8516 15.6206 33.8516C15.6206 33.8516 15.5028 33.2562 15.1991 32.9554C14.9062 32.6649 14.6814 32.1498 14.666 32.1138C14.679 32.1318 14.7825 32.2823 14.8931 32.3778Z" fill="#FFDEAE"/>
<path id="path68" d="M16.2213 32.1259C16.221 32.1266 16.2212 32.127 16.2209 32.1275C16.2062 32.1638 15.9997 32.6852 16.0081 33.0785C16.017 33.4861 15.6718 34.0039 15.6718 34.0039C15.6718 34.0039 15.4292 33.4533 15.5206 33.1369C15.6297 32.7558 16.2031 32.1448 16.2213 32.1259Z" fill="#C49047"/>
<path id="path70" d="M16.1991 32.4618C16.2253 32.7263 16.2722 32.9465 16.2653 33.25C16.2614 33.427 16.0171 33.8052 15.8206 33.9313C15.7481 33.9943 15.6719 34.0039 15.6719 34.0039C15.6719 34.0039 16.0171 33.4861 16.0082 33.0785C15.9998 32.6852 16.2063 32.1638 16.221 32.1275C16.2175 32.1489 16.1857 32.3239 16.1991 32.4618Z" fill="#FFDEAE"/>
<path id="path72" d="M14.8496 33.4952C14.8499 33.4959 14.8504 33.4959 14.8507 33.4966C14.8702 33.5309 15.1562 34.0205 15.4825 34.28C15.8208 34.5488 16.01 35.1289 16.01 35.1289C16.01 35.1289 15.3978 34.9202 15.2015 34.6459C14.9644 34.3158 14.8527 33.5201 14.8496 33.4952Z" fill="#C49047"/>
<path id="path74" d="M15.1074 33.7367C15.3406 33.8974 15.5518 34.0144 15.7944 34.2233C15.9362 34.3453 16.0798 34.7639 16.0501 34.9805C16.0526 35.0714 16.0089 35.1289 16.0089 35.1289C16.0089 35.1289 15.8197 34.5488 15.4814 34.28C15.1551 34.0205 14.8691 33.5309 14.8496 33.4966C14.8646 33.5133 14.9858 33.6526 15.1074 33.7367Z" fill="#FFDEAE"/>
<path id="path76" d="M16.3965 33.352C16.3962 33.3527 16.3965 33.3531 16.3963 33.3538C16.3859 33.3913 16.244 33.93 16.3 34.3201C16.3583 34.7244 16.0778 35.2734 16.0778 35.2734C16.0778 35.2734 15.77 34.7504 15.8224 34.4268C15.8847 34.0371 16.3806 33.3725 16.3965 33.352Z" fill="#C49047"/>
<path id="path78" d="M16.4173 33.6882C16.4752 33.9485 16.5487 34.1625 16.5786 34.4649C16.5961 34.6412 16.3992 35.0416 16.2192 35.1864C16.1547 35.2563 16.0801 35.2734 16.0801 35.2734C16.0801 35.2734 16.3606 34.7244 16.3023 34.3201C16.2462 33.93 16.3882 33.3913 16.3985 33.3538C16.3976 33.3753 16.3872 33.5523 16.4173 33.6882Z" fill="#FFDEAE"/>
<path id="path80" d="M15.25 34.8514C15.2504 34.8521 15.251 34.8521 15.2514 34.8526C15.2775 34.8832 15.6587 35.3162 16.0325 35.5162C16.4199 35.7237 16.7246 36.2617 16.7246 36.2617C16.7246 36.2617 16.0802 36.1597 15.8311 35.923C15.5307 35.6387 15.2582 34.8754 15.25 34.8514Z" fill="#C49047"/>
<path id="path82" d="M15.568 35.0451C15.83 35.1641 16.0615 35.2434 16.3427 35.4083C16.507 35.5042 16.7337 35.8913 16.7489 36.109C16.7699 36.198 16.7388 36.2617 16.7388 36.2617C16.7388 36.2617 16.4342 35.7237 16.0467 35.5162C15.673 35.3162 15.2918 34.8832 15.2656 34.8526C15.2837 34.8665 15.4313 34.983 15.568 35.0451Z" fill="#FFDEAE"/>
<path id="path84" d="M16.7511 34.4493C16.751 34.45 16.7514 34.4502 16.7513 34.4509C16.7489 34.4895 16.7195 35.0429 16.8544 35.4168C16.9944 35.8043 16.8311 36.3906 16.8311 36.3906C16.8311 36.3906 16.4216 35.9283 16.4069 35.6018C16.3885 35.2083 16.7398 34.4722 16.7511 34.4493Z" fill="#C49047"/>
<path id="path86" d="M16.8412 34.7764C16.9515 35.0224 17.0674 35.2206 17.1587 35.5125C17.2121 35.6828 17.1003 36.1093 16.953 36.2819C16.9039 36.3614 16.8341 36.3906 16.8341 36.3906C16.8341 36.3906 16.9974 35.8043 16.8574 35.4168C16.7226 35.0429 16.7519 34.4895 16.7543 34.4509C16.7578 34.4722 16.7839 34.648 16.8412 34.7764Z" fill="#FFDEAE"/>
<path id="path88" d="M15.8809 36.0916C15.8814 36.092 15.8818 36.092 15.8823 36.0925C15.9141 36.1183 16.3731 36.4844 16.7796 36.6219C17.2013 36.7647 17.6051 37.2461 17.6051 37.2461C17.6051 37.2461 16.951 37.248 16.66 37.0543C16.3092 36.822 15.8935 36.1139 15.8809 36.0916Z" fill="#C49047"/>
<path id="path90" d="M16.2158 36.2341C16.4967 36.3095 16.74 36.351 17.0488 36.4684C17.2289 36.5369 17.527 36.882 17.584 37.094C17.6219 37.1785 17.6036 37.2461 17.6036 37.2461C17.6036 37.2461 17.1998 36.7647 16.7781 36.6219C16.3716 36.4844 15.9126 36.1183 15.8809 36.0926C15.9014 36.1034 16.0692 36.1946 16.2158 36.2341Z" fill="#FFDEAE"/>
<path id="path92" d="M17.2738 35.4607C17.2738 35.4614 17.2742 35.4617 17.2742 35.4623C17.2793 35.5007 17.3574 36.0502 17.5625 36.3966C17.7752 36.7562 17.7278 37.3594 17.7278 37.3594C17.7278 37.3594 17.2352 36.9692 17.1576 36.6499C17.0634 36.2656 17.2671 35.485 17.2738 35.4607Z" fill="#C49047"/>
<path id="path94" d="M17.4258 35.7689C17.5819 35.9936 17.7344 36.1703 17.8807 36.4432C17.9661 36.6027 17.9385 37.0402 17.827 37.2335C17.7939 37.3196 17.7309 37.3594 17.7309 37.3594C17.7309 37.3594 17.7784 36.7562 17.5656 36.3966C17.3605 36.0502 17.2824 35.5007 17.2773 35.4623C17.2849 35.4827 17.3445 35.6516 17.4258 35.7689Z" fill="#FFDEAE"/>
<path id="path96" d="M16.9219 37.3335C16.9225 37.3338 16.923 37.3338 16.9235 37.334C16.9613 37.3521 17.5049 37.6056 17.9362 37.6495C18.3834 37.6947 18.9047 38.0724 18.9047 38.0724C18.9047 38.0724 18.2707 38.2184 17.9365 38.095C17.5338 37.9472 16.9401 37.3523 16.9219 37.3335Z" fill="#C49047"/>
<path id="path98" d="M17.2848 37.3951C17.5776 37.4064 17.8247 37.3929 18.1557 37.4386C18.3489 37.4652 18.7308 37.7341 18.843 37.9271C18.9025 38.0004 18.9031 38.0703 18.9031 38.0703C18.9031 38.0703 18.3818 37.6926 17.9345 37.6473C17.5032 37.6034 16.9596 37.35 16.9219 37.3319C16.9448 37.3378 17.132 37.3892 17.2848 37.3951Z" fill="#FFDEAE"/>
<path id="path100" d="M18.0996 36.415C18.0999 36.4155 18.1004 36.4158 18.1006 36.4164C18.1158 36.4525 18.3393 36.9682 18.6314 37.2589C18.9344 37.5606 19.0506 38.1562 19.0506 38.1562C19.0506 38.1562 18.4681 37.8865 18.307 37.594C18.1121 37.2421 18.0997 36.4399 18.0996 36.415Z" fill="#C49047"/>
<path id="path102" d="M18.326 36.6811C18.5378 36.8645 18.7333 37.0022 18.9485 37.2347C19.0743 37.3702 19.1652 37.8006 19.1089 38.0129C19.1001 38.1035 19.0497 38.1562 19.0497 38.1562C19.0497 38.1562 18.9334 37.5606 18.6305 37.2589C18.3384 36.9682 18.1148 36.4525 18.0996 36.4164C18.1124 36.4347 18.2156 36.5852 18.326 36.6811Z" fill="#FFDEAE"/>
<path id="path104" d="M18.043 38.2179C18.0435 38.2183 18.0441 38.2181 18.0446 38.2185C18.083 38.2352 18.6365 38.4707 19.0693 38.5002C19.5181 38.5305 20.0541 38.8909 20.0541 38.8909C20.0541 38.8909 19.4263 39.0578 19.0874 38.9455C18.679 38.811 18.0619 38.2361 18.043 38.2179Z" fill="#C49047"/>
<path id="path106" d="M18.4159 38.2733C18.709 38.2747 18.9553 38.2532 19.288 38.288C19.4821 38.3082 19.8745 38.5643 19.9945 38.7534C20.057 38.8249 20.0603 38.8945 20.0603 38.8945C20.0603 38.8945 19.5242 38.5341 19.0755 38.5038C18.6427 38.4743 18.0892 38.2388 18.0508 38.2221C18.0739 38.2272 18.2631 38.2724 18.4159 38.2733Z" fill="#FFDEAE"/>
<path id="path108" d="M19.1895 37.2641C19.1897 37.2646 19.1901 37.2647 19.1904 37.2655C19.207 37.3009 19.4511 37.809 19.7546 38.09C20.0696 38.3814 20.2097 38.9727 20.2097 38.9727C20.2097 38.9727 19.6167 38.7226 19.4438 38.4355C19.2351 38.0902 19.1904 37.289 19.1895 37.2641Z" fill="#C49047"/>
<path id="path110" d="M19.4262 37.5224C19.6455 37.6987 19.8461 37.83 20.0707 38.0553C20.2017 38.1866 20.3098 38.6137 20.2622 38.8274C20.2569 38.9185 20.2088 38.9727 20.2088 38.9727C20.2088 38.9727 20.0686 38.3814 19.7536 38.09C19.4502 37.809 19.206 37.3009 19.1895 37.2655C19.2029 37.283 19.3121 37.4303 19.4262 37.5224Z" fill="#FFDEAE"/>
<path id="path112" d="M19.4961 39.0596C19.4968 39.0596 19.4971 39.0594 19.4979 39.0596C19.5399 39.0663 20.1428 39.1581 20.5685 39.0804C21.0095 38.9998 21.6331 39.2166 21.6331 39.2166C21.6331 39.2166 21.0783 39.5316 20.7184 39.5064C20.2852 39.4767 19.5198 39.0725 19.4961 39.0596Z" fill="#C49047"/>
<path id="path114" d="M19.863 39.0217C20.1456 38.9514 20.3764 38.8701 20.7071 38.8222C20.9002 38.794 21.3543 38.9454 21.5259 39.0987C21.6073 39.1523 21.6313 39.2188 21.6313 39.2188C21.6313 39.2188 21.0078 39.002 20.5667 39.0826C20.141 39.1603 19.5382 39.0685 19.4961 39.0618C19.52 39.0611 19.7156 39.0584 19.863 39.0217Z" fill="#FFDEAE"/>
<path id="path116" d="M21.1934 39.5986C21.1941 39.5986 21.1944 39.5985 21.1951 39.5985C21.2377 39.5986 21.8491 39.5973 22.2544 39.4566C22.6745 39.3104 23.3291 39.4288 23.3291 39.4288C23.3291 39.4288 22.8401 39.8227 22.4807 39.8522C22.048 39.8887 21.2191 39.6076 21.1934 39.5986Z" fill="#C49047"/>
<path id="path118" d="M21.5477 39.5062C21.8134 39.3937 22.0258 39.2785 22.3431 39.1808C22.5281 39.1238 23.0037 39.2037 23.2013 39.3288C23.2915 39.3694 23.3273 39.4313 23.3273 39.4313C23.3273 39.4313 22.6728 39.3125 22.2526 39.4593C21.8474 39.6004 21.236 39.6017 21.1934 39.6016C21.2168 39.5972 21.4091 39.5649 21.5477 39.5062Z" fill="#FFDEAE"/>
<path id="path120" d="M20.3105 37.8617C20.3111 37.8624 20.3116 37.8624 20.3118 37.8629C20.3385 37.893 20.7246 38.3226 21.1007 38.519C21.4906 38.7227 21.8016 39.2578 21.8016 39.2578C21.8016 39.2578 21.1561 39.1619 20.9041 38.9275C20.6004 38.6463 20.3189 37.8857 20.3105 37.8617Z" fill="#C49047"/>
<path id="path122" d="M20.6153 38.0524C20.8786 38.1689 21.111 38.246 21.3943 38.408C21.5596 38.5025 21.7907 38.8874 21.8084 39.1051C21.8305 39.1938 21.8003 39.2578 21.8003 39.2578C21.8003 39.2578 21.4893 38.7227 21.0994 38.519C20.7234 38.3226 20.3373 37.893 20.3105 37.8629C20.3289 37.8768 20.4779 37.9917 20.6153 38.0524Z" fill="#FFDEAE"/>
<path id="path124" d="M21.7559 38.4282C21.7564 38.4286 21.7569 38.4286 21.7574 38.429C21.7853 38.4512 22.1906 38.7682 22.5477 38.8856C22.9182 39.0073 23.2764 39.4257 23.2764 39.4257C23.2764 39.4257 22.7037 39.4321 22.4472 39.2652C22.1379 39.0644 21.7672 38.4475 21.7559 38.4282Z" fill="#C49047"/>
<path id="path126" d="M22.0502 38.5503C22.297 38.6143 22.5104 38.6486 22.7816 38.7493C22.9401 38.8077 23.2043 39.1076 23.2562 39.2929C23.2902 39.3664 23.2748 39.4258 23.2748 39.4258C23.2748 39.4258 22.9167 39.0074 22.5462 38.8856C22.1891 38.7682 21.7838 38.4512 21.7559 38.4291C21.774 38.4384 21.9217 38.517 22.0502 38.5503Z" fill="#FFDEAE"/>
<path id="path128" d="M22.3867 39.9492C22.387 39.9489 22.3872 39.9488 22.3875 39.9488C22.4074 39.9399 22.6897 39.8124 22.8416 39.6633C22.9989 39.5084 23.3316 39.4273 23.3316 39.4273C23.3316 39.4273 23.2051 39.7108 23.0463 39.7992C22.8555 39.9059 22.4008 39.9481 22.3867 39.9492Z" fill="#C49047"/>
<path id="path130" d="M22.5266 39.8315C22.6211 39.7247 22.6904 39.6274 22.8126 39.5166C22.8837 39.4517 23.1239 39.3898 23.2466 39.4065C23.2986 39.4065 23.3308 39.4278 23.3308 39.4278C23.3308 39.4278 22.9981 39.5088 22.8409 39.6637C22.6889 39.8128 22.4066 39.9403 22.3867 39.9492C22.3965 39.9423 22.4772 39.8873 22.5266 39.8315Z" fill="#FFDEAE"/>
<path id="path132" d="M31.7311 29.2822C31.7314 29.2829 31.7309 29.2834 31.7309 29.2841C31.7316 29.3227 31.7339 29.8767 31.5812 30.2447C31.4226 30.6263 31.5572 31.2188 31.5572 31.2188C31.5572 31.2188 31.9887 30.7732 32.0192 30.4473C32.0567 30.0551 31.7414 29.3055 31.7311 29.2822Z" fill="#C49047"/>
<path id="path134" d="M31.6245 29.6056C31.5023 29.8471 31.3767 30.0405 31.2716 30.3285C31.2099 30.4966 31.3009 30.9271 31.4397 31.1052C31.4849 31.1868 31.5532 31.2188 31.5532 31.2188C31.5532 31.2188 31.4186 30.6263 31.5771 30.2447C31.7298 29.8767 31.7276 29.3227 31.7268 29.2841C31.7223 29.3051 31.688 29.4796 31.6245 29.6056Z" fill="#FFDEAE"/>
<path id="path136" d="M30.291 29.8167C30.2915 29.8172 30.2915 29.8176 30.292 29.8181C30.3208 29.8466 30.7263 30.2614 30.8795 30.6293C31.0385 31.0107 31.5713 31.375 31.5713 31.375C31.5713 31.375 31.5708 30.7823 31.3561 30.5192C31.0985 30.2022 30.3157 29.8279 30.291 29.8167Z" fill="#C49047"/>
<path id="path138" d="M30.4485 30.1206C30.5327 30.3751 30.5793 30.5952 30.7101 30.8748C30.7863 31.0378 31.1683 31.3066 31.4022 31.3576C31.4955 31.3916 31.5703 31.3747 31.5703 31.3747C31.5703 31.3747 31.0375 31.0104 30.8785 30.629C30.7253 30.2611 30.3197 29.8463 30.291 29.8178C30.3031 29.8363 30.4044 29.9879 30.4485 30.1206Z" fill="#FFDEAE"/>
<path id="path140" d="M32.1163 30.6388C32.1163 30.6393 32.1158 30.6397 32.1158 30.6402C32.1102 30.6786 32.023 31.2269 31.8123 31.5709C31.5938 31.9274 31.6314 32.5312 31.6314 32.5312C31.6314 32.5312 32.1301 32.1478 32.213 31.8294C32.3134 31.4464 32.1226 30.663 32.1163 30.6388Z" fill="#C49047"/>
<path id="path142" d="M31.9563 30.9449C31.7965 31.1675 31.6413 31.3423 31.4905 31.6131C31.4026 31.7714 31.423 32.2092 31.5314 32.4038C31.5629 32.4904 31.6254 32.5312 31.6254 32.5312C31.6254 32.5312 31.5878 31.9274 31.8063 31.5709C32.017 31.2269 32.1042 30.6786 32.1098 30.6402C32.102 30.6608 32.0395 30.8288 31.9563 30.9449Z" fill="#FFDEAE"/>
<path id="path144" d="M30.6016 30.9762C30.6018 30.9766 30.6018 30.9771 30.6023 30.9776C30.626 31.0098 30.9599 31.4736 31.0524 31.858C31.148 32.2565 31.6162 32.6875 31.6162 32.6875C31.6162 32.6875 31.7115 32.1012 31.5416 31.8125C31.338 31.4647 30.624 30.9906 30.6016 30.9762Z" fill="#C49047"/>
<path id="path146" d="M30.7082 31.2979C30.7505 31.5605 30.7611 31.7848 30.8453 32.0785C30.8944 32.2498 31.2286 32.5666 31.4522 32.6479C31.5389 32.694 31.6155 32.6871 31.6155 32.6871C31.6155 32.6871 31.1472 32.2562 31.0517 31.8576C30.9592 31.4733 30.6253 31.0094 30.6016 30.9772C30.6104 30.9973 30.686 31.1608 30.7082 31.2979Z" fill="#FFDEAE"/>
<path id="path148" d="M32.2718 32.1124C32.2716 32.1128 32.2711 32.1131 32.2708 32.1138C32.2557 32.1498 32.0307 32.6649 31.7378 32.9554C31.4341 33.2562 31.3164 33.8516 31.3164 33.8516C31.3164 33.8516 31.8996 33.5832 32.0614 33.2909C32.2572 32.9394 32.2716 32.1373 32.2718 32.1124Z" fill="#C49047"/>
<path id="path150" d="M32.0393 32.3778C31.8271 32.5609 31.6312 32.6982 31.4155 32.9302C31.2892 33.0655 31.1972 33.4957 31.2529 33.7079C31.2615 33.7988 31.3119 33.8516 31.3119 33.8516C31.3119 33.8516 31.4296 33.2562 31.7333 32.9554C32.0262 32.6649 32.2512 32.1498 32.2664 32.1138C32.2535 32.1318 32.1499 32.2823 32.0393 32.3778Z" fill="#FFDEAE"/>
<path id="path152" d="M30.7188 32.1259C30.719 32.1266 30.7188 32.127 30.719 32.1275C30.7339 32.1638 30.9403 32.6852 30.9317 33.0785C30.9229 33.4861 31.2682 34.0039 31.2682 34.0039C31.2682 34.0039 31.5109 33.4533 31.4194 33.1369C31.3103 32.7558 30.7369 32.1448 30.7188 32.1259Z" fill="#C49047"/>
<path id="path154" d="M30.7369 32.4618C30.7107 32.7263 30.6638 32.9465 30.6706 33.25C30.6746 33.427 30.9188 33.8052 31.1154 33.9313C31.188 33.9943 31.2641 34.0039 31.2641 34.0039C31.2641 34.0039 30.9188 33.4861 30.9277 33.0785C30.9362 32.6852 30.7298 32.1638 30.7149 32.1275C30.7185 32.1489 30.7502 32.3239 30.7369 32.4618Z" fill="#FFDEAE"/>
<path id="path156" d="M32.0825 33.4952C32.0822 33.4959 32.0817 33.4959 32.0815 33.4966C32.0618 33.5309 31.7758 34.0205 31.4496 34.28C31.1111 34.5488 30.9219 35.1289 30.9219 35.1289C30.9219 35.1289 31.5343 34.9202 31.7306 34.6459C31.9675 34.3158 32.0792 33.5201 32.0825 33.4952Z" fill="#C49047"/>
<path id="path158" d="M31.8276 33.7367C31.5945 33.8974 31.3833 34.0144 31.1406 34.2233C30.9987 34.3453 30.8551 34.7639 30.8848 34.9805C30.8823 35.0714 30.9259 35.1289 30.9259 35.1289C30.9259 35.1289 31.1152 34.5488 31.4536 34.28C31.7798 34.0205 32.0658 33.5309 32.0855 33.4966C32.0704 33.5133 31.9491 33.6526 31.8276 33.7367Z" fill="#FFDEAE"/>
<path id="path160" d="M30.543 33.352C30.5432 33.3527 30.543 33.3531 30.5432 33.3538C30.5533 33.3913 30.6954 33.93 30.6392 34.3201C30.581 34.7244 30.8615 35.2734 30.8615 35.2734C30.8615 35.2734 31.1693 34.7504 31.1168 34.4268C31.0546 34.0371 30.5586 33.3725 30.543 33.352Z" fill="#C49047"/>
<path id="path162" d="M30.5179 33.6882C30.4599 33.9485 30.3866 34.1625 30.3566 34.4649C30.3389 34.6412 30.536 35.0416 30.716 35.1864C30.7805 35.2563 30.8551 35.2734 30.8551 35.2734C30.8551 35.2734 30.5746 34.7244 30.6328 34.3201C30.689 33.93 30.5469 33.3913 30.5368 33.3538C30.5375 33.3753 30.5481 33.5523 30.5179 33.6882Z" fill="#FFDEAE"/>
<path id="path164" d="M31.6775 34.8514C31.6772 34.8521 31.6767 34.8521 31.6762 34.8526C31.65 34.8832 31.2687 35.3162 30.8952 35.5162C30.5076 35.7237 30.2031 36.2617 30.2031 36.2617C30.2031 36.2617 30.8473 36.1597 31.0963 35.923C31.397 35.6387 31.6694 34.8754 31.6775 34.8514Z" fill="#C49047"/>
<path id="path166" d="M31.3756 35.0451C31.1138 35.1641 30.8821 35.2434 30.6009 35.4083C30.4368 35.5042 30.21 35.8913 30.1949 36.109C30.1737 36.198 30.2049 36.2617 30.2049 36.2617C30.2049 36.2617 30.5094 35.7237 30.897 35.5162C31.2705 35.3162 31.6518 34.8832 31.6781 34.8526C31.6599 34.8665 31.5122 34.983 31.3756 35.0451Z" fill="#FFDEAE"/>
<path id="path168" d="M30.1912 34.4493C30.1912 34.45 30.191 34.4502 30.191 34.4509C30.1935 34.4895 30.2227 35.0429 30.0879 35.4168C29.948 35.8043 30.1113 36.3906 30.1113 36.3906C30.1113 36.3906 30.5209 35.9283 30.5355 35.6018C30.5539 35.2083 30.2025 34.4722 30.1912 34.4493Z" fill="#C49047"/>
<path id="path170" d="M30.1026 34.7764C29.9922 35.0224 29.8763 35.2206 29.785 35.5125C29.7316 35.6828 29.8435 36.1093 29.9907 36.2819C30.0398 36.3614 30.1097 36.3906 30.1097 36.3906C30.1097 36.3906 29.9463 35.8043 30.0862 35.4168C30.2211 35.0429 30.1918 34.4895 30.1893 34.4509C30.1858 34.4722 30.1598 34.648 30.1026 34.7764Z" fill="#FFDEAE"/>
<path id="path172" d="M31.0486 36.0916C31.0481 36.092 31.0476 36.092 31.0471 36.0925C31.0153 36.1183 30.5561 36.4844 30.1496 36.6219C29.7282 36.7647 29.3242 37.2461 29.3242 37.2461C29.3242 37.2461 29.9782 37.248 30.2693 37.0543C30.6202 36.822 31.036 36.1139 31.0486 36.0916Z" fill="#C49047"/>
<path id="path174" d="M30.7166 36.2341C30.4356 36.3095 30.1924 36.351 29.8836 36.4684C29.7034 36.5369 29.4053 36.882 29.3483 37.094C29.3103 37.1785 29.3287 37.2461 29.3287 37.2461C29.3287 37.2461 29.7327 36.7647 30.1541 36.6219C30.5606 36.4844 31.0198 36.1183 31.0515 36.0926C31.0309 36.1034 30.863 36.1946 30.7166 36.2341Z" fill="#FFDEAE"/>
<path id="path176" d="M29.6596 35.4607C29.6596 35.4614 29.6593 35.4617 29.6591 35.4623C29.6543 35.5007 29.5762 36.0502 29.371 36.3966C29.1583 36.7562 29.2057 37.3594 29.2057 37.3594C29.2057 37.3594 29.6981 36.9692 29.7758 36.6499C29.87 36.2656 29.6664 35.485 29.6596 35.4607Z" fill="#C49047"/>
<path id="path178" d="M29.5148 35.7689C29.3586 35.9936 29.2061 36.1703 29.0599 36.4432C28.9745 36.6027 29.002 37.0402 29.1136 37.2335C29.1466 37.3196 29.2096 37.3594 29.2096 37.3594C29.2096 37.3594 29.1623 36.7562 29.375 36.3966C29.5801 36.0502 29.6583 35.5007 29.663 35.4623C29.6555 35.4827 29.596 35.6516 29.5148 35.7689Z" fill="#FFDEAE"/>
<path id="path180" d="M30.0179 37.3335C30.0174 37.3338 30.0169 37.3338 30.0161 37.334C29.9786 37.3521 29.4349 37.6056 29.0035 37.6495C28.5564 37.6947 28.0352 38.0724 28.0352 38.0724C28.0352 38.0724 28.669 38.2184 29.0032 38.095C29.4059 37.9472 29.9997 37.3523 30.0179 37.3335Z" fill="#C49047"/>
<path id="path182" d="M29.6534 37.3951C29.3606 37.4064 29.1136 37.3929 28.7824 37.4386C28.5894 37.4652 28.2073 37.7341 28.0951 37.9271C28.0357 38.0004 28.0352 38.0703 28.0352 38.0703C28.0352 38.0703 28.5564 37.6926 29.0035 37.6473C29.4349 37.6034 29.9786 37.35 30.0161 37.3319C29.9934 37.3378 29.8062 37.3892 29.6534 37.3951Z" fill="#FFDEAE"/>
<path id="path184" d="M28.8298 36.415C28.8296 36.4155 28.8291 36.4158 28.8291 36.4164C28.8137 36.4525 28.5901 36.9682 28.298 37.2589C27.9951 37.5606 27.8789 38.1562 27.8789 38.1562C27.8789 38.1562 28.4613 37.8865 28.6226 37.594C28.8172 37.2421 28.8298 36.4399 28.8298 36.415Z" fill="#C49047"/>
<path id="path186" d="M28.6124 36.6811C28.4007 36.8645 28.2051 37.0022 27.9899 37.2347C27.8641 37.3702 27.7732 37.8006 27.8296 38.0129C27.8384 38.1035 27.8888 38.1562 27.8888 38.1562C27.8888 38.1562 28.005 37.5606 28.308 37.2589C28.6001 36.9682 28.8236 36.4525 28.839 36.4164C28.8259 36.4347 28.7228 36.5852 28.6124 36.6811Z" fill="#FFDEAE"/>
<path id="path188" d="M28.8881 38.2179C28.8876 38.2183 28.8871 38.2181 28.8864 38.2185C28.8481 38.2352 28.2946 38.4707 27.8619 38.5002C27.413 38.5305 26.877 38.8909 26.877 38.8909C26.877 38.8909 27.5048 39.0578 27.8437 38.9455C28.252 38.811 28.8692 38.2361 28.8881 38.2179Z" fill="#C49047"/>
<path id="path190" d="M28.5212 38.2733C28.2283 38.2747 27.9819 38.2532 27.6492 38.288C27.4551 38.3082 27.0627 38.5643 26.9427 38.7534C26.8802 38.8249 26.877 38.8945 26.877 38.8945C26.877 38.8945 27.413 38.5341 27.8619 38.5038C28.2946 38.4743 28.8481 38.2388 28.8864 38.2221C28.8635 38.2272 28.6742 38.2724 28.5212 38.2733Z" fill="#FFDEAE"/>
<path id="path192" d="M27.7468 37.2641C27.7465 37.2646 27.7463 37.2647 27.746 37.2655C27.7294 37.3009 27.4852 37.809 27.1817 38.09C26.8667 38.3814 26.7266 38.9727 26.7266 38.9727C26.7266 38.9727 27.3196 38.7226 27.4925 38.4355C27.7012 38.0902 27.7458 37.289 27.7468 37.2641Z" fill="#C49047"/>
<path id="path194" d="M27.5017 37.5224C27.2827 37.6987 27.0819 37.83 26.8573 38.0553C26.7262 38.1866 26.6181 38.6137 26.6658 38.8274C26.671 38.9185 26.7192 38.9727 26.7192 38.9727C26.7192 38.9727 26.8593 38.3814 27.1743 38.09C27.4778 37.809 27.722 37.3009 27.7386 37.2655C27.725 37.283 27.6159 37.4303 27.5017 37.5224Z" fill="#FFDEAE"/>
<path id="path196" d="M27.4416 39.0596C27.4409 39.0596 27.4406 39.0594 27.4399 39.0596C27.398 39.0663 26.7949 39.1581 26.3693 39.0804C25.9282 38.9998 25.3047 39.2166 25.3047 39.2166C25.3047 39.2166 25.8594 39.5316 26.2193 39.5064C26.6525 39.4767 27.418 39.0725 27.4416 39.0596Z" fill="#C49047"/>
<path id="path198" d="M27.0729 39.0217C26.7904 38.9514 26.5595 38.8701 26.2289 38.8222C26.0358 38.794 25.5817 38.9454 25.41 39.0987C25.3286 39.1523 25.3047 39.2188 25.3047 39.2188C25.3047 39.2188 25.9282 39.002 26.3693 39.0826C26.7949 39.1603 27.3981 39.0685 27.4399 39.0618C27.4159 39.0611 27.2204 39.0584 27.0729 39.0217Z" fill="#FFDEAE"/>
<path id="path200" d="M26.6236 37.8617C26.6231 37.8624 26.6226 37.8624 26.6223 37.8629C26.5956 37.893 26.2095 38.3226 25.8335 38.519C25.4436 38.7227 25.1328 39.2578 25.1328 39.2578C25.1328 39.2578 25.7783 39.1619 26.03 38.9275C26.3337 38.6463 26.6153 37.8857 26.6236 37.8617Z" fill="#C49047"/>
<path id="path202" d="M26.3184 38.0524C26.055 38.1689 25.8226 38.246 25.5394 38.408C25.3743 38.5025 25.1429 38.8874 25.1253 39.1051C25.1031 39.1938 25.1336 39.2578 25.1336 39.2578C25.1336 39.2578 25.4443 38.7227 25.8342 38.519C26.2103 38.3226 26.5964 37.893 26.6231 37.8629C26.6047 37.8768 26.4557 37.9917 26.3184 38.0524Z" fill="#FFDEAE"/>
<path id="path204" d="M25.9743 39.5983C25.9735 39.5983 25.9733 39.5981 25.9725 39.5981C25.9299 39.5981 25.3185 39.5931 24.9142 39.4496C24.4954 39.301 23.8398 39.4152 23.8398 39.4152C23.8398 39.4152 24.3258 39.8121 24.6849 39.8438C25.1174 39.8831 25.9486 39.6072 25.9743 39.5983Z" fill="#C49047"/>
<path id="path206" d="M25.6189 39.5003C25.354 39.386 25.1423 39.2694 24.826 39.1699C24.6413 39.1118 24.1652 39.1887 23.9666 39.3124C23.8761 39.3525 23.8398 39.4142 23.8398 39.4142C23.8398 39.4142 24.4954 39.2996 24.9142 39.4487C25.3185 39.5926 25.9299 39.5977 25.9725 39.5977C25.9491 39.5933 25.757 39.5596 25.6189 39.5003Z" fill="#FFDEAE"/>
<path id="path208" d="M25.1885 38.4282C25.188 38.4286 25.1875 38.4286 25.187 38.429C25.1592 38.4512 24.7537 38.7682 24.3966 38.8856C24.0261 39.0073 23.668 39.4257 23.668 39.4257C23.668 39.4257 24.2406 39.4321 24.4971 39.2652C24.8064 39.0644 25.1771 38.4475 25.1885 38.4282Z" fill="#C49047"/>
<path id="path210" d="M24.8882 38.5503C24.6415 38.6143 24.428 38.6486 24.1568 38.7493C23.9983 38.8077 23.7342 39.1076 23.6823 39.2929C23.6482 39.3664 23.6636 39.4258 23.6636 39.4258C23.6636 39.4258 24.0218 39.0074 24.3922 38.8856C24.7494 38.7682 25.1549 38.4512 25.1826 38.4291C25.1647 38.4384 25.0168 38.517 24.8882 38.5503Z" fill="#FFDEAE"/>
<path id="path212" d="M24.5445 39.9492C24.5442 39.9489 24.544 39.9488 24.5437 39.9488C24.5241 39.9399 24.2415 39.8124 24.0896 39.6633C23.9323 39.5084 23.5996 39.4273 23.5996 39.4273C23.5996 39.4273 23.7261 39.7108 23.8849 39.7992C24.0759 39.9059 24.5304 39.9481 24.5445 39.9492Z" fill="#C49047"/>
<path id="path214" d="M24.4038 39.8315C24.3093 39.7247 24.24 39.6274 24.118 39.5166C24.0467 39.4517 23.8065 39.3898 23.6838 39.4065C23.6319 39.4065 23.5996 39.4278 23.5996 39.4278C23.5996 39.4278 23.9323 39.5088 24.0896 39.6637C24.2415 39.8128 24.5241 39.9403 24.5437 39.9492C24.5339 39.9423 24.4532 39.8873 24.4038 39.8315Z" fill="#FFDEAE"/>
<path id="path216" d="M19.3389 20.548C14.7449 21.3892 11.2586 23.8725 9.2873 26.8842C7.66348 29.3625 7.43312 31.3554 8.1198 33.7185C11.4365 45.631 16.1469 39.3689 22.4754 45.1735C22.5296 45.2243 22.521 45.2889 22.4764 45.3272L21.9951 45.737C21.9509 45.7746 21.8796 45.7772 21.8315 45.7324C17.9292 42.1915 14.9022 43.5392 11.7979 41.5764C9.16257 39.8895 8.02194 36.3666 7.30307 33.4358C6.60241 30.5626 7.55331 27.9972 9.57162 25.5858C9.69232 25.4365 10.0733 25.0263 10.1364 24.9623C12.6125 22.5188 15.5039 20.947 19.3389 20.548Z" fill="#C49047"/>
<path id="path218" d="M5.77192 23.9187C5.77154 23.9208 5.77232 23.9219 5.77192 23.9238C5.75047 24.0434 5.46172 25.763 5.74959 26.9695C6.04857 28.2206 5.32951 30.0039 5.32951 30.0039C5.32951 30.0039 4.21574 28.4408 4.28643 27.4163C4.36902 26.1825 5.72862 23.9866 5.77192 23.9187Z" fill="#C49047"/>
<path id="path220" d="M5.9178 24.9654C6.17434 25.7659 6.46586 26.4187 6.64652 27.3571C6.75245 27.9046 6.25164 29.2032 5.73034 29.699C5.5487 29.9329 5.32031 30.0039 5.32031 30.0039C5.32031 30.0039 6.03938 28.2206 5.7404 26.9695C5.45253 25.763 5.74128 24.0434 5.76273 23.9238C5.76598 23.9916 5.7845 24.5477 5.9178 24.9654Z" fill="#FFDEAE"/>
<path id="path222" d="M8.66629 25.9968C8.66541 25.9986 8.66599 25.9997 8.66511 26.0018C8.6206 26.116 7.9997 27.7615 8.04665 28.9955C8.09577 30.2747 7.03884 31.9141 7.03884 31.9141C7.03884 31.9141 6.24897 30.1966 6.51923 29.1997C6.84223 27.9988 8.61027 26.0564 8.66629 25.9968Z" fill="#C49047"/>
<path id="path224" d="M8.61199 27.0517C8.70769 27.8807 8.86677 28.57 8.86077 29.5226C8.85772 30.0783 8.1105 31.2759 7.50042 31.68C7.27583 31.8807 7.03711 31.9141 7.03711 31.9141C7.03711 31.9141 8.09405 30.2747 8.04493 28.9955C7.99797 27.7615 8.61887 26.116 8.66338 26.0018C8.65345 26.0689 8.56277 26.6193 8.61199 27.0517Z" fill="#FFDEAE"/>
<path id="path226" d="M2.88281 27.2032C2.88359 27.2048 2.88478 27.2052 2.88546 27.2068C2.9342 27.3 3.64795 28.6308 4.49255 29.3505C5.36856 30.0962 5.81483 31.6602 5.81483 31.6602C5.81483 31.6602 4.20174 31.0524 3.70534 30.3035C3.10599 29.403 2.88861 27.2696 2.88281 27.2032Z" fill="#C49047"/>
<path id="path228" d="M3.54646 27.8687C4.15272 28.3175 4.70471 28.647 5.33126 29.2255C5.69718 29.5626 6.0382 30.6918 5.93711 31.2671C5.93434 31.5106 5.81218 31.6602 5.81218 31.6602C5.81218 31.6602 5.36591 30.0962 4.48991 29.3505C3.6453 28.6308 2.93156 27.3 2.88281 27.2068C2.92122 27.2527 3.23054 27.6344 3.54646 27.8687Z" fill="#FFDEAE"/>
<path id="path230" d="M2.37109 30.9847C2.37225 30.9861 2.37364 30.9863 2.37482 30.9879C2.45043 31.0722 3.55022 32.2742 4.61484 32.8198C5.71903 33.3851 6.60903 34.8867 6.60903 34.8867C6.60903 34.8867 4.78751 34.63 4.07169 33.9755C3.20839 33.1887 2.39539 31.0516 2.37109 30.9847Z" fill="#C49047"/>
<path id="path232" d="M3.24612 31.5155C3.99157 31.8375 4.64843 32.0501 5.4506 32.5005C5.91892 32.7632 6.58077 33.8428 6.63632 34.4555C6.70079 34.7054 6.61701 34.8867 6.61701 34.8867C6.61701 34.8867 5.72702 33.3851 4.62283 32.8198C3.5582 32.2742 2.45842 31.0722 2.38281 30.9879C2.43488 31.0263 2.85754 31.3472 3.24612 31.5155Z" fill="#FFDEAE"/>
<path id="path234" d="M6.26506 29.4999C6.26514 29.502 6.26632 29.5031 6.26632 29.5052C6.27539 29.6303 6.42553 31.4277 7.02616 32.5854C7.64933 33.7858 7.38128 35.7383 7.38128 35.7383C7.38128 35.7383 5.85511 34.3947 5.66334 33.345C5.42991 32.0818 6.23877 29.5776 6.26506 29.4999Z" fill="#C49047"/>
<path id="path236" d="M6.68789 30.5242C7.15258 31.2786 7.6146 31.8763 8.03814 32.7857C8.28573 33.3163 8.11355 34.7334 7.71443 35.3439C7.59106 35.6184 7.37863 35.7383 7.37863 35.7383C7.37863 35.7383 7.64669 33.7858 7.02352 32.5854C6.42288 31.4277 6.27274 29.6303 6.26367 29.5052C6.28446 29.5728 6.44602 30.1305 6.68789 30.5242Z" fill="#FFDEAE"/>
<path id="path238" d="M2.53906 36.8824C2.54123 36.8833 2.54272 36.8826 2.54488 36.8836C2.67531 36.9256 4.55581 37.5127 5.96687 37.4718C7.43003 37.4289 9.30203 38.4256 9.30203 38.4256C9.30203 38.4256 7.336 39.1631 6.19655 38.9069C4.82417 38.6003 2.60739 36.9351 2.53906 36.8824Z" fill="#C49047"/>
<path id="path240" d="M3.75145 36.9347C4.69981 36.8467 5.48839 36.6991 6.57764 36.7072C7.21333 36.7112 8.58097 37.4161 9.04143 37.99C9.27053 38.2015 9.30793 38.4258 9.30793 38.4258C9.30793 38.4258 7.43593 37.4291 5.97277 37.472C4.5617 37.5128 2.68121 36.9257 2.55078 36.8837C2.62747 36.8931 3.25674 36.9798 3.75145 36.9347Z" fill="#FFDEAE"/>
<path id="path242" d="M6.57031 35.0071C6.5714 35.0089 6.57298 35.0093 6.57407 35.0112C6.64416 35.1194 7.66803 36.6647 8.77794 37.4553C9.92922 38.2749 10.656 40.1289 10.656 40.1289C10.656 40.1289 8.62693 39.5483 7.93601 38.6882C7.10204 37.6543 6.58528 35.0872 6.57031 35.0071Z" fill="#C49047"/>
<path id="path244" d="M7.45388 35.7497C8.24266 36.2349 8.95139 36.5811 9.78014 37.2218C10.264 37.5954 10.8117 38.9319 10.7572 39.6397C10.7828 39.9352 10.6523 40.1289 10.6523 40.1289C10.6523 40.1289 9.92546 38.2749 8.77419 37.4553C7.66427 36.6647 6.6404 35.1194 6.57031 35.0112C6.62228 35.0632 7.04287 35.496 7.45388 35.7497Z" fill="#FFDEAE"/>
<path id="path246" d="M10.9983 34.6153C10.9984 34.6176 10.9996 34.6185 10.9997 34.6206C11.0105 34.7457 11.1869 36.5411 11.8044 37.6915C12.4451 38.8844 12.2055 40.8398 12.2055 40.8398C12.2055 40.8398 10.6598 39.5147 10.4528 38.4676C10.2009 37.2073 10.9731 34.6934 10.9983 34.6153Z" fill="#C49047"/>
<path id="path248" d="M11.437 35.6346C11.9127 36.3832 12.3834 36.9753 12.8201 37.8795C13.0755 38.4071 12.924 39.8262 12.5339 40.4415C12.4146 40.7175 12.2038 40.8398 12.2038 40.8398C12.2038 40.8398 12.4435 38.8844 11.8028 37.6915C11.1853 36.5411 11.0089 34.7457 10.998 34.6206C11.0198 34.688 11.1894 35.2439 11.437 35.6346Z" fill="#FFDEAE"/>
<path id="path250" d="M14.0218 36.299C14.0219 36.301 14.0231 36.3022 14.0231 36.3042C14.0339 36.4294 14.2103 38.2245 14.8278 39.3751C15.4685 40.5678 15.229 42.5234 15.229 42.5234C15.229 42.5234 13.6833 41.1981 13.4762 40.151C13.2244 38.8907 13.9966 36.3768 14.0218 36.299Z" fill="#C49047"/>
<path id="path252" d="M14.4586 37.3182C14.9342 38.0666 15.405 38.6587 15.8417 39.563C16.0971 40.0906 15.9456 41.5096 15.5556 42.1249C15.4361 42.4008 15.2254 42.5234 15.2254 42.5234C15.2254 42.5234 15.465 40.5678 14.8243 39.3751C14.2068 38.2245 14.0304 36.4294 14.0195 36.3042C14.0413 36.3716 14.211 36.9272 14.4586 37.3182Z" fill="#FFDEAE"/>
<path id="path254" d="M4.9707 40.9976C4.97307 40.998 4.97446 40.9973 4.9769 40.9977C5.11975 41.0209 7.17448 41.334 8.62483 41.0714C10.1285 40.7986 12.2525 41.5363 12.2525 41.5363C12.2525 41.5363 10.3611 42.6054 9.13502 42.5184C7.65865 42.4161 5.05123 41.0414 4.9707 40.9976Z" fill="#C49047"/>
<path id="path256" d="M6.22501 40.8616C7.18824 40.623 7.97505 40.3473 9.1021 40.1854C9.75972 40.0906 11.307 40.6054 11.8918 41.1265C12.1689 41.309 12.2502 41.5352 12.2502 41.5352C12.2502 41.5352 10.1263 40.7974 8.62254 41.0702C7.17218 41.3328 5.11746 41.0197 4.97461 40.9966C5.05564 40.9945 5.72233 40.9856 6.22501 40.8616Z" fill="#FFDEAE"/>
<path id="path258" d="M10.998 45.3083C11 45.3079 11.0007 45.3067 11.0026 45.3063C11.1181 45.2685 12.7704 44.7132 13.7116 43.9663C14.6871 43.1918 16.5876 42.921 16.5876 42.921C16.5876 42.921 15.6983 44.4274 14.7588 44.8324C13.6288 45.3214 11.0775 45.3097 10.998 45.3083Z" fill="#C49047"/>
<path id="path260" d="M11.86 44.728C12.4551 44.1849 12.9037 43.682 13.6548 43.1327C14.0928 42.8121 15.4667 42.598 16.1381 42.7568C16.4262 42.7848 16.5909 42.9194 16.5909 42.9194C16.5909 42.9194 14.6904 43.1902 13.7149 43.9647C12.7737 44.7116 11.1214 45.267 11.0059 45.3047C11.0644 45.2721 11.5491 45.011 11.86 44.728Z" fill="#FFDEAE"/>
<path id="path262" d="M21.1851 18.0381C21.183 18.0385 21.1825 18.0397 21.1808 18.0404C21.0711 18.0803 19.5053 18.6682 18.6306 19.4168C17.7239 20.1931 15.9082 20.5156 15.9082 20.5156C15.9082 20.5156 16.7028 19.0386 17.5895 18.6189C18.656 18.1118 21.1087 18.0394 21.1851 18.0381Z" fill="#C49047"/>
<path id="path264" d="M20.3828 18.6215C19.8327 19.163 19.4216 19.6609 18.7215 20.2133C18.3134 20.5361 17.0015 20.7866 16.3498 20.6562C16.0719 20.6386 15.9082 20.5146 15.9082 20.5146C15.9082 20.5146 17.7239 20.1921 18.6306 19.4158C19.5053 18.6672 21.0711 18.0793 21.1808 18.0393C21.1258 18.0724 20.6704 18.3394 20.3828 18.6215Z" fill="#FFDEAE"/>
<path id="path266" d="M17.3751 17.2247C17.374 17.2261 17.3742 17.2274 17.3731 17.2288C17.3093 17.3188 16.4074 18.6192 16.1716 19.6883C15.9276 20.7969 14.6523 22.0117 14.6523 22.0117C14.6523 22.0117 14.3578 20.3904 14.8131 19.5833C15.3594 18.6103 17.3137 17.2658 17.3751 17.2247Z" fill="#C49047"/>
<path id="path268" d="M17.092 18.1213C16.9887 18.8517 16.9713 19.4731 16.7531 20.2907C16.6261 20.7681 15.7158 21.6599 15.101 21.8952C14.8631 22.0265 14.6504 22.0112 14.6504 22.0112C14.6504 22.0112 15.9257 20.7964 16.1697 19.6878C16.4055 18.6187 17.3073 17.3182 17.3712 17.2283C17.3476 17.2842 17.1465 17.7405 17.092 18.1213Z" fill="#FFDEAE"/>
<path id="path270" d="M14.33 18.5071C14.3295 18.5085 14.33 18.5094 14.3294 18.5108C14.3025 18.5935 13.9297 19.7847 14.0145 20.6601C14.1028 21.568 13.4198 22.7695 13.4198 22.7695C13.4198 22.7695 12.7867 21.5755 12.9372 20.8577C13.1168 19.993 14.2926 18.5517 14.33 18.5071Z" fill="#C49047"/>
<path id="path272" d="M14.3426 19.259C14.4452 19.8452 14.5871 20.3297 14.6224 21.0071C14.6435 21.4022 14.1622 22.2792 13.7453 22.5873C13.5941 22.7378 13.4258 22.7695 13.4258 22.7695C13.4258 22.7695 14.1088 21.568 14.0205 20.6601C13.9356 19.7847 14.3085 18.5935 14.3354 18.5108C14.3311 18.559 14.2895 18.9532 14.3426 19.259Z" fill="#FFDEAE"/>
<path id="path274" d="M20.5269 21.3895C20.5252 21.3898 20.5244 21.3907 20.5229 21.3911C20.4231 21.4142 18.9964 21.7604 18.1465 22.3166C17.2655 22.8935 15.6562 22.9844 15.6562 22.9844C15.6562 22.9844 16.5287 21.7906 17.3476 21.5195C18.3328 21.1918 20.4606 21.3827 20.5269 21.3895Z" fill="#C49047"/>
<path id="path276" d="M19.7603 21.8112C19.2167 22.2221 18.799 22.6097 18.1247 23.0146C17.7314 23.2512 16.5665 23.3321 16.02 23.1519C15.7821 23.108 15.6562 22.984 15.6562 22.984C15.6562 22.984 17.2655 22.8931 18.1465 22.3162C18.9964 21.7601 20.4231 21.4138 20.5229 21.3908C20.4712 21.4136 20.0443 21.5972 19.7603 21.8112Z" fill="#FFDEAE"/>
<path id="path278" d="M16.1676 20.5918C16.1663 20.5931 16.1665 20.5943 16.1652 20.5954C16.0966 20.6763 15.1248 21.8463 14.8063 22.8446C14.4764 23.8801 13.1575 24.9414 13.1575 24.9414C13.1575 24.9414 13.021 23.3797 13.525 22.6461C14.13 21.7618 16.1055 20.6262 16.1676 20.5918Z" fill="#C49047"/>
<path id="path280" d="M15.8257 21.4236C15.663 22.1099 15.5915 22.6989 15.3116 23.4599C15.1489 23.9039 14.2053 24.6852 13.6005 24.8638C13.3628 24.9714 13.1621 24.9415 13.1621 24.9415C13.1621 24.9415 14.481 23.8802 14.8109 22.8447C15.1294 21.8464 16.1012 20.6763 16.1698 20.5955C16.1425 20.6469 15.911 21.066 15.8257 21.4236Z" fill="#FFDEAE"/>
<path id="path282" d="M17.0214 24.0102C17.0196 24.0106 17.0192 24.0118 17.0174 24.0124C16.9147 24.0542 15.447 24.6668 14.6443 25.409C13.8122 26.1789 12.0957 26.5469 12.0957 26.5469C12.0957 26.5469 12.7924 25.1133 13.6201 24.6837C14.6153 24.165 16.9487 24.0138 17.0214 24.0102Z" fill="#C49047"/>
<path id="path284" d="M16.2812 24.5929C15.779 25.1271 15.4076 25.6152 14.7634 26.1649C14.3877 26.486 13.1482 26.7685 12.5222 26.6662C12.2567 26.6587 12.0957 26.5461 12.0957 26.5461C12.0957 26.5461 13.8122 26.1781 14.6443 25.4082C15.447 24.666 16.9147 24.0534 17.0174 24.0116C16.9665 24.045 16.5435 24.3145 16.2812 24.5929Z" fill="#FFDEAE"/>
<path id="path286" d="M10.4509 20.6891C10.4507 20.6913 10.4518 20.6925 10.4517 20.6945C10.4482 20.822 10.4204 22.653 10.9122 23.8739C11.4229 25.1399 10.9561 27.0938 10.9561 27.0938C10.9561 27.0938 9.54611 25.6085 9.45712 24.5308C9.34736 23.2333 10.4164 20.7656 10.4509 20.6891Z" fill="#C49047"/>
<path id="path288" d="M10.772 21.7607C11.1667 22.5621 11.5745 23.2048 11.912 24.1601C12.1095 24.7171 11.7935 26.137 11.3285 26.7222C11.1762 26.9898 10.9492 27.0938 10.9492 27.0938C10.9492 27.0938 11.416 25.1399 10.9053 23.8739C10.4135 22.653 10.4413 20.822 10.4448 20.6945C10.4589 20.7647 10.5666 21.3425 10.772 21.7607Z" fill="#FFDEAE"/>
<path id="path290" d="M13.3703 23.0527C13.369 23.0545 13.3693 23.0559 13.3682 23.0577C13.3004 23.1696 12.3456 24.7834 12.1623 26.0727C11.9725 27.4094 10.5659 28.9492 10.5659 28.9492C10.5659 28.9492 10.0685 27.0429 10.5368 26.0487C11.0983 24.851 13.3008 23.1061 13.3703 23.0527Z" fill="#C49047"/>
<path id="path292" d="M13.1098 24.141C13.0532 25.0171 13.0888 25.7577 12.9034 26.7464C12.7957 27.3233 11.7939 28.4522 11.084 28.7777C10.813 28.9517 10.5586 28.9492 10.5586 28.9492C10.5586 28.9492 11.9652 27.4094 12.1549 26.0727C12.3383 24.7834 13.2931 23.1696 13.3608 23.0577C13.3378 23.126 13.14 23.684 13.1098 24.141Z" fill="#FFDEAE"/>
<path id="path294" d="M14.8959 27.0978C14.8943 27.0987 14.8941 27.1001 14.8924 27.1012C14.7983 27.1725 13.4593 28.2082 12.8598 29.2017C12.2385 30.2322 10.5586 31.0781 10.5586 31.0781C10.5586 31.0781 10.8214 29.3881 11.549 28.7157C12.4234 27.9049 14.8208 27.1211 14.8959 27.0978Z" fill="#C49047"/>
<path id="path296" d="M14.3101 27.9063C13.9578 28.6011 13.7279 29.2124 13.2317 29.9616C12.9425 30.3989 11.735 31.0275 11.045 31.0877C10.7641 31.1512 10.5586 31.0763 10.5586 31.0763C10.5586 31.0763 12.2385 30.2304 12.8598 29.1999C13.4593 28.2064 14.7983 27.1707 14.8924 27.0994C14.8499 27.148 14.4943 27.5441 14.3101 27.9063Z" fill="#FFDEAE"/>
<path id="path298" d="M8.95646 26.5483C8.95686 26.5499 8.95784 26.5506 8.95815 26.552C8.98254 26.644 9.34887 27.9611 9.95896 28.7509C10.5919 29.5697 10.6696 31.0508 10.6696 31.0508C10.6696 31.0508 9.34582 30.2306 9.05472 29.4738C8.70226 28.5627 8.94789 26.6091 8.95646 26.5483Z" fill="#C49047"/>
<path id="path300" d="M9.41257 27.2595C9.86457 27.7654 10.2923 28.1555 10.7356 28.7815C10.9947 29.1467 11.0678 30.219 10.858 30.7187C10.8052 30.9368 10.6646 31.0508 10.6646 31.0508C10.6646 31.0508 10.5869 29.5697 9.95393 28.7509C9.34385 27.9611 8.97752 26.644 8.95312 26.552C8.97813 26.5999 9.17718 26.9953 9.41257 27.2595Z" fill="#FFDEAE"/>
<path id="path302" d="M13.3489 30.5708C13.3476 30.5717 13.3474 30.5728 13.346 30.5738C13.2677 30.6363 12.1526 31.5439 11.6659 32.4013C11.1616 33.2904 9.75195 34.043 9.75195 34.043C9.75195 34.043 9.93546 32.5996 10.5388 32.0133C11.2637 31.306 13.2856 30.5923 13.3489 30.5708Z" fill="#C49047"/>
<path id="path304" d="M12.8695 31.2725C12.5863 31.8707 12.405 32.3955 12.0005 33.0428C11.7648 33.4208 10.752 33.9792 10.1662 34.044C9.92868 34.1034 9.75195 34.0436 9.75195 34.0436C9.75195 34.0436 11.1616 33.291 11.6659 32.4019C12.1526 31.5446 13.2677 30.6369 13.346 30.5744C13.3111 30.6168 13.0178 30.9608 12.8695 31.2725Z" fill="#FFDEAE"/>
<path id="path306" d="M9.90803 30.1763C9.90745 30.1784 9.90824 30.1797 9.90756 30.1818C9.87527 30.3088 9.43195 32.1347 9.64696 33.4475C9.87043 34.8087 8.96048 36.6758 8.96048 36.6758C8.96048 36.6758 7.88728 34.9277 8.04274 33.8333C8.22722 32.5152 9.85627 30.2464 9.90803 30.1763Z" fill="#C49047"/>
<path id="path308" d="M9.98564 31.3091C10.1986 32.1843 10.4607 32.9028 10.5816 33.921C10.6526 34.515 10.0145 35.8764 9.41671 36.3748C9.20377 36.6141 8.95312 36.6758 8.95312 36.6758C8.95312 36.6758 9.86308 34.8087 9.6396 33.4475C9.4246 32.1347 9.86792 30.3088 9.9002 30.1818C9.89851 30.2546 9.8752 30.8526 9.98564 31.3091Z" fill="#FFDEAE"/>
</g>
</svg>
