<svg width="33" height="49" viewBox="0 0 33 49" fill="none" xmlns="http://www.w3.org/2000/svg">
<g id="Group 29">
<path id="path310" d="M23.5928 18.2959C28.849 20.8987 32.4481 26.2014 32.4481 32.3199C32.4481 41.0119 25.184 48.0586 16.2236 48.0586C7.26312 48.0586 0 41.0119 0 32.3199C0 26.3451 3.43192 21.1479 8.48875 18.482C10.7874 17.2709 13.4224 16.5822 16.2236 16.5822C18.8768 16.5822 21.382 17.2 23.5928 18.2959Z" fill="#FFAD67"/>
<path id="path312" d="M16.2276 47.418C12.0714 47.418 8.16397 45.8479 5.22534 42.9969C2.28648 40.146 0.667969 36.3554 0.667969 32.3236C0.667969 26.7847 3.78796 21.6992 8.8099 19.0517C11.0717 17.86 13.6369 17.23 16.2276 17.23C18.717 17.23 21.0947 17.7829 23.2946 18.8732C25.8104 20.1191 27.9327 22.0076 29.4323 24.3348C30.9734 26.7262 31.7879 29.4887 31.7879 32.3236C31.7879 36.3554 30.1693 40.146 27.2305 42.9969C24.2914 45.8479 20.3837 47.418 16.2276 47.418Z" fill="#F69C62"/>
<path id="path314" d="M16.2186 45.5742C12.5692 45.5742 9.13846 44.1955 6.55805 41.6922C3.97765 39.189 2.55664 35.8606 2.55664 32.3205C2.55664 27.457 5.29586 22.9919 9.70557 20.6672C11.6916 19.6206 13.9439 19.0675 16.2186 19.0675C18.4047 19.0675 20.4922 19.5529 22.4239 20.5104C24.6328 21.6042 26.4963 23.2625 27.813 25.306C29.1662 27.4057 29.8814 29.8312 29.8814 32.3205C29.8814 35.8606 28.4602 39.1888 25.8798 41.6922C23.2991 44.1955 19.8679 45.5742 16.2186 45.5742Z" stroke="#BC7546" stroke-width="2.61099" stroke-miterlimit="10"/>
<path id="path316" d="M16.2211 41.3086C13.7463 41.3086 11.4202 40.3739 9.67038 38.6766C7.92059 36.9789 6.95703 34.7222 6.95703 32.3215C6.95703 29.0239 8.81459 25.996 11.8045 24.4197C13.1514 23.71 14.6785 23.3351 16.2211 23.3351C17.7033 23.3351 19.1189 23.6642 20.4288 24.3133C21.9265 25.0553 23.1901 26.1795 24.0831 27.5651C25.0006 28.9889 25.4856 30.6338 25.4856 32.3215C25.4856 34.7222 24.5218 36.9789 22.772 38.6766C21.0223 40.3739 18.6956 41.3086 16.2211 41.3086V41.3086Z" stroke="#F69C62" stroke-width="1.865" stroke-miterlimit="10"/>
<path id="path318" d="M16.2279 43.2656C13.2145 43.2656 10.3818 42.1274 8.25123 40.0603C6.12068 37.9933 4.94727 35.2454 4.94727 32.3223C4.94727 28.3067 7.2091 24.6199 10.8502 22.7003C12.49 21.8363 14.3495 21.3796 16.2279 21.3796C18.0328 21.3796 19.7565 21.7805 21.3512 22.5709C23.1753 23.4742 24.7138 24.8435 25.8011 26.5305C26.9185 28.2643 27.5088 30.267 27.5088 32.3223C27.5088 35.2452 26.3354 37.9933 24.2046 40.0603C22.0739 42.1274 19.2411 43.2656 16.2279 43.2656V43.2656Z" stroke="#BC7546" stroke-width="2.61099" stroke-miterlimit="10"/>
<path id="path320" d="M21.1799 15.9018V15.3201C21.1799 15.1518 21.0391 15.0152 20.8653 15.0152H11.0047C10.8312 15.0152 10.6904 15.1518 10.6904 15.3201V15.9018C10.6904 16.071 10.8312 16.2076 11.0047 16.2076H20.8653C21.0391 16.2076 21.1799 16.071 21.1799 15.9018ZM22.8057 15.4666C23.2188 16.36 23.4481 17.3222 23.4847 18.2983C21.2739 17.2024 18.7687 16.5843 16.1157 16.5843C13.3143 16.5843 10.6795 17.2733 8.38086 18.4844C8.39273 17.4444 8.62584 16.4169 9.06454 15.4666L9.26916 15.024C9.49753 14.5284 9.97278 14.1818 10.5276 14.1065L11.1317 14.0241C14.3179 13.5914 17.5523 13.5914 20.7393 14.0241L21.3425 14.1065C21.8973 14.1818 22.3725 14.5284 22.6011 15.024L22.8057 15.4666Z" fill="#F69C62"/>
<path id="path322" d="M26.2296 -0.000461578L20.6042 15.2383H17.4785L23.0875 0.0119743V-0.000461578H26.2296Z" fill="#FF545F"/>
<path id="path324" d="M23.0859 -0.000461578V0.0119743L17.4769 15.2383H14.3906L19.9994 0.0119743V-0.000461578H23.0859Z" fill="#62DADC"/>
<path id="path326" d="M20.0042 -0.000461578V0.0119743L14.3954 15.2383H11.2422L16.8676 -0.000461578H20.0042Z" fill="#AC748C"/>
<path id="path328" d="M31.3626 32.322C31.3626 37.2852 27.2147 41.3086 22.0983 41.3086C16.9819 41.3086 12.834 37.2852 12.834 32.322C12.834 27.3585 16.9819 23.3351 22.0983 23.3351C27.2147 23.3351 31.3626 27.3585 31.3626 32.322Z" fill="#F9C8A9"/>
<path id="path330" d="M5.61914 -0.000461578L11.2445 15.2383H14.3702L8.7612 0.0119743V-0.000461578H5.61914Z" fill="#AC748C"/>
<path id="path332" d="M8.75781 -0.000461578V0.0119743L14.3668 15.2383H17.4531L11.8443 0.0119743V-0.000461578H8.75781Z" fill="#62DADC"/>
<path id="path334" d="M11.8418 -0.000461578V0.0119743L17.4506 15.2383H20.6038L14.9784 -0.000461578H11.8418Z" fill="#FF545F"/>
<path id="path336" d="M30.7573 32.3212C30.7573 36.9611 26.8798 40.7227 22.0964 40.7227C17.313 40.7227 13.4355 36.9611 13.4355 32.3212C13.4355 27.6811 17.313 23.9194 22.0964 23.9194C26.8798 23.9194 30.7573 27.6811 30.7573 32.3212Z" fill="#FFAD67"/>
<path id="path338" d="M28.7 32.3252C28.7 35.8585 25.7471 38.7227 22.1049 38.7227C18.4624 38.7227 15.5098 35.8585 15.5098 32.3252C15.5098 28.7918 18.4624 25.9276 22.1049 25.9276C25.7471 25.9276 28.7 28.7918 28.7 32.3252Z" fill="#BC7546"/>
<path id="path340" d="M14.327 29.524C14.327 29.5247 14.3272 29.5252 14.3272 29.5259C14.3268 29.5648 14.3244 30.1234 14.4685 30.4944C14.6178 30.8792 14.4908 31.4766 14.4908 31.4766C14.4908 31.4766 14.0844 31.0273 14.0557 30.6987C14.0203 30.3033 14.3175 29.5475 14.327 29.524Z" fill="#BC7546"/>
<path id="path342" d="M14.419 29.8501C14.5339 30.0935 14.6521 30.2886 14.7513 30.5789C14.8092 30.7484 14.7235 31.1825 14.593 31.3621C14.5502 31.4443 14.4859 31.4766 14.4859 31.4766C14.4859 31.4766 14.6129 30.8792 14.4636 30.4944C14.3195 30.1234 14.3219 29.5648 14.3223 29.5259C14.3266 29.5471 14.3591 29.723 14.419 29.8501Z" fill="#F9C8A9"/>
<path id="path344" d="M15.6725 30.0655C15.672 30.066 15.672 30.0664 15.6715 30.0669C15.6447 30.0957 15.2628 30.5139 15.1182 30.8849C14.9686 31.2694 14.4668 31.6367 14.4668 31.6367C14.4668 31.6367 14.4673 31.0391 14.6693 30.7739C14.9119 30.4542 15.6495 30.0768 15.6725 30.0655Z" fill="#BC7546"/>
<path id="path346" d="M15.5234 30.3719C15.4441 30.6285 15.4002 30.8504 15.277 31.1323C15.2051 31.2967 14.8454 31.5678 14.6249 31.6191C14.5371 31.6534 14.4668 31.6364 14.4668 31.6364C14.4668 31.6364 14.9686 31.2691 15.1182 30.8845C15.2628 30.5136 15.6447 30.0954 15.6715 30.0666C15.6601 30.0852 15.565 30.2381 15.5234 30.3719Z" fill="#F9C8A9"/>
<path id="path348" d="M13.9605 30.8927C13.9605 30.8931 13.9607 30.8936 13.9609 30.8941C13.9662 30.9328 14.0483 31.4857 14.2465 31.8325C14.4526 32.1919 14.4172 32.8008 14.4172 32.8008C14.4172 32.8008 13.9472 32.4141 13.8693 32.0931C13.7746 31.707 13.9543 30.9171 13.9605 30.8927Z" fill="#BC7546"/>
<path id="path350" d="M14.1033 31.2013C14.2538 31.4258 14.4 31.6019 14.542 31.8751C14.6251 32.0346 14.6059 32.4761 14.5036 32.6723C14.4739 32.7596 14.4152 32.8008 14.4152 32.8008C14.4152 32.8008 14.4506 32.1919 14.2446 31.8325C14.0463 31.4857 13.9642 30.9328 13.959 30.8941C13.9663 30.9148 14.025 31.0843 14.1033 31.2013Z" fill="#F9C8A9"/>
<path id="path352" d="M15.3871 31.2355C15.3866 31.2359 15.3866 31.2364 15.3861 31.2368C15.3641 31.2693 15.0493 31.737 14.9624 32.1246C14.8724 32.5264 14.4314 32.9609 14.4314 32.9609C14.4314 32.9609 14.3416 32.3698 14.5014 32.0787C14.6932 31.728 15.3657 31.25 15.3871 31.2355Z" fill="#BC7546"/>
<path id="path354" d="M15.2821 31.5598C15.2424 31.8246 15.2325 32.0507 15.153 32.3469C15.1069 32.5196 14.7919 32.839 14.5816 32.921C14.4999 32.9675 14.4277 32.9606 14.4277 32.9606C14.4277 32.9606 14.8688 32.526 14.9588 32.1242C15.0457 31.7366 15.3604 31.2689 15.3825 31.2365C15.3742 31.2567 15.303 31.4216 15.2821 31.5598Z" fill="#F9C8A9"/>
<path id="path356" d="M13.8125 32.3792C13.8127 32.3797 13.813 32.3799 13.8132 32.3806C13.8277 32.417 14.0394 32.9363 14.3153 33.2292C14.6013 33.5325 14.7124 34.1328 14.7124 34.1328C14.7124 34.1328 14.1629 33.8622 14.0105 33.5675C13.8263 33.2131 13.8125 32.4043 13.8125 32.3792Z" fill="#BC7546"/>
<path id="path358" d="M14.0264 32.6468C14.2265 32.8315 14.4109 32.9699 14.6142 33.2039C14.7328 33.3402 14.8197 33.774 14.767 33.988C14.759 34.0796 14.7117 34.1328 14.7117 34.1328C14.7117 34.1328 14.6006 33.5325 14.3146 33.2292C14.0387 32.9363 13.827 32.417 13.8125 32.3806C13.8246 32.3988 13.9222 32.5506 14.0264 32.6468Z" fill="#F9C8A9"/>
<path id="path360" d="M15.2791 32.3916C15.2789 32.3923 15.2789 32.3927 15.2786 32.3932C15.2649 32.4298 15.0705 32.9555 15.0783 33.3521C15.0866 33.7631 14.7614 34.2852 14.7614 34.2852C14.7614 34.2852 14.533 33.73 14.6189 33.411C14.722 33.0267 15.262 32.4107 15.2791 32.3916Z" fill="#BC7546"/>
<path id="path362" d="M15.2583 32.7303C15.283 32.997 15.3274 33.219 15.3208 33.525C15.3172 33.7035 15.0869 34.0848 14.902 34.2119C14.8336 34.2755 14.7617 34.2852 14.7617 34.2852C14.7617 34.2852 15.0869 33.7631 15.0786 33.3521C15.0708 32.9555 15.2652 32.4298 15.279 32.3932C15.2757 32.4148 15.2458 32.5912 15.2583 32.7303Z" fill="#F9C8A9"/>
<path id="path364" d="M13.9883 33.7708C13.9885 33.7715 13.989 33.7715 13.9892 33.7722C14.0075 33.8067 14.2769 34.3004 14.5844 34.562C14.9029 34.8331 15.0812 35.418 15.0812 35.418C15.0812 35.418 14.5046 35.2075 14.3197 34.9309C14.0963 34.5982 13.9911 33.7959 13.9883 33.7708Z" fill="#BC7546"/>
<path id="path366" d="M14.2311 34.0142C14.4507 34.1763 14.6496 34.2942 14.8782 34.5049C15.0117 34.6279 15.147 35.05 15.119 35.2681C15.1213 35.3599 15.0803 35.418 15.0803 35.418C15.0803 35.418 14.902 34.8331 14.5834 34.562C14.276 34.3004 14.0066 33.8067 13.9883 33.7722C14.0023 33.789 14.1165 33.9294 14.2311 34.0142Z" fill="#F9C8A9"/>
<path id="path368" d="M15.4488 33.629C15.4485 33.6297 15.4488 33.6302 15.4485 33.6309C15.4388 33.6686 15.3052 34.2119 15.3579 34.6052C15.4127 35.0128 15.1485 35.5664 15.1485 35.5664C15.1485 35.5664 14.8586 35.039 14.908 34.7127C14.9669 34.3199 15.4338 33.6498 15.4488 33.629Z" fill="#BC7546"/>
<path id="path370" d="M15.4641 33.968C15.5187 34.2305 15.588 34.4463 15.6163 34.7512C15.6327 34.929 15.4473 35.3327 15.2775 35.4786C15.2168 35.5491 15.1465 35.5664 15.1465 35.5664C15.1465 35.5664 15.4107 35.0128 15.3559 34.6052C15.3032 34.2119 15.4368 33.6686 15.4465 33.6309C15.4456 33.6525 15.4359 33.831 15.4641 33.968Z" fill="#F9C8A9"/>
<path id="path372" d="M14.3594 35.1366C14.3598 35.1373 14.3603 35.1373 14.3606 35.1378C14.3853 35.1686 14.7444 35.6053 15.0965 35.8069C15.4613 36.0161 15.7483 36.5586 15.7483 36.5586C15.7483 36.5586 15.1413 36.4557 14.9068 36.2171C14.6238 35.9304 14.3672 35.1608 14.3594 35.1366Z" fill="#BC7546"/>
<path id="path374" d="M14.6618 35.3319C14.9087 35.4519 15.1266 35.5318 15.3915 35.6981C15.5463 35.7948 15.76 36.1851 15.7742 36.4046C15.7939 36.4944 15.7647 36.5586 15.7647 36.5586C15.7647 36.5586 15.4777 36.0161 15.1129 35.8069C14.7608 35.6053 14.4016 35.1686 14.377 35.1378C14.3943 35.1518 14.5332 35.2693 14.6618 35.3319Z" fill="#F9C8A9"/>
<path id="path376" d="M15.7798 34.734C15.7798 34.7347 15.78 34.735 15.78 34.7356C15.7776 34.7746 15.7501 35.3325 15.8771 35.7095C16.0091 36.1002 15.8553 36.6914 15.8553 36.6914C15.8553 36.6914 15.4695 36.2253 15.4558 35.896C15.4382 35.4992 15.7693 34.7571 15.7798 34.734Z" fill="#BC7546"/>
<path id="path378" d="M15.8575 35.0638C15.9612 35.3118 16.0704 35.5117 16.1564 35.806C16.2067 35.9777 16.1015 36.4077 15.9629 36.5818C15.9166 36.6619 15.8509 36.6914 15.8509 36.6914C15.8509 36.6914 16.0047 36.1002 15.8727 35.7095C15.7457 35.3325 15.7732 34.7746 15.7756 34.7356C15.7789 34.7571 15.8034 34.9344 15.8575 35.0638Z" fill="#F9C8A9"/>
<path id="path380" d="M14.959 36.3906C14.9595 36.391 14.9599 36.391 14.9604 36.3916C14.9903 36.4176 15.4226 36.7867 15.8055 36.9254C16.2027 37.0693 16.5832 37.5547 16.5832 37.5547C16.5832 37.5547 15.9669 37.5566 15.693 37.3613C15.3625 37.127 14.9709 36.4132 14.959 36.3906Z" fill="#BC7546"/>
<path id="path382" d="M15.2745 36.5343C15.5389 36.6104 15.7682 36.6522 16.059 36.7706C16.2288 36.8396 16.5094 37.1876 16.5632 37.4013C16.5989 37.4865 16.5818 37.5547 16.5818 37.5547C16.5818 37.5547 16.2012 37.0693 15.8041 36.9254C15.4212 36.7867 14.9889 36.4176 14.959 36.3916C14.9782 36.4026 15.1363 36.4945 15.2745 36.5343Z" fill="#F9C8A9"/>
<path id="path384" d="M16.2714 35.7536C16.2714 35.7543 16.2719 35.7546 16.2719 35.7552C16.2766 35.7939 16.3502 36.348 16.5435 36.6973C16.7438 37.0598 16.699 37.668 16.699 37.668C16.699 37.668 16.2351 37.2746 16.162 36.9527C16.0734 36.5651 16.2652 35.778 16.2714 35.7536Z" fill="#BC7546"/>
<path id="path386" d="M16.4113 36.0643C16.5583 36.2909 16.7019 36.4691 16.8396 36.7442C16.9203 36.905 16.8942 37.3462 16.789 37.541C16.7581 37.6279 16.6985 37.668 16.6985 37.668C16.6985 37.668 16.7434 37.0598 16.5431 36.6973C16.3498 36.348 16.2762 35.7939 16.2715 35.7552C16.2786 35.7757 16.3346 35.9461 16.4113 36.0643Z" fill="#F9C8A9"/>
<path id="path388" d="M15.9375 37.6432C15.9382 37.6435 15.9387 37.6435 15.9392 37.6437C15.9745 37.662 16.4868 37.9175 16.893 37.9618C17.3143 38.0074 17.8053 38.3882 17.8053 38.3882C17.8053 38.3882 17.208 38.5354 16.8932 38.411C16.5139 38.262 15.9548 37.6621 15.9375 37.6432Z" fill="#BC7546"/>
<path id="path390" d="M16.2793 37.7059C16.5552 37.7173 16.7878 37.7037 17.0995 37.7497C17.2816 37.7766 17.6412 38.0477 17.7471 38.2423C17.8031 38.3162 17.8036 38.3867 17.8036 38.3867C17.8036 38.3867 17.3127 38.0059 16.8913 37.9602C16.4852 37.916 15.9729 37.6604 15.9375 37.6422C15.9591 37.6482 16.1355 37.7 16.2793 37.7059Z" fill="#F9C8A9"/>
<path id="path392" d="M17.0449 36.7131C17.0452 36.7136 17.0456 36.7139 17.0459 36.7145C17.0601 36.7509 17.2707 37.2708 17.5458 37.564C17.8311 37.8682 17.9408 38.4688 17.9408 38.4688C17.9408 38.4688 17.392 38.1968 17.2403 37.9018C17.0568 37.547 17.0452 36.7382 17.0449 36.7131Z" fill="#BC7546"/>
<path id="path394" d="M17.2581 36.9814C17.4577 37.1663 17.6417 37.3052 17.8444 37.5396C17.9629 37.6762 18.0486 38.1102 17.9957 38.3242C17.9873 38.4156 17.9399 38.4688 17.9399 38.4688C17.9399 38.4688 17.8302 37.8682 17.5449 37.564C17.2697 37.2708 17.0592 36.7509 17.0449 36.7145C17.057 36.7329 17.1541 36.8847 17.2581 36.9814Z" fill="#F9C8A9"/>
<path id="path396" d="M16.9941 38.5357C16.9949 38.5362 16.9953 38.5359 16.9958 38.5364C17.0319 38.5532 17.5532 38.7907 17.961 38.8204C18.3836 38.851 18.8885 39.2144 18.8885 39.2144C18.8885 39.2144 18.2974 39.3827 17.9781 39.2694C17.5933 39.1338 17.0122 38.5541 16.9941 38.5357Z" fill="#BC7546"/>
<path id="path398" d="M17.3479 38.5885C17.624 38.5899 17.8559 38.5682 18.1692 38.6033C18.352 38.6237 18.7219 38.8818 18.8346 39.0725C18.8935 39.1446 18.8966 39.2148 18.8966 39.2148C18.8966 39.2148 18.3917 38.8514 17.9691 38.8209C17.5613 38.7912 17.04 38.5537 17.0039 38.5369C17.0257 38.542 17.204 38.5875 17.3479 38.5885Z" fill="#F9C8A9"/>
<path id="path400" d="M18.0723 37.5742C18.0725 37.5746 18.073 37.5748 18.0732 37.5755C18.0889 37.6113 18.3187 38.1236 18.6047 38.4069C18.9012 38.7007 19.0332 39.2969 19.0332 39.2969C19.0332 39.2969 18.4746 39.0447 18.3118 38.7553C18.1152 38.4071 18.0732 37.5993 18.0723 37.5742Z" fill="#BC7546"/>
<path id="path402" d="M18.2954 37.8346C18.5017 38.0124 18.6909 38.1448 18.9022 38.3719C19.0256 38.5043 19.1275 38.9349 19.0826 39.1504C19.0778 39.2423 19.0323 39.2969 19.0323 39.2969C19.0323 39.2969 18.9003 38.7007 18.6038 38.4069C18.3177 38.1236 18.0879 37.6113 18.0723 37.5755C18.0851 37.5933 18.1879 37.7418 18.2954 37.8346Z" fill="#F9C8A9"/>
<path id="path404" d="M18.3594 39.384C18.3601 39.384 18.3606 39.3838 18.3613 39.384C18.4007 39.3908 18.9688 39.4834 19.3695 39.405C19.7851 39.3237 20.3722 39.5423 20.3722 39.5423C20.3722 39.5423 19.8497 39.8599 19.5109 39.8345C19.1026 39.8045 18.3817 39.397 18.3594 39.384Z" fill="#BC7546"/>
<path id="path406" d="M18.7048 39.3443C18.9711 39.2734 19.1883 39.1914 19.5 39.1431C19.6816 39.1147 20.1094 39.2674 20.2713 39.4219C20.3477 39.476 20.3703 39.543 20.3703 39.543C20.3703 39.543 19.7832 39.3244 19.3676 39.4057C18.9669 39.484 18.3988 39.3914 18.3594 39.3847C18.3817 39.3841 18.5659 39.3813 18.7048 39.3443Z" fill="#F9C8A9"/>
<path id="path408" d="M19.9668 39.9285C19.9675 39.9285 19.9677 39.9284 19.9685 39.9284C20.0086 39.9285 20.5845 39.9272 20.9662 39.7854C21.3619 39.6379 21.9784 39.7573 21.9784 39.7573C21.9784 39.7573 21.5179 40.1544 21.1794 40.1842C20.772 40.221 19.991 39.9376 19.9668 39.9285Z" fill="#BC7546"/>
<path id="path410" d="M20.3006 39.8336C20.5508 39.7201 20.7511 39.6039 21.0498 39.5054C21.2242 39.448 21.6722 39.5285 21.8583 39.6547C21.9431 39.6956 21.9768 39.758 21.9768 39.758C21.9768 39.758 21.3603 39.6383 20.9645 39.7862C20.5828 39.9285 20.0069 39.9298 19.9668 39.9297C19.9889 39.9252 20.17 39.8927 20.3006 39.8336Z" fill="#F9C8A9"/>
<path id="path412" d="M19.1289 38.1744C19.1294 38.1751 19.1299 38.1751 19.1303 38.1755C19.1553 38.2059 19.5192 38.6391 19.8731 38.8371C20.2406 39.0425 20.5333 39.582 20.5333 39.582C20.5333 39.582 19.9253 39.4853 19.6882 39.249C19.4019 38.9654 19.137 38.1986 19.1289 38.1744Z" fill="#BC7546"/>
<path id="path414" d="M19.4157 38.3667C19.664 38.4841 19.8829 38.5619 20.1494 38.7251C20.3052 38.8205 20.5231 39.2085 20.5397 39.428C20.5604 39.5175 20.5319 39.582 20.5319 39.582C20.5319 39.582 20.2392 39.0425 19.8717 38.8371C19.5177 38.6391 19.1538 38.2059 19.1289 38.1755C19.146 38.1896 19.2863 38.3054 19.4157 38.3667Z" fill="#F9C8A9"/>
<path id="path416" d="M20.4883 38.748C20.4885 38.7485 20.489 38.7485 20.4895 38.7489C20.5158 38.7712 20.8975 39.0908 21.2342 39.2092C21.5829 39.332 21.9202 39.7539 21.9202 39.7539C21.9202 39.7539 21.3809 39.7603 21.1392 39.592C20.8479 39.3896 20.4987 38.7675 20.4883 38.748Z" fill="#BC7546"/>
<path id="path418" d="M20.7655 38.8712C20.998 38.9357 21.199 38.9702 21.4547 39.0718C21.6038 39.1307 21.8528 39.4331 21.9015 39.6199C21.9335 39.694 21.919 39.7539 21.919 39.7539C21.919 39.7539 21.5817 39.332 21.233 39.2092C20.8963 39.0909 20.5146 38.7713 20.4883 38.7489C20.5054 38.7584 20.6445 38.8376 20.7655 38.8712Z" fill="#F9C8A9"/>
<path id="path420" d="M21.0879 40.2812C21.0881 40.281 21.0881 40.2808 21.0886 40.2808C21.1071 40.2718 21.3732 40.1433 21.5161 39.993C21.6643 39.8368 21.9776 39.755 21.9776 39.755C21.9776 39.755 21.8584 40.0408 21.7089 40.13C21.5292 40.2375 21.1012 40.2801 21.0879 40.2812Z" fill="#BC7546"/>
<path id="path422" d="M21.2194 40.1626C21.3084 40.0548 21.3737 39.9568 21.4888 39.8451C21.5558 39.7797 21.782 39.7172 21.8979 39.7341C21.9465 39.7341 21.9769 39.7555 21.9769 39.7555C21.9769 39.7555 21.6636 39.8372 21.5154 39.9934C21.3725 40.1437 21.1064 40.2722 21.0879 40.2812C21.0969 40.2743 21.1731 40.2188 21.2194 40.1626Z" fill="#F9C8A9"/>
<path id="path424" d="M29.888 29.524C29.888 29.5247 29.8878 29.5252 29.8878 29.5259C29.8882 29.5648 29.8906 30.1234 29.7465 30.4944C29.5972 30.8792 29.7242 31.4766 29.7242 31.4766C29.7242 31.4766 30.1306 31.0273 30.1593 30.6987C30.1945 30.3033 29.8975 29.5475 29.888 29.524Z" fill="#BC7546"/>
<path id="path426" d="M29.7941 29.8501C29.6792 30.0935 29.561 30.2886 29.4618 30.5789C29.4039 30.7484 29.4896 31.1825 29.6201 31.3621C29.6629 31.4443 29.7272 31.4766 29.7272 31.4766C29.7272 31.4766 29.6002 30.8792 29.7495 30.4944C29.8936 30.1234 29.8912 29.5648 29.8907 29.5259C29.8865 29.5471 29.854 29.723 29.7941 29.8501Z" fill="#F9C8A9"/>
<path id="path428" d="M28.5273 30.0655C28.5278 30.066 28.5278 30.0664 28.5283 30.0669C28.5551 30.0957 28.9371 30.5139 29.0814 30.8849C29.2312 31.2694 29.733 31.6367 29.733 31.6367C29.733 31.6367 29.7326 31.0391 29.5305 30.7739C29.2879 30.4542 28.5504 30.0768 28.5273 30.0655Z" fill="#BC7546"/>
<path id="path430" d="M28.6755 30.3719C28.7548 30.6285 28.7987 30.8504 28.9219 31.1323C28.9938 31.2967 29.3534 31.5678 29.574 31.6191C29.6618 31.6534 29.7321 31.6364 29.7321 31.6364C29.7321 31.6364 29.2303 31.2691 29.0805 30.8845C28.9361 30.5136 28.5542 30.0954 28.5273 30.0666C28.5385 30.0852 28.6339 30.2381 28.6755 30.3719Z" fill="#F9C8A9"/>
<path id="path432" d="M30.252 30.8927C30.252 30.8931 30.2515 30.8936 30.2515 30.8941C30.2463 30.9328 30.1642 31.4857 29.9657 31.8325C29.7599 32.1919 29.7953 32.8008 29.7953 32.8008C29.7953 32.8008 30.2651 32.4141 30.3432 32.0931C30.4379 31.707 30.258 30.9171 30.252 30.8927Z" fill="#BC7546"/>
<path id="path434" d="M30.1001 31.2013C29.9496 31.4258 29.8031 31.6019 29.6612 31.8751C29.5783 32.0346 29.5976 32.4761 29.6996 32.6723C29.7295 32.7596 29.7882 32.8008 29.7882 32.8008C29.7882 32.8008 29.7528 32.1919 29.9586 31.8325C30.1571 31.4857 30.2392 30.9328 30.2444 30.8941C30.2371 30.9148 30.1784 31.0843 30.1001 31.2013Z" fill="#F9C8A9"/>
<path id="path436" d="M28.8223 31.2355C28.8227 31.2359 28.8227 31.2364 28.823 31.2368C28.8453 31.2693 29.1601 31.737 29.247 32.1246C29.3369 32.5264 29.778 32.9609 29.778 32.9609C29.778 32.9609 29.8677 32.3698 29.7077 32.0787C29.5159 31.728 28.8434 31.25 28.8223 31.2355Z" fill="#BC7546"/>
<path id="path438" d="M28.9229 31.5598C28.9626 31.8246 28.9725 32.0507 29.0518 32.3469C29.0981 32.5196 29.4131 32.839 29.6234 32.921C29.7051 32.9675 29.7773 32.9606 29.7773 32.9606C29.7773 32.9606 29.3362 32.526 29.2462 32.1242C29.1594 31.7366 28.8446 31.2689 28.8223 31.2365C28.8308 31.2567 28.902 31.4216 28.9229 31.5598Z" fill="#F9C8A9"/>
<path id="path440" d="M30.398 32.3792C30.3977 32.3797 30.3973 32.3799 30.3973 32.3806C30.3828 32.417 30.171 32.9363 29.8952 33.2292C29.6089 33.5325 29.498 34.1328 29.498 34.1328C29.498 34.1328 30.0474 33.8622 30.2 33.5675C30.3842 33.2131 30.398 32.4043 30.398 32.3792Z" fill="#BC7546"/>
<path id="path442" d="M30.1819 32.6468C29.9821 32.8315 29.7976 32.9699 29.5944 33.2039C29.4757 33.3402 29.3888 33.774 29.4415 33.988C29.4496 34.0796 29.4968 34.1328 29.4968 34.1328C29.4968 34.1328 29.6077 33.5325 29.894 33.2292C30.1698 32.9363 30.3816 32.417 30.3961 32.3806C30.3837 32.3988 30.2861 32.5506 30.1819 32.6468Z" fill="#F9C8A9"/>
<path id="path444" d="M28.9336 32.3916C28.9338 32.3923 28.9336 32.3927 28.9341 32.3932C28.9478 32.4298 29.1423 32.9555 29.1344 33.3521C29.1259 33.7631 29.4513 34.2852 29.4513 34.2852C29.4513 34.2852 29.6797 33.73 29.5938 33.411C29.4907 33.0267 28.9507 32.4107 28.9336 32.3916Z" fill="#BC7546"/>
<path id="path446" d="M28.9457 32.7303C28.9212 32.997 28.8768 33.219 28.8835 33.525C28.887 33.7035 29.1171 34.0848 29.3022 34.2119C29.3706 34.2755 29.4425 34.2852 29.4425 34.2852C29.4425 34.2852 29.1171 33.7631 29.1256 33.3521C29.1335 32.9555 28.939 32.4298 28.9253 32.3932C28.9283 32.4148 28.9585 32.5912 28.9457 32.7303Z" fill="#F9C8A9"/>
<path id="path448" d="M30.216 33.7708C30.2157 33.7715 30.2153 33.7715 30.215 33.7722C30.1965 33.8067 29.9273 34.3004 29.6199 34.562C29.3011 34.8331 29.123 35.418 29.123 35.418C29.123 35.418 29.6997 35.2075 29.8846 34.9309C30.108 34.5982 30.2131 33.7959 30.216 33.7708Z" fill="#BC7546"/>
<path id="path450" d="M29.9796 34.0142C29.76 34.1763 29.5611 34.2942 29.3325 34.5049C29.1991 34.6279 29.0638 35.05 29.0915 35.2681C29.0894 35.3599 29.1305 35.418 29.1305 35.418C29.1305 35.418 29.3085 34.8331 29.6273 34.562C29.9348 34.3004 30.2039 33.8067 30.2225 33.7722C30.2082 33.789 30.094 33.9294 29.9796 34.0142Z" fill="#F9C8A9"/>
<path id="path452" d="M28.7637 33.629C28.7639 33.6297 28.7637 33.6302 28.7639 33.6309C28.7736 33.6686 28.9073 34.2119 28.8546 34.6052C28.7995 35.0128 29.0637 35.5664 29.0637 35.5664C29.0637 35.5664 29.3538 35.039 29.3044 34.7127C29.2456 34.3199 28.7786 33.6498 28.7637 33.629Z" fill="#BC7546"/>
<path id="path454" d="M28.7489 33.968C28.6941 34.2305 28.625 34.4463 28.5967 34.7512C28.5801 34.929 28.7658 35.3327 28.9353 35.4786C28.996 35.5491 29.0663 35.5664 29.0663 35.5664C29.0663 35.5664 28.8021 35.0128 28.8572 34.6052C28.9099 34.2119 28.7762 33.6686 28.7665 33.6309C28.7674 33.6525 28.7772 33.831 28.7489 33.968Z" fill="#F9C8A9"/>
<path id="path456" d="M29.8399 35.1366C29.8397 35.1373 29.8392 35.1373 29.8387 35.1378C29.814 35.1686 29.4551 35.6053 29.103 35.8069C28.7379 36.0161 28.4512 36.5586 28.4512 36.5586C28.4512 36.5586 29.0579 36.4557 29.2927 36.2171C29.5757 35.9304 29.8323 35.1608 29.8399 35.1366Z" fill="#BC7546"/>
<path id="path458" d="M29.5567 35.3319C29.3098 35.4519 29.0917 35.5318 28.8268 35.6981C28.6722 35.7948 28.4586 36.1851 28.4443 36.4046C28.4246 36.4944 28.4538 36.5586 28.4538 36.5586C28.4538 36.5586 28.7406 36.0161 29.1057 35.8069C29.4577 35.6053 29.8167 35.1686 29.8414 35.1378C29.8243 35.1518 29.6854 35.2693 29.5567 35.3319Z" fill="#F9C8A9"/>
<path id="path460" d="M28.4397 34.734C28.44 34.7347 28.4395 34.735 28.4397 34.7356C28.4421 34.7746 28.4696 35.3325 28.3424 35.7095C28.2106 36.1002 28.3645 36.6914 28.3645 36.6914C28.3645 36.6914 28.7502 36.2253 28.764 35.896C28.7813 35.4992 28.4504 34.7571 28.4397 34.734Z" fill="#BC7546"/>
<path id="path462" d="M28.3566 35.0638C28.2528 35.3118 28.1434 35.5117 28.0577 35.806C28.0074 35.9777 28.1125 36.4077 28.2512 36.5818C28.2975 36.6619 28.3632 36.6914 28.3632 36.6914C28.3632 36.6914 28.2094 36.1002 28.3412 35.7095C28.4684 35.3325 28.4409 34.7746 28.4385 34.7356C28.4352 34.7571 28.4107 34.9344 28.3566 35.0638Z" fill="#F9C8A9"/>
<path id="path464" d="M29.2453 36.3906C29.2448 36.391 29.2444 36.391 29.2439 36.3916C29.214 36.4176 28.7817 36.7867 28.3988 36.9254C28.0016 37.0693 27.6211 37.5547 27.6211 37.5547C27.6211 37.5547 28.2374 37.5566 28.5113 37.3613C28.8417 37.127 29.2334 36.4132 29.2453 36.3906Z" fill="#BC7546"/>
<path id="path466" d="M28.9325 36.5343C28.6678 36.6104 28.4387 36.6522 28.1479 36.7706C27.9782 36.8396 27.6974 37.1876 27.6437 37.4013C27.6081 37.4865 27.6252 37.5547 27.6252 37.5547C27.6252 37.5547 28.0057 37.0693 28.4029 36.9254C28.7858 36.7867 29.2181 36.4176 29.248 36.3916C29.2285 36.4026 29.0707 36.4945 28.9325 36.5343Z" fill="#F9C8A9"/>
<path id="path468" d="M27.934 35.7536C27.934 35.7543 27.9335 35.7546 27.9335 35.7552C27.9287 35.7939 27.8552 36.348 27.6619 36.6973C27.4616 37.0598 27.5062 37.668 27.5062 37.668C27.5062 37.668 27.9703 37.2746 28.0432 36.9527C28.1319 36.5651 27.9401 35.778 27.934 35.7536Z" fill="#BC7546"/>
<path id="path470" d="M27.7941 36.0643C27.6472 36.2909 27.5033 36.4691 27.3656 36.7442C27.2851 36.905 27.311 37.3462 27.4162 37.541C27.4473 37.6279 27.5066 37.668 27.5066 37.668C27.5066 37.668 27.462 37.0598 27.6623 36.6973C27.8556 36.348 27.9292 35.7939 27.9339 35.7552C27.9268 35.7757 27.8705 35.9461 27.7941 36.0643Z" fill="#F9C8A9"/>
<path id="path472" d="M28.274 37.6432C28.2733 37.6435 28.2728 37.6435 28.2724 37.6437C28.2367 37.662 27.7247 37.9175 27.3185 37.9618C26.8972 38.0074 26.4062 38.3882 26.4062 38.3882C26.4062 38.3882 27.0033 38.5354 27.3183 38.411C27.6974 38.262 28.2567 37.6621 28.274 37.6432Z" fill="#BC7546"/>
<path id="path474" d="M27.9305 37.7059C27.6547 37.7173 27.422 37.7037 27.1101 37.7497C26.9283 37.7766 26.5686 38.0477 26.4627 38.2423C26.4067 38.3162 26.4062 38.3867 26.4062 38.3867C26.4062 38.3867 26.8972 38.0059 27.3185 37.9602C27.7247 37.916 28.2367 37.6604 28.2724 37.6422C28.2508 37.6482 28.0744 37.7 27.9305 37.7059Z" fill="#F9C8A9"/>
<path id="path476" d="M27.1574 36.7131C27.1571 36.7136 27.1569 36.7139 27.1567 36.7145C27.1424 36.7509 26.9316 37.2708 26.6567 37.564C26.3712 37.8682 26.2617 38.4688 26.2617 38.4688C26.2617 38.4688 26.8106 38.1968 26.9623 37.9018C27.1458 37.547 27.1574 36.7382 27.1574 36.7131Z" fill="#BC7546"/>
<path id="path478" d="M26.9508 36.9814C26.7512 37.1663 26.5672 37.3052 26.3645 37.5396C26.246 37.6762 26.1603 38.1102 26.2133 38.3242C26.2216 38.4156 26.269 38.4688 26.269 38.4688C26.269 38.4688 26.3785 37.8682 26.6641 37.564C26.939 37.2708 27.1498 36.7509 27.164 36.7145C27.1519 36.7329 27.0548 36.8847 26.9508 36.9814Z" fill="#F9C8A9"/>
<path id="path480" d="M27.2105 38.5357C27.2101 38.5362 27.2096 38.5359 27.2091 38.5364C27.1728 38.5532 26.6515 38.7907 26.2439 38.8204C25.8213 38.851 25.3164 39.2144 25.3164 39.2144C25.3164 39.2144 25.9075 39.3827 26.2268 39.2694C26.6114 39.1338 27.1927 38.5541 27.2105 38.5357Z" fill="#BC7546"/>
<path id="path482" d="M26.8651 38.5885C26.589 38.5899 26.3569 38.5682 26.0438 38.6033C25.8607 38.6237 25.4911 38.8818 25.3781 39.0725C25.3195 39.1446 25.3164 39.2148 25.3164 39.2148C25.3164 39.2148 25.8213 38.8514 26.2439 38.8209C26.6515 38.7912 27.1728 38.5537 27.2091 38.5369C27.1873 38.542 27.009 38.5875 26.8651 38.5885Z" fill="#F9C8A9"/>
<path id="path484" d="M26.1309 37.5742C26.1306 37.5746 26.1302 37.5748 26.1299 37.5755C26.1142 37.6113 25.8842 38.1236 25.5984 38.4069C25.3019 38.7007 25.1699 39.2969 25.1699 39.2969C25.1699 39.2969 25.7285 39.0447 25.8911 38.7553C26.0879 38.4071 26.1299 37.5993 26.1309 37.5742Z" fill="#BC7546"/>
<path id="path486" d="M25.9055 37.8346C25.6992 38.0124 25.51 38.1448 25.2987 38.3719C25.175 38.5043 25.0732 38.9349 25.1183 39.1504C25.1231 39.2423 25.1686 39.2969 25.1686 39.2969C25.1686 39.2969 25.3006 38.7007 25.5971 38.4069C25.8829 38.1236 26.113 37.6113 26.1286 37.5755C26.1158 37.5933 26.013 37.7418 25.9055 37.8346Z" fill="#F9C8A9"/>
<path id="path488" d="M25.8485 39.384C25.848 39.384 25.8476 39.3838 25.8468 39.384C25.8074 39.3908 25.2394 39.4834 24.8387 39.405C24.423 39.3237 23.8359 39.5423 23.8359 39.5423C23.8359 39.5423 24.3584 39.8599 24.6972 39.8345C25.1053 39.8045 25.8262 39.397 25.8485 39.384Z" fill="#BC7546"/>
<path id="path490" d="M25.5012 39.3443C25.2351 39.2734 25.0177 39.1914 24.7062 39.1431C24.5246 39.1147 24.0968 39.2674 23.9349 39.4219C23.8583 39.476 23.8359 39.543 23.8359 39.543C23.8359 39.543 24.423 39.3244 24.8387 39.4057C25.2394 39.484 25.8074 39.3914 25.8468 39.3847C25.8245 39.3841 25.6403 39.3813 25.5012 39.3443Z" fill="#F9C8A9"/>
<path id="path492" d="M25.078 38.1744C25.0777 38.1751 25.0773 38.1751 25.0768 38.1755C25.0519 38.2059 24.6879 38.6391 24.3338 38.8371C23.9665 39.0425 23.6738 39.582 23.6738 39.582C23.6738 39.582 24.2818 39.4853 24.5189 39.249C24.805 38.9654 25.0701 38.1986 25.078 38.1744Z" fill="#BC7546"/>
<path id="path494" d="M24.7936 38.3667C24.5453 38.4841 24.3265 38.5619 24.0599 38.7251C23.9042 38.8205 23.6862 39.2085 23.6696 39.428C23.649 39.5175 23.6775 39.582 23.6775 39.582C23.6775 39.582 23.9702 39.0425 24.3374 38.8371C24.6916 38.6391 25.0555 38.2059 25.0804 38.1755C25.0631 38.1896 24.923 38.3054 24.7936 38.3667Z" fill="#F9C8A9"/>
<path id="path496" d="M24.4653 39.9244C24.4648 39.9244 24.4643 39.9241 24.4636 39.9241C24.4235 39.9241 23.8476 39.9191 23.4671 39.7744C23.0723 39.6246 22.4551 39.7397 22.4551 39.7397C22.4551 39.7397 22.9125 40.1399 23.251 40.1719C23.6582 40.2115 24.4411 39.9334 24.4653 39.9244Z" fill="#BC7546"/>
<path id="path498" d="M24.1306 39.8276C23.8813 39.7123 23.6819 39.5948 23.3837 39.4945C23.2097 39.4359 22.7613 39.5135 22.5742 39.6382C22.4893 39.6786 22.4551 39.7408 22.4551 39.7408C22.4551 39.7408 23.0723 39.6253 23.4671 39.7756C23.8476 39.9207 24.4235 39.9258 24.4636 39.9258C24.4418 39.9214 24.2607 39.8874 24.1306 39.8276Z" fill="#F9C8A9"/>
<path id="path500" d="M23.7212 38.748C23.7208 38.7485 23.7205 38.7485 23.72 38.7489C23.6937 38.7712 23.312 39.0908 22.9754 39.2092C22.6264 39.332 22.2891 39.7539 22.2891 39.7539C22.2891 39.7539 22.8286 39.7603 23.0703 39.592C23.3616 39.3896 23.7108 38.7675 23.7212 38.748Z" fill="#BC7546"/>
<path id="path502" d="M23.4419 38.8712C23.2095 38.9357 23.0087 38.9702 22.753 39.0718C22.6037 39.1307 22.3549 39.4331 22.306 39.6199C22.2739 39.694 22.2884 39.7539 22.2884 39.7539C22.2884 39.7539 22.6258 39.332 22.9747 39.2092C23.3113 39.0909 23.693 38.7713 23.7194 38.7489C23.7023 38.7584 23.5632 38.8376 23.4419 38.8712Z" fill="#F9C8A9"/>
<path id="path504" d="M23.1222 40.2812C23.1219 40.281 23.1219 40.2808 23.1214 40.2808C23.1029 40.2718 22.8368 40.1433 22.6939 39.993C22.5455 39.8368 22.2324 39.755 22.2324 39.755C22.2324 39.755 22.3516 40.0408 22.5011 40.13C22.6808 40.2375 23.1089 40.2801 23.1222 40.2812Z" fill="#BC7546"/>
<path id="path506" d="M22.9897 40.1626C22.9007 40.0548 22.8356 39.9568 22.7205 39.8451C22.6533 39.7797 22.4273 39.7172 22.3115 39.7341C22.2626 39.7341 22.2324 39.7555 22.2324 39.7555C22.2324 39.7555 22.5455 39.8372 22.6939 39.9934C22.8368 40.1437 23.1029 40.2722 23.1214 40.2812C23.1124 40.2743 23.0362 40.2188 22.9897 40.1626Z" fill="#F9C8A9"/>
<path id="path508" d="M18.2104 20.7181C13.8833 21.5662 10.5993 24.0701 8.7427 27.1068C7.21321 29.6055 6.99625 31.615 7.64289 33.9977C10.7672 46.0088 15.2037 39.6948 21.1647 45.5475C21.2158 45.5987 21.2077 45.6638 21.1655 45.7025L20.712 46.1157C20.6705 46.1536 20.6033 46.1562 20.5582 46.1111C16.8825 42.5408 14.0312 43.8997 11.1073 41.9206C8.6252 40.2198 7.55078 36.6677 6.87375 33.7126C6.21381 30.8157 7.10948 28.2289 9.01048 25.7976C9.12419 25.647 9.48312 25.2335 9.54247 25.169C11.8746 22.7052 14.5981 21.1204 18.2104 20.7181Z" fill="#BC7546"/>
<path id="path510" d="M5.43542 24.1183C5.43518 24.1204 5.43589 24.1216 5.43542 24.1234C5.41524 24.2441 5.14343 25.9778 5.41453 27.1944C5.69607 28.4559 5.0188 30.2539 5.0188 30.2539C5.0188 30.2539 3.96955 28.6779 4.03625 27.6448C4.11412 26.4009 5.39459 24.1867 5.43542 24.1183Z" fill="#BC7546"/>
<path id="path512" d="M5.57823 25.1737C5.81989 25.9808 6.09455 26.639 6.26476 27.5852C6.36446 28.1372 5.89277 29.4465 5.40185 29.9465C5.2307 30.1823 5.01562 30.2539 5.01562 30.2539C5.01562 30.2539 5.69289 28.4559 5.41135 27.1944C5.14025 25.9778 5.41206 24.2441 5.43224 24.1234C5.43532 24.1918 5.45289 24.7525 5.57823 25.1737Z" fill="#F9C8A9"/>
<path id="path514" d="M8.16528 26.2136C8.16433 26.2154 8.16504 26.2166 8.16409 26.2187C8.12207 26.3338 7.53738 27.993 7.58154 29.2372C7.62783 30.527 6.63222 32.1797 6.63222 32.1797C6.63222 32.1797 5.88825 30.4482 6.14297 29.443C6.44706 28.2322 8.11234 26.2737 8.16528 26.2136Z" fill="#BC7546"/>
<path id="path516" d="M8.11234 27.2773C8.20255 28.1132 8.35234 28.8082 8.34665 29.7687C8.3438 30.3289 7.63994 31.5365 7.06523 31.9439C6.85372 32.1463 6.62891 32.1797 6.62891 32.1797C6.62891 32.1797 7.62451 30.527 7.57822 29.2372C7.53407 27.993 8.11875 26.3338 8.16077 26.2187C8.15151 26.2864 8.06605 26.8414 8.11234 27.2773Z" fill="#F9C8A9"/>
<path id="path518" d="M2.71484 27.428C2.71556 27.4296 2.71674 27.43 2.71745 27.4317C2.76327 27.5256 3.43555 28.8675 4.23104 29.5931C5.0562 30.3449 5.47661 31.9219 5.47661 31.9219C5.47661 31.9219 3.95709 31.3091 3.48968 30.554C2.92517 29.646 2.7203 27.495 2.71484 27.428Z" fill="#BC7546"/>
<path id="path520" d="M3.33988 28.099C3.9108 28.5513 4.43068 28.8838 5.02083 29.4671C5.36552 29.807 5.6867 30.9455 5.59151 31.5256C5.58913 31.771 5.474 31.9219 5.474 31.9219C5.474 31.9219 5.05359 30.3449 4.22843 29.5931C3.43294 28.8675 2.76066 27.5256 2.71484 27.4317C2.75093 27.4779 3.0422 27.8627 3.33988 28.099Z" fill="#F9C8A9"/>
<path id="path522" d="M2.23242 31.2415C2.23337 31.2428 2.2348 31.2431 2.23598 31.2447C2.3072 31.3297 3.34292 32.5416 4.34589 33.0918C5.38588 33.6617 6.2241 35.1758 6.2241 35.1758C6.2241 35.1758 4.5085 34.9169 3.83431 34.257C3.02102 33.4637 2.25521 31.3089 2.23242 31.2415Z" fill="#BC7546"/>
<path id="path524" d="M3.05329 31.7766C3.75548 32.1013 4.37411 32.3157 5.12972 32.7698C5.57079 33.0346 6.19417 34.1232 6.24663 34.741C6.3074 34.9929 6.22835 35.1758 6.22835 35.1758C6.22835 35.1758 5.39013 33.6617 4.35014 33.0918C3.34717 32.5416 2.31145 31.3297 2.24023 31.2447C2.28914 31.2831 2.68724 31.6069 3.05329 31.7766Z" fill="#F9C8A9"/>
<path id="path526" d="M5.90549 29.7451C5.90549 29.7472 5.90667 29.7483 5.90667 29.7504C5.91522 29.8766 6.05647 31.6889 6.6224 32.8562C7.20946 34.0665 6.95688 36.0352 6.95688 36.0352C6.95688 36.0352 5.51926 34.6805 5.33861 33.6221C5.11879 32.3484 5.88056 29.8234 5.90549 29.7451Z" fill="#BC7546"/>
<path id="path528" d="M6.30578 30.7779C6.74352 31.5385 7.17865 32.1412 7.57746 33.0582C7.81082 33.5931 7.64868 35.022 7.27266 35.6375C7.15657 35.9141 6.95645 36.0352 6.95645 36.0352C6.95645 36.0352 7.20904 34.0665 6.62198 32.8562C6.05605 31.6889 5.9148 29.8766 5.90625 29.7504C5.92572 29.8186 6.07788 30.3809 6.30578 30.7779Z" fill="#F9C8A9"/>
<path id="path530" d="M2.39453 37.1855C2.39667 37.1864 2.39809 37.1857 2.39999 37.1867C2.52296 37.229 4.29411 37.821 5.62325 37.7798C7.00128 37.7366 8.7646 38.7415 8.7646 38.7415C8.7646 38.7415 6.91273 39.4851 5.8395 39.2267C4.54693 38.9176 2.45886 37.2387 2.39453 37.1855Z" fill="#BC7546"/>
<path id="path532" d="M3.53521 37.2426C4.4285 37.1539 5.17129 37.0051 6.19728 37.0132C6.79597 37.0174 8.08428 37.728 8.51798 38.3067C8.73377 38.5199 8.7689 38.7461 8.7689 38.7461C8.7689 38.7461 7.00559 37.7411 5.62755 37.7844C4.29842 37.8256 2.52726 37.2336 2.4043 37.1912C2.4767 37.2007 3.06922 37.2881 3.53521 37.2426Z" fill="#F9C8A9"/>
<path id="path534" d="M6.19141 35.2967C6.19236 35.2985 6.19402 35.299 6.19496 35.3008C6.26096 35.41 7.22546 36.9681 8.27092 37.7652C9.35507 38.5915 10.0399 40.4609 10.0399 40.4609C10.0399 40.4609 8.12849 39.8755 7.47781 39.0083C6.69229 37.9658 6.20541 35.3775 6.19141 35.2967Z" fill="#BC7546"/>
<path id="path536" d="M7.02369 36.0455C7.76648 36.5347 8.43425 36.8838 9.21478 37.5297C9.67057 37.9064 10.1864 39.254 10.1351 39.9676C10.1591 40.2656 10.0364 40.4609 10.0364 40.4609C10.0364 40.4609 9.35151 38.5915 8.26736 37.7652C7.22191 36.9681 6.2574 35.41 6.19141 35.3008C6.24031 35.3533 6.63651 35.7897 7.02369 36.0455Z" fill="#F9C8A9"/>
<path id="path538" d="M10.3581 34.9036C10.3584 34.9059 10.3593 34.9069 10.3596 34.9089C10.3698 35.0351 10.5359 36.8453 11.1175 38.0052C11.721 39.208 11.4952 41.1797 11.4952 41.1797C11.4952 41.1797 10.0393 39.8436 9.84443 38.7878C9.60704 37.5171 10.3344 34.9824 10.3581 34.9036Z" fill="#BC7546"/>
<path id="path540" d="M10.771 35.9314C11.2189 36.6862 11.6623 37.2831 12.0737 38.1948C12.3142 38.7268 12.1715 40.1576 11.8041 40.7781C11.6915 41.0563 11.4931 41.1797 11.4931 41.1797C11.4931 41.1797 11.7188 39.208 11.1154 38.0052C10.5338 36.8453 10.3676 35.0351 10.3574 34.9089C10.3778 34.9769 10.5376 35.5374 10.771 35.9314Z" fill="#F9C8A9"/>
<path id="path542" d="M13.2019 36.6029C13.2021 36.6049 13.2031 36.6061 13.2031 36.6082C13.2135 36.7344 13.3794 38.5443 13.9613 39.7045C14.5647 40.907 14.339 42.8789 14.339 42.8789C14.339 42.8789 12.8831 41.5425 12.6882 40.4868C12.4508 39.2161 13.1781 36.6814 13.2019 36.6029Z" fill="#BC7546"/>
<path id="path544" d="M13.6188 37.6306C14.0668 38.3852 14.5102 38.9821 14.9214 39.894C15.1621 40.426 15.0194 41.8567 14.652 42.4771C14.5394 42.7552 14.341 42.8789 14.341 42.8789C14.341 42.8789 14.5667 40.907 13.9633 39.7045C13.3815 38.5443 13.2155 36.7344 13.2051 36.6082C13.2257 36.6761 13.3855 37.2363 13.6188 37.6306Z" fill="#F9C8A9"/>
<path id="path546" d="M4.67773 41.3365C4.67987 41.337 4.68129 41.3362 4.68343 41.3367C4.81803 41.36 6.75345 41.6757 8.11962 41.4109C9.53587 41.1359 11.5363 41.8797 11.5363 41.8797C11.5363 41.8797 9.75498 42.9576 8.60009 42.8699C7.20947 42.7668 4.75346 41.3807 4.67773 41.3365Z" fill="#BC7546"/>
<path id="path548" d="M5.86542 41.1998C6.77272 40.9591 7.5136 40.6812 8.5752 40.5179C9.19478 40.4224 10.6521 40.9414 11.2031 41.4669C11.464 41.6509 11.5404 41.8789 11.5404 41.8789C11.5404 41.8789 9.53994 41.1351 8.12369 41.4101C6.75752 41.6749 4.8221 41.3592 4.6875 41.3359C4.76394 41.3338 5.39183 41.3248 5.86542 41.1998Z" fill="#F9C8A9"/>
<path id="path550" d="M10.3574 45.6833C10.3593 45.6829 10.3598 45.6817 10.3617 45.6813C10.4704 45.6432 12.0267 45.0833 12.9131 44.3302C13.8321 43.5493 15.6222 43.2762 15.6222 43.2762C15.6222 43.2762 14.7845 44.7951 13.8997 45.2034C12.8353 45.6965 10.4322 45.6847 10.3574 45.6833Z" fill="#BC7546"/>
<path id="path552" d="M11.1697 45.0982C11.7302 44.5506 12.1528 44.0436 12.8602 43.4897C13.2728 43.1661 14.567 42.9506 15.1992 43.1107C15.4705 43.139 15.6257 43.2746 15.6257 43.2746C15.6257 43.2746 13.8356 43.5477 12.9167 44.3286C12.0303 45.0817 10.474 45.6416 10.3652 45.6797C10.4203 45.6468 10.8768 45.3836 11.1697 45.0982Z" fill="#F9C8A9"/>
<path id="path554" d="M19.9546 18.1855C19.9529 18.186 19.9522 18.1871 19.9505 18.1878C19.8473 18.2281 18.3726 18.8209 17.5486 19.5757C16.6945 20.3584 14.9844 20.6836 14.9844 20.6836C14.9844 20.6836 15.7329 19.1944 16.568 18.7711C17.5726 18.2599 19.8826 18.1869 19.9546 18.1855Z" fill="#BC7546"/>
<path id="path556" d="M19.199 18.7762C18.6807 19.3222 18.2936 19.8242 17.6343 20.3813C17.2498 20.7066 16.0142 20.9593 15.4003 20.8278C15.1384 20.81 14.9844 20.685 14.9844 20.685C14.9844 20.685 16.6945 20.3598 17.5486 19.5771C18.3726 18.8223 19.8473 18.2295 19.9505 18.1892C19.8988 18.2226 19.4698 18.4918 19.199 18.7762Z" fill="#F9C8A9"/>
<path id="path558" d="M16.3677 17.3687C16.3667 17.37 16.367 17.3714 16.3658 17.3728C16.3057 17.4635 15.4561 18.7747 15.2341 19.8527C15.0044 20.9705 13.8032 22.1953 13.8032 22.1953C13.8032 22.1953 13.5257 20.5606 13.9544 19.7468C14.469 18.7658 16.3098 17.4101 16.3677 17.3687Z" fill="#BC7546"/>
<path id="path560" d="M16.1004 18.2726C16.0033 19.0091 15.9866 19.6357 15.7811 20.4601C15.6614 20.9414 14.8042 21.8406 14.225 22.0778C14.0009 22.2102 13.8008 22.1948 13.8008 22.1948C13.8008 22.1948 15.002 20.9699 15.2318 19.8521C15.4537 18.7742 16.3033 17.463 16.3634 17.3722C16.3411 17.4287 16.1516 17.8888 16.1004 18.2726Z" fill="#F9C8A9"/>
<path id="path562" d="M13.4957 18.6593C13.4952 18.6607 13.4957 18.6616 13.4952 18.663C13.4701 18.7464 13.1187 19.9475 13.1987 20.8302C13.2818 21.7455 12.6385 22.957 12.6385 22.957C12.6385 22.957 12.0422 21.7531 12.1839 21.0294C12.3531 20.1575 13.4608 18.7042 13.4957 18.6593Z" fill="#BC7546"/>
<path id="path564" d="M13.5042 19.4174C13.6009 20.0085 13.7345 20.497 13.7677 21.18C13.7877 21.5783 13.3343 22.4626 12.9416 22.7733C12.7992 22.925 12.6406 22.957 12.6406 22.957C12.6406 22.957 13.2839 21.7455 13.2009 20.8302C13.1209 19.9475 13.4722 18.7464 13.4974 18.663C13.4933 18.7116 13.4542 19.1091 13.5042 19.4174Z" fill="#F9C8A9"/>
<path id="path566" d="M19.3317 21.5677C19.33 21.568 19.3295 21.5689 19.3279 21.5694C19.2341 21.5926 17.8902 21.9417 17.0895 22.5024C16.2599 23.0841 14.7441 23.1758 14.7441 23.1758C14.7441 23.1758 15.5657 21.9721 16.3373 21.6988C17.2652 21.3683 19.2692 21.5608 19.3317 21.5677Z" fill="#BC7546"/>
<path id="path568" d="M18.6098 21.9946C18.0977 22.4089 17.7041 22.7997 17.0691 23.208C16.6986 23.4465 15.6013 23.528 15.0867 23.3464C14.8626 23.3021 14.7441 23.1771 14.7441 23.1771C14.7441 23.1771 16.2599 23.0854 17.0895 22.5038C17.8902 21.943 19.2341 21.5939 19.3279 21.5707C19.2792 21.5937 18.8771 21.7788 18.6098 21.9946Z" fill="#F9C8A9"/>
<path id="path570" d="M15.2262 20.7628C15.225 20.7641 15.225 20.7653 15.2238 20.7665C15.1592 20.848 14.2439 22.0277 13.9438 23.0342C13.6331 24.0783 12.3908 25.1484 12.3908 25.1484C12.3908 25.1484 12.2624 23.5738 12.7372 22.8341C13.3069 21.9425 15.1676 20.7975 15.2262 20.7628Z" fill="#BC7546"/>
<path id="path572" d="M14.9015 21.6015C14.7482 22.2935 14.6808 22.8874 14.4173 23.6547C14.2639 24.1023 13.3751 24.8901 12.8054 25.0702C12.5815 25.1787 12.3926 25.1485 12.3926 25.1485C12.3926 25.1485 13.6348 24.0784 13.9456 23.0343C14.2456 22.0277 15.161 20.848 15.2256 20.7665C15.1999 20.8183 14.9818 21.2409 14.9015 21.6015Z" fill="#F9C8A9"/>
<path id="path574" d="M16.0362 24.2079C16.0346 24.2084 16.0341 24.2095 16.0324 24.2102C15.9356 24.2524 14.5533 24.87 13.7972 25.6184C13.0133 26.3946 11.3965 26.7656 11.3965 26.7656C11.3965 26.7656 12.0529 25.3202 12.8324 24.887C13.7699 24.364 15.9676 24.2116 16.0362 24.2079Z" fill="#BC7546"/>
<path id="path576" d="M15.3388 24.7982C14.8659 25.3368 14.5162 25.8289 13.9092 26.3832C13.5555 26.707 12.3881 26.9918 11.7984 26.8887C11.5482 26.8811 11.3965 26.7676 11.3965 26.7676C11.3965 26.7676 13.0133 26.3966 13.7972 25.6203C14.5533 24.8719 15.9356 24.2543 16.0324 24.2121C15.9845 24.2458 15.5859 24.5175 15.3388 24.7982Z" fill="#F9C8A9"/>
<path id="path578" d="M9.84192 20.8626C9.84169 20.8649 9.84264 20.866 9.84264 20.8681C9.83931 20.9966 9.81296 22.8428 10.2763 24.0738C10.7573 25.3503 10.3176 27.3203 10.3176 27.3203C10.3176 27.3203 8.9897 25.8228 8.9059 24.7361C8.8024 23.4279 9.8094 20.9397 9.84192 20.8626Z" fill="#BC7546"/>
<path id="path580" d="M10.1454 21.9431C10.5172 22.7511 10.9013 23.3991 11.2194 24.3624C11.4052 24.924 11.1075 26.3557 10.6698 26.9456C10.5262 27.2155 10.3123 27.3203 10.3123 27.3203C10.3123 27.3203 10.7519 25.3503 10.271 24.0738C9.8076 22.8428 9.83396 20.9966 9.83728 20.8681C9.85058 20.9388 9.95194 21.5214 10.1454 21.9431Z" fill="#F9C8A9"/>
<path id="path582" d="M12.5905 23.2421C12.5893 23.244 12.5896 23.2454 12.5884 23.2472C12.5248 23.36 11.6253 24.9872 11.4525 26.2871C11.274 27.635 9.9491 29.1875 9.9491 29.1875C9.9491 29.1875 9.48049 27.2654 9.92156 26.263C10.4505 25.0554 12.525 23.296 12.5905 23.2421Z" fill="#BC7546"/>
<path id="path584" d="M12.3501 24.3394C12.2969 25.2228 12.3304 25.9696 12.1557 26.9665C12.0543 27.5481 11.1107 28.6864 10.442 29.0146C10.1868 29.19 9.94727 29.1875 9.94727 29.1875C9.94727 29.1875 11.2721 27.635 11.4506 26.2871C11.6235 24.9872 12.5229 23.36 12.5865 23.2472C12.5649 23.3161 12.3786 23.8786 12.3501 24.3394Z" fill="#F9C8A9"/>
<path id="path586" d="M14.0325 27.3226C14.031 27.3235 14.0308 27.3249 14.0291 27.3261C13.9406 27.3979 12.6794 28.4422 12.1146 29.444C11.5295 30.483 9.94727 31.3359 9.94727 31.3359C9.94727 31.3359 10.1946 29.6319 10.88 28.9539C11.7037 28.1364 13.9617 27.3461 14.0325 27.3226Z" fill="#BC7546"/>
<path id="path588" d="M13.4808 28.1376C13.1489 28.8381 12.9322 29.4545 12.465 30.2098C12.1927 30.6508 11.0552 31.2846 10.4054 31.3453C10.1407 31.4094 9.94727 31.3338 9.94727 31.3338C9.94727 31.3338 11.5295 30.4809 12.1146 29.4419C12.6794 28.4401 13.9406 27.3958 14.0291 27.324C13.9893 27.373 13.6543 27.7723 13.4808 28.1376Z" fill="#F9C8A9"/>
<path id="path590" d="M8.43757 26.765C8.4378 26.7666 8.43876 26.7673 8.43899 26.7686C8.46202 26.8614 8.80718 28.1895 9.38166 28.9858C9.97798 29.8113 10.0511 31.3047 10.0511 31.3047C10.0511 31.3047 8.80433 30.4778 8.52991 29.7146C8.19805 28.796 8.4295 26.8262 8.43757 26.765Z" fill="#BC7546"/>
<path id="path592" d="M8.86635 27.482C9.29223 27.9921 9.69507 28.3854 10.1126 29.0166C10.3567 29.3848 10.4255 30.466 10.2278 30.9699C10.1782 31.1898 10.0457 31.3047 10.0457 31.3047C10.0457 31.3047 9.97258 29.8113 9.37626 28.9858C8.80178 28.1895 8.45662 26.8614 8.43359 26.7686C8.45733 26.817 8.64463 27.2156 8.86635 27.482Z" fill="#F9C8A9"/>
<path id="path594" d="M12.5696 30.8233C12.5685 30.8242 12.5682 30.8254 12.567 30.8263C12.4932 30.8894 11.443 31.8045 10.9844 32.669C10.5096 33.5654 9.18164 34.3242 9.18164 34.3242C9.18164 34.3242 9.35446 32.8689 9.92276 32.2777C10.6057 31.5645 12.5101 30.8449 12.5696 30.8233Z" fill="#BC7546"/>
<path id="path596" d="M12.1181 31.5306C11.8513 32.1337 11.6806 32.6629 11.2996 33.3155C11.0777 33.6966 10.1236 34.2597 9.5719 34.3251C9.34829 34.3849 9.18164 34.3246 9.18164 34.3246C9.18164 34.3246 10.5096 33.5658 10.9844 32.6694C11.443 31.8049 12.4932 30.8898 12.567 30.8267C12.534 30.8695 12.2577 31.2163 12.1181 31.5306Z" fill="#F9C8A9"/>
<path id="path598" d="M9.32825 30.4233C9.32754 30.4253 9.32825 30.4267 9.32777 30.4288C9.29739 30.5568 8.87982 32.3979 9.08231 33.7216C9.29264 35.094 8.43567 36.9766 8.43567 36.9766C8.43567 36.9766 7.42487 35.214 7.5711 34.1105C7.74511 32.7816 9.27935 30.494 9.32825 30.4233Z" fill="#BC7546"/>
<path id="path600" d="M9.40617 31.5655C9.60676 32.4479 9.85341 33.1723 9.96736 34.1989C10.0343 34.7979 9.43323 36.1706 8.87039 36.6731C8.66955 36.9142 8.43359 36.9766 8.43359 36.9766C8.43359 36.9766 9.29056 35.094 9.08024 33.7216C8.87775 32.3979 9.29531 30.5568 9.3257 30.4288C9.32404 30.5023 9.30196 31.1051 9.40617 31.5655Z" fill="#F9C8A9"/>
<path id="path896" d="M23.3681 36.2218C22.2915 36.5302 20.2165 36.4721 18.8418 35.8935V34.1178H19.0602C20.5116 34.9686 23.2363 35.2841 23.2363 33.6505C23.2363 32.5638 21.9269 32.7273 20.79 32.7273V31.2828C21.6988 31.2828 22.6291 31.3422 22.979 30.8565C23.1164 30.6656 23.4082 29.7335 22.1337 29.5941C21.1202 29.4822 20.1557 29.748 19.2898 30.2456H19.0825V28.4913C20.8135 27.8159 24.0978 27.6243 24.9776 29.1161C25.5765 30.1339 24.9937 31.6031 23.6339 31.8857V31.9616C26.0997 32.2903 26.0783 35.4458 23.3681 36.2218Z" fill="#FFAD67"/>
</g>
</svg>
