<svg width="21" height="21" viewBox="0 0 21 21" fill="none" xmlns="http://www.w3.org/2000/svg">
<g id="formkit:hidden">
<path id="Vector" d="M10.5 14.4375C8.33438 14.4375 6.5625 12.6656 6.5625 10.5C6.5625 8.33438 8.33438 6.5625 10.5 6.5625C12.6656 6.5625 14.4375 8.33438 14.4375 10.5C14.4375 12.6656 12.6656 14.4375 10.5 14.4375ZM10.5 7.875C9.05625 7.875 7.875 9.05625 7.875 10.5C7.875 11.9437 9.05625 13.125 10.5 13.125C11.9437 13.125 13.125 11.9437 13.125 10.5C13.125 9.05625 11.9437 7.875 10.5 7.875Z" fill="#AAAAAA"/>
<path id="Vector_2" d="M10.5 17.0625C6.31309 17.0625 2.63809 14.5162 1.35184 10.71C1.29939 10.5749 1.29939 10.4251 1.35184 10.29C2.63809 6.49688 6.32622 3.9375 10.5 3.9375C14.6737 3.9375 18.3618 6.48375 19.6481 10.29C19.7006 10.4213 19.7006 10.5787 19.6481 10.71C18.3618 14.5031 14.6737 17.0625 10.5 17.0625ZM2.66434 10.5C3.83247 13.65 6.95622 15.75 10.5 15.75C14.0437 15.75 17.1543 13.65 18.3356 10.5C17.1675 7.35 14.0437 5.25 10.5 5.25C6.95622 5.25 3.84559 7.35 2.66434 10.5Z" fill="#AAAAAA"/>
<path id="Vector_3" d="M18.375 19.0327C18.2889 19.0337 18.2036 19.0167 18.1245 18.9828C18.0454 18.9489 17.9742 18.8988 17.9156 18.8358L2.16563 3.08578C1.90313 2.82328 1.90313 2.41641 2.16563 2.15391C2.42813 1.89141 2.835 1.89141 3.0975 2.15391L18.8344 17.917C19.0969 18.1795 19.0969 18.5864 18.8344 18.8489C18.7031 18.9802 18.5325 19.0458 18.375 19.0458V19.0327Z" fill="#AAAAAA"/>
</g>
</svg>
