<svg width="41" height="38" viewBox="0 0 41 38" fill="none" xmlns="http://www.w3.org/2000/svg">
<g id="fluent:people-team-20-filled">
<path id="Vector" d="M25.6266 8.55078C25.6266 9.81056 25.0866 11.0187 24.1255 11.9095C23.1644 12.8003 21.8608 13.3008 20.5016 13.3008C19.1423 13.3008 17.8388 12.8003 16.8776 11.9095C15.9165 11.0187 15.3766 9.81056 15.3766 8.55078C15.3766 7.291 15.9165 6.08282 16.8776 5.19202C17.8388 4.30123 19.1423 3.80078 20.5016 3.80078C21.8608 3.80078 23.1644 4.30123 24.1255 5.19202C25.0866 6.08282 25.6266 7.291 25.6266 8.55078ZM35.8766 9.50078C35.8766 10.5086 35.4446 11.4751 34.6757 12.1878C33.9068 12.9004 32.8639 13.3008 31.7766 13.3008C30.6892 13.3008 29.6463 12.9004 28.8774 12.1878C28.1085 11.4751 27.6766 10.5086 27.6766 9.50078C27.6766 8.49296 28.1085 7.52641 28.8774 6.81378C29.6463 6.10114 30.6892 5.70078 31.7766 5.70078C32.8639 5.70078 33.9068 6.10114 34.6757 6.81378C35.4446 7.52641 35.8766 8.49296 35.8766 9.50078ZM9.22656 13.3008C10.314 13.3008 11.3568 12.9004 12.1257 12.1878C12.8946 11.4751 13.3266 10.5086 13.3266 9.50078C13.3266 8.49296 12.8946 7.52641 12.1257 6.81378C11.3568 6.10114 10.314 5.70078 9.22656 5.70078C8.13917 5.70078 7.09632 6.10114 6.32742 6.81378C5.55853 7.52641 5.12656 8.49296 5.12656 9.50078C5.12656 10.5086 5.55853 11.4751 6.32742 12.1878C7.09632 12.9004 8.13917 13.3008 9.22656 13.3008ZM12.3016 17.5758C12.3016 16.2648 13.4496 15.2008 14.8641 15.2008H26.1391C27.5536 15.2008 28.7016 16.2648 28.7016 17.5758V26.6008C28.7016 28.6164 27.8376 30.5495 26.2998 31.9748C24.762 33.4001 22.6763 34.2008 20.5016 34.2008C18.3268 34.2008 16.2411 33.4001 14.7033 31.9748C13.1655 30.5495 12.3016 28.6164 12.3016 26.6008V17.5758ZM10.2516 17.5758C10.2516 16.6961 10.5386 15.881 11.0285 15.2008H6.66406C5.24956 15.2008 4.10156 16.2648 4.10156 17.5758V24.7008C4.10147 25.5142 4.28922 26.3182 4.6522 27.0588C5.01518 27.7994 5.54498 28.4594 6.206 28.9945C6.86702 29.5296 7.64396 29.9274 8.4846 30.1611C9.32524 30.3948 10.2101 30.459 11.0798 30.3495C10.5313 29.1652 10.2495 27.8896 10.2516 26.6008V17.5758ZM30.7516 26.6008C30.7516 27.9308 30.4564 29.2 29.9234 30.3495C30.793 30.459 31.6779 30.3948 32.5185 30.1611C33.3592 29.9274 34.1361 29.5296 34.7971 28.9945C35.4581 28.4594 35.9879 27.7994 36.3509 27.0588C36.7139 26.3182 36.9017 25.5142 36.9016 24.7008V17.5758C36.9016 16.2648 35.7536 15.2008 34.3391 15.2008H29.9746C30.4666 15.881 30.7516 16.6961 30.7516 17.5758V26.6008Z" fill="#065AD8"/>
</g>
</svg>
