<svg fill="none" height="32" viewBox="0 0 32 32" width="32" xmlns="http://www.w3.org/2000/svg"><path d="m2 11.9556c0-3.48482 0-5.2272.67818-6.55821.59655-1.17078 1.54843-2.12266 2.71921-2.71921 1.33101-.67818 3.07339-.67818 6.55821-.67818h8.0888c3.4848 0 5.2272 0 6.5582.67818 1.1708.59655 2.1227 1.54843 2.7192 2.71921.6782 1.33101.6782 3.07339.6782 6.55821v8.0888c0 3.4848 0 5.2272-.6782 6.5582-.5965 1.1708-1.5484 2.1227-2.7192 2.7192-1.331.6782-3.0734.6782-6.5582.6782h-8.0888c-3.48482 0-5.2272 0-6.55821-.6782-1.17078-.5965-2.12266-1.5484-2.71921-2.7192-.67818-1.331-.67818-3.0734-.67818-6.5582z" fill="#fff"/><path d="m5 23.5601c0 .7956.64998 1.44 1.45081 1.44h.02085c-.81309 0-1.47166-.6444-1.47166-1.44z" fill="#fbbc05"/><path d="m17.4678 12.4v3.7596l5.0686-4.0884v-3.63121c0-.79559-.65-1.43999-1.4508-1.43999h-10.9811l-.0098 5.4z" fill="#fbbc05"/><path d="m17.4671 19.9207h-7.3853l-.0086 5.0796h11.0118c.802 0 1.4508-.6444 1.4508-1.44v-3.2784l-5.0687-4.1208z" fill="#34a853"/><path d="m10.1042 7-5.1042 5.4h5.0956z" fill="#ea4335"/><path d="m5 19.9204v3.6396c0 .7956.65857 1.44 1.47166 1.44h3.60194l.0085-5.0796z" fill="#1967d2"/><path d="m10.0956 12.3999h-5.0956v7.5204h5.0821z" fill="#4285f4"/><path d="m26.9926 22.2796v-12.3599c-.2858-1.64039-2.0849.24-2.0849.24l-2.3706 1.9116v8.2091l3.3934 2.7588c1.2252.1608 1.0621-.7596 1.0621-.7596z" fill="#34a853"/><path d="m17.4678 16.1594 5.0699 4.122v-8.2091z" fill="#188038"/></svg>