<svg width="31" height="30" viewBox="0 0 31 30" fill="none" xmlns="http://www.w3.org/2000/svg">
<g id="Icon">
<path id="Vector" d="M24.5175 16.2939C24.567 15.8984 24.604 15.5029 24.604 15.0827C24.604 14.6624 24.567 14.2669 24.5175 13.8714L27.1255 11.832C27.3603 11.6466 27.4221 11.3129 27.2738 11.0409L24.8018 6.76438C24.6906 6.56662 24.4804 6.45538 24.258 6.45538C24.1838 6.45538 24.1096 6.46774 24.0478 6.49246L20.9702 7.72846C20.3275 7.23406 19.6353 6.82618 18.8814 6.51718L18.4117 3.24178C18.3746 2.94514 18.115 2.72266 17.806 2.72266H12.862C12.553 2.72266 12.2935 2.94514 12.2564 3.24178L11.7867 6.51718C11.0328 6.82618 10.3406 7.24642 9.69789 7.72846L6.62025 6.49246C6.54609 6.46774 6.47193 6.45538 6.39777 6.45538C6.18765 6.45538 5.97753 6.56662 5.86629 6.76438L3.39429 11.0409C3.23361 11.3129 3.30777 11.6466 3.54261 11.832L6.15057 13.8714C6.10113 14.2669 6.06405 14.6748 6.06405 15.0827C6.06405 15.4905 6.10113 15.8984 6.15057 16.2939L3.54261 18.3333C3.30777 18.5187 3.24597 18.8525 3.39429 19.1244L5.86629 23.4009C5.97753 23.5987 6.18765 23.7099 6.41013 23.7099C6.48429 23.7099 6.55845 23.6976 6.62025 23.6729L9.69789 22.4369C10.3406 22.9313 11.0328 23.3391 11.7867 23.6481L12.2564 26.9235C12.2935 27.2202 12.553 27.4427 12.862 27.4427H17.806C18.115 27.4427 18.3746 27.2202 18.4117 26.9235L18.8814 23.6481C19.6353 23.3391 20.3275 22.9189 20.9702 22.4369L24.0478 23.6729C24.122 23.6976 24.1962 23.7099 24.2703 23.7099C24.4804 23.7099 24.6906 23.5987 24.8018 23.4009L27.2738 19.1244C27.4221 18.8525 27.3603 18.5187 27.1255 18.3333L24.5175 16.2939ZM22.0702 14.1804C22.1197 14.5635 22.132 14.8231 22.132 15.0827C22.132 15.3422 22.1073 15.6141 22.0702 15.9849L21.8972 17.3816L22.9972 18.2468L24.3321 19.2851L23.4669 20.7806L21.8972 20.1503L20.6118 19.6311L19.4994 20.4716C18.9679 20.8671 18.4611 21.1638 17.9544 21.3739L16.6442 21.9054L16.4464 23.3021L16.1992 24.9707H14.4688L14.234 23.3021L14.0362 21.9054L12.7261 21.3739C12.1946 21.1514 11.7002 20.8671 11.2058 20.4963L10.081 19.6311L8.77089 20.1626L7.20117 20.793L6.33597 19.2974L7.67085 18.2592L8.77089 17.394L8.59785 15.9973C8.56077 15.6141 8.53605 15.3299 8.53605 15.0827C8.53605 14.8355 8.56077 14.5512 8.59785 14.1804L8.77089 12.7837L7.67085 11.9185L6.33597 10.8803L7.20117 9.3847L8.77089 10.0151L10.0563 10.5342L11.1687 9.6937C11.7002 9.29818 12.207 9.00154 12.7137 8.79142L14.0239 8.25994L14.2216 6.86326L14.4688 5.19466H16.1869L16.4217 6.86326L16.6195 8.25994L17.9296 8.79142C18.4611 9.0139 18.9555 9.29818 19.4499 9.66898L20.5747 10.5342L21.8848 10.0027L23.4546 9.37234L24.3198 10.8679L22.9972 11.9185L21.8972 12.7837L22.0702 14.1804ZM15.334 10.1387C12.6025 10.1387 10.39 12.3511 10.39 15.0827C10.39 17.8142 12.6025 20.0267 15.334 20.0267C18.0656 20.0267 20.278 17.8142 20.278 15.0827C20.278 12.3511 18.0656 10.1387 15.334 10.1387ZM15.334 17.5547C13.9744 17.5547 12.862 16.4423 12.862 15.0827C12.862 13.7231 13.9744 12.6107 15.334 12.6107C16.6936 12.6107 17.806 13.7231 17.806 15.0827C17.806 16.4423 16.6936 17.5547 15.334 17.5547Z" fill="white"/>
</g>
</svg>
