<svg width="31" height="31" viewBox="0 0 31 31" fill="none" xmlns="http://www.w3.org/2000/svg">
<g id="Icon">
<path id="Vector" d="M24.373 16.4033C24.4224 16.0078 24.4595 15.6123 24.4595 15.192C24.4595 14.7718 24.4224 14.3763 24.373 13.9808L26.981 11.9414C27.2158 11.756 27.2776 11.4222 27.1293 11.1503L24.6573 6.87375C24.546 6.67599 24.3359 6.56475 24.1134 6.56475C24.0393 6.56475 23.9651 6.57711 23.9033 6.60183L20.8257 7.83783C20.183 7.34343 19.4908 6.93555 18.7368 6.62655L18.2672 3.35115C18.2301 3.05451 17.9705 2.83203 17.6615 2.83203H12.7175C12.4085 2.83203 12.149 3.05451 12.1119 3.35115L11.6422 6.62655C10.8882 6.93555 10.1961 7.35579 9.55336 7.83783L6.47572 6.60183C6.40156 6.57711 6.3274 6.56475 6.25324 6.56475C6.04312 6.56475 5.833 6.67599 5.72176 6.87375L3.24976 11.1503C3.08908 11.4222 3.16324 11.756 3.39808 11.9414L6.00604 13.9808C5.9566 14.3763 5.91952 14.7842 5.91952 15.192C5.91952 15.5999 5.9566 16.0078 6.00604 16.4033L3.39808 18.4427C3.16324 18.6281 3.10144 18.9618 3.24976 19.2338L5.72176 23.5103C5.833 23.7081 6.04312 23.8193 6.2656 23.8193C6.33976 23.8193 6.41392 23.807 6.47572 23.7822L9.55336 22.5462C10.1961 23.0406 10.8882 23.4485 11.6422 23.7575L12.1119 27.0329C12.149 27.3296 12.4085 27.552 12.7175 27.552H17.6615C17.9705 27.552 18.2301 27.3296 18.2672 27.0329L18.7368 23.7575C19.4908 23.4485 20.183 23.0283 20.8257 22.5462L23.9033 23.7822C23.9775 23.807 24.0516 23.8193 24.1258 23.8193C24.3359 23.8193 24.546 23.7081 24.6573 23.5103L27.1293 19.2338C27.2776 18.9618 27.2158 18.6281 26.981 18.4427L24.373 16.4033ZM21.9257 14.2898C21.9752 14.6729 21.9875 14.9325 21.9875 15.192C21.9875 15.4516 21.9628 15.7235 21.9257 16.0943L21.7527 17.491L22.8527 18.3562L24.1876 19.3944L23.3224 20.89L21.7527 20.2596L20.4672 19.7405L19.3548 20.581C18.8234 20.9765 18.3166 21.2732 17.8098 21.4833L16.4997 22.0148L16.3019 23.4114L16.0547 25.08H14.3243L14.0895 23.4114L13.8917 22.0148L12.5816 21.4833C12.0501 21.2608 11.5557 20.9765 11.0613 20.6057L9.93652 19.7405L8.62636 20.272L7.05664 20.9024L6.19144 19.4068L7.52632 18.3686L8.62636 17.5034L8.45332 16.1067C8.41624 15.7235 8.39152 15.4392 8.39152 15.192C8.39152 14.9448 8.41624 14.6606 8.45332 14.2898L8.62636 12.8931L7.52632 12.0279L6.19144 10.9896L7.05664 9.49407L8.62636 10.1244L9.9118 10.6436L11.0242 9.80307C11.5557 9.40755 12.0624 9.11091 12.5692 8.90079L13.8794 8.36931L14.0771 6.97263L14.3243 5.30403H16.0424L16.2772 6.97263L16.475 8.36931L17.7851 8.90079C18.3166 9.12327 18.811 9.40755 19.3054 9.77835L20.4302 10.6436L21.7403 10.1121L23.31 9.48171L24.1752 10.9773L22.8527 12.0279L21.7527 12.8931L21.9257 14.2898ZM15.1895 10.248C12.458 10.248 10.2455 12.4605 10.2455 15.192C10.2455 17.9236 12.458 20.136 15.1895 20.136C17.9211 20.136 20.1335 17.9236 20.1335 15.192C20.1335 12.4605 17.9211 10.248 15.1895 10.248ZM15.1895 17.664C13.8299 17.664 12.7175 16.5516 12.7175 15.192C12.7175 13.8324 13.8299 12.72 15.1895 12.72C16.5491 12.72 17.6615 13.8324 17.6615 15.192C17.6615 16.5516 16.5491 17.664 15.1895 17.664Z" fill="#8F8F8F"/>
</g>
</svg>
