<svg width="72" height="72" viewBox="0 0 72 72" fill="none" xmlns="http://www.w3.org/2000/svg">
<g id="fluent:image-add-24-regular">
<path id="Vector" d="M54.25 9C55.5304 9 56.7982 9.25219 57.9812 9.74218C59.1641 10.2322 60.2389 10.9503 61.1443 11.8557C62.0497 12.7611 62.7678 13.8359 63.2578 15.0188C63.7478 16.2018 64 17.4696 64 18.75V53.25C64 54.5304 63.7478 55.7982 63.2578 56.9812C62.7678 58.1641 62.0497 59.2389 61.1443 60.1443C60.2389 61.0497 59.1641 61.7678 57.9812 62.2578C56.7982 62.7478 55.5304 63 54.25 63H19.75C18.4696 63 17.2018 62.7478 16.0188 62.2578C14.8359 61.7678 13.7611 61.0497 12.8557 60.1443C11.9503 59.2389 11.2322 58.1641 10.7422 56.9812C10.2522 55.7982 10 54.5304 10 53.25V34.506C11.422 35.1 12.931 35.526 14.5 35.772V53.25C14.5 53.874 14.608 54.474 14.809 55.032L32.278 37.929C33.4755 36.7567 35.0663 36.0717 36.7409 36.0074C38.4155 35.9431 40.0541 36.504 41.338 37.581L41.722 37.929L59.188 55.035C59.389 54.477 59.5 53.877 59.5 53.25V18.75C59.5 17.3576 58.9469 16.0223 57.9623 15.0377C56.9777 14.0531 55.6424 13.5 54.25 13.5H36.772C36.5332 11.9544 36.1081 10.4434 35.506 9H54.25ZM35.677 40.932L35.425 41.142L18.004 58.203C18.55 58.395 19.138 58.5 19.75 58.5H54.25C54.859 58.5 55.447 58.395 55.99 58.203L38.575 41.145C38.1951 40.7726 37.6955 40.5469 37.165 40.5079C36.6345 40.4689 36.1073 40.6192 35.677 40.932ZM46.756 19.5C48.5478 19.5 50.2662 20.2118 51.5332 21.4788C52.8002 22.7458 53.512 24.4642 53.512 26.256C53.512 28.0478 52.8002 29.7662 51.5332 31.0332C50.2662 32.3002 48.5478 33.012 46.756 33.012C44.9642 33.012 43.2458 32.3002 41.9788 31.0332C40.7118 29.7662 40 28.0478 40 26.256C40 24.4642 40.7118 22.7458 41.9788 21.4788C43.2458 20.2118 44.9642 19.5 46.756 19.5ZM17.5 0C19.6668 -3.2288e-08 21.8124 0.426785 23.8143 1.25599C25.8162 2.08519 27.6351 3.30057 29.1673 4.83274C30.6994 6.3649 31.9148 8.18385 32.744 10.1857C33.5732 12.1876 34 14.3332 34 16.5C34 18.6668 33.5732 20.8124 32.744 22.8143C31.9148 24.8162 30.6994 26.6351 29.1673 28.1673C27.6351 29.6994 25.8162 30.9148 23.8143 31.744C21.8124 32.5732 19.6668 33 17.5 33C13.1239 33 8.92709 31.2616 5.83274 28.1673C2.73839 25.0729 1 20.8761 1 16.5C1 12.1239 2.73839 7.92709 5.83274 4.83274C8.92709 1.73839 13.1239 6.52086e-08 17.5 0ZM46.756 24C46.4597 24 46.1664 24.0584 45.8927 24.1717C45.619 24.2851 45.3703 24.4513 45.1608 24.6608C44.9513 24.8703 44.7851 25.119 44.6717 25.3927C44.5584 25.6664 44.5 25.9597 44.5 26.256C44.5 26.5523 44.5584 26.8456 44.6717 27.1193C44.7851 27.393 44.9513 27.6417 45.1608 27.8512C45.3703 28.0607 45.619 28.2269 45.8927 28.3403C46.1664 28.4536 46.4597 28.512 46.756 28.512C47.3543 28.512 47.9282 28.2743 48.3512 27.8512C48.7743 27.4282 49.012 26.8543 49.012 26.256C49.012 25.6577 48.7743 25.0838 48.3512 24.6608C47.9282 24.2377 47.3543 24 46.756 24ZM17.5 6L17.23 6.021C16.9303 6.07576 16.6544 6.22048 16.4389 6.43592C16.2235 6.65135 16.0788 6.92729 16.024 7.227L16 7.5V15H8.494L8.224 15.024C7.92429 15.0788 7.64835 15.2235 7.43292 15.4389C7.21748 15.6544 7.07276 15.9303 7.018 16.23L6.994 16.5L7.018 16.77C7.07276 17.0697 7.21748 17.3456 7.43292 17.5611C7.64835 17.7765 7.92429 17.9212 8.224 17.976L8.494 18H16V25.509L16.024 25.779C16.0788 26.0787 16.2235 26.3546 16.4389 26.5701C16.6544 26.7855 16.9303 26.9302 17.23 26.985L17.5 27.012L17.77 26.985C18.0697 26.9302 18.3456 26.7855 18.5611 26.5701C18.7765 26.3546 18.9212 26.0787 18.976 25.779L19 25.509V18H26.515L26.785 17.976C27.0847 17.9212 27.3606 17.7765 27.5761 17.5611C27.7915 17.3456 27.9362 17.0697 27.991 16.77L28.015 16.5L27.991 16.23C27.9361 15.9299 27.7909 15.6536 27.5749 15.4382C27.3589 15.2227 27.0823 15.0782 26.782 15.024L26.512 15H19V7.5L18.976 7.23C18.9218 6.92974 18.7773 6.65315 18.5618 6.43713C18.3464 6.22112 18.0701 6.07595 17.77 6.021L17.5 6Z" fill="#8F8F8F"/>
</g>
</svg>
