<svg width="106" height="106" viewBox="0 0 106 106" fill="none" xmlns="http://www.w3.org/2000/svg">
<g id="fluent:image-add-24-regular">
<path id="Vector" d="M82.8099 17.668C84.6949 17.668 86.5615 18.0393 88.303 18.7606C90.0445 19.482 91.6269 20.5393 92.9598 21.8722C94.2927 23.2051 95.3501 24.7875 96.0714 26.529C96.7928 28.2706 97.1641 30.1371 97.1641 32.0221V82.8138C97.1641 84.6988 96.7928 86.5654 96.0714 88.3069C95.3501 90.0484 94.2927 91.6308 92.9598 92.9637C91.6269 94.2966 90.0445 95.354 88.303 96.0753C86.5615 96.7967 84.6949 97.168 82.8099 97.168H32.0182C30.1332 97.168 28.2667 96.7967 26.5251 96.0753C24.7836 95.354 23.2012 94.2966 21.8683 92.9637C20.5354 91.6308 19.4781 90.0484 18.7567 88.3069C18.0353 86.5654 17.6641 84.6988 17.6641 82.8138V55.2185C19.7576 56.093 21.9791 56.7201 24.2891 57.0823V82.8138C24.2891 83.7325 24.4481 84.6158 24.744 85.4373L50.4622 60.2579C52.2252 58.532 54.5672 57.5236 57.0326 57.4289C59.4979 57.3342 61.9104 58.16 63.8006 59.7456L64.3659 60.2579L90.0797 85.4417C90.3756 84.6202 90.5391 83.7369 90.5391 82.8138V32.0221C90.5391 29.9722 89.7247 28.0063 88.2752 26.5568C86.8257 25.1073 84.8598 24.293 82.8099 24.293H57.0784C56.7268 22.0175 56.101 19.793 55.2146 17.668H82.8099ZM55.4663 64.679L55.0953 64.9881L29.4477 90.1057C30.2516 90.3884 31.1172 90.543 32.0182 90.543H82.8099C83.7065 90.543 84.5721 90.3884 85.3716 90.1057L59.7328 64.9925C59.1735 64.4444 58.438 64.1121 57.657 64.0547C56.8759 63.9972 56.0998 64.2184 55.4663 64.679ZM71.7771 33.1263C74.415 33.1263 76.9449 34.1742 78.8102 36.0395C80.6755 37.9048 81.7234 40.4347 81.7234 43.0726C81.7234 45.7106 80.6755 48.2405 78.8102 50.1058C76.9449 51.9711 74.415 53.019 71.7771 53.019C69.1391 53.019 66.6092 51.9711 64.7439 50.1058C62.8786 48.2405 61.8307 45.7106 61.8307 43.0726C61.8307 40.4347 62.8786 37.9048 64.7439 36.0395C66.6092 34.1742 69.1391 33.1263 71.7771 33.1263ZM28.7057 4.41797C31.8958 4.41797 35.0545 5.04629 38.0017 6.26706C40.9489 7.48783 43.6268 9.27714 45.8825 11.5328C48.1382 13.7885 49.9275 16.4664 51.1483 19.4136C52.3691 22.3608 52.9974 25.5196 52.9974 28.7096C52.9974 31.8997 52.3691 35.0585 51.1483 38.0057C49.9275 40.9529 48.1382 43.6307 45.8825 45.8864C43.6268 48.1421 40.9489 49.9314 38.0017 51.1522C35.0545 52.373 31.8958 53.0013 28.7057 53.0013C22.2632 53.0013 16.0845 50.442 11.5289 45.8864C6.97336 41.3309 4.41406 35.1522 4.41406 28.7096C4.41406 22.2671 6.97336 16.0884 11.5289 11.5328C16.0845 6.97726 22.2632 4.41797 28.7057 4.41797ZM71.7771 39.7513C71.3409 39.7513 70.909 39.8372 70.506 40.0041C70.1031 40.171 69.7369 40.4157 69.4285 40.7241C69.1201 41.0325 68.8755 41.3987 68.7085 41.8016C68.5416 42.2046 68.4557 42.6365 68.4557 43.0726C68.4557 43.5088 68.5416 43.9407 68.7085 44.3437C68.8755 44.7466 69.1201 45.1128 69.4285 45.4212C69.7369 45.7296 70.1031 45.9742 70.506 46.1411C70.909 46.3081 71.3409 46.394 71.7771 46.394C72.6579 46.394 73.5027 46.044 74.1256 45.4212C74.7485 44.7983 75.0984 43.9535 75.0984 43.0726C75.0984 42.1918 74.7485 41.347 74.1256 40.7241C73.5027 40.1012 72.6579 39.7513 71.7771 39.7513ZM28.7057 13.2513L28.3082 13.2822C27.867 13.3628 27.4607 13.5759 27.1436 13.8931C26.8264 14.2102 26.6133 14.6165 26.5327 15.0577L26.4974 15.4596V26.5013H15.4469L15.0494 26.5366C14.6082 26.6172 14.2019 26.8303 13.8847 27.1475C13.5676 27.4647 13.3545 27.8709 13.2739 28.3121L13.2386 28.7096L13.2739 29.1071C13.3545 29.5484 13.5676 29.9546 13.8847 30.2718C14.2019 30.589 14.6082 30.802 15.0494 30.8826L15.4469 30.918H26.4974V41.9729L26.5327 42.3704C26.6133 42.8116 26.8264 43.2179 27.1436 43.535C27.4607 43.8522 27.867 44.0653 28.3082 44.1459L28.7057 44.1856L29.1032 44.1459C29.5445 44.0653 29.9507 43.8522 30.2679 43.535C30.585 43.2179 30.7981 42.8116 30.8787 42.3704L30.9141 41.9729V30.918H41.9778L42.3753 30.8826C42.8166 30.802 43.2228 30.589 43.54 30.2718C43.8571 29.9546 44.0702 29.5484 44.1508 29.1071L44.1861 28.7096L44.1508 28.3121C44.0699 27.8703 43.8562 27.4636 43.5382 27.1464C43.2201 26.8291 42.8129 26.6164 42.3709 26.5366L41.9734 26.5013H30.9141V15.4596L30.8787 15.0621C30.7989 14.6201 30.5862 14.2129 30.269 13.8949C29.9518 13.5768 29.5451 13.3631 29.1032 13.2822L28.7057 13.2513Z" fill="white"/>
</g>
</svg>
