<svg width="22" height="22" viewBox="0 0 22 22" fill="none" xmlns="http://www.w3.org/2000/svg">
<g id="Interface essential/Pen">
<path id="Icon" fill-rule="evenodd" clip-rule="evenodd" d="M2.47799 13.8937L1.78132 18.7337C1.72534 19.1414 1.86406 19.5517 2.15594 19.8418C2.44782 20.1318 2.85899 20.268 3.26632 20.2095L8.10632 19.5128C8.76238 19.4224 9.37083 19.1198 9.83882 18.6512L18.7672 9.71368C19.9586 8.56292 20.4365 6.85882 20.017 5.25636C19.5976 3.65389 18.3461 2.40243 16.7436 1.98299C15.1412 1.56354 13.4371 2.04138 12.2863 3.23285L3.33965 12.1612C2.87105 12.6292 2.56844 13.2376 2.47799 13.8937ZM12.1855 10.7862C11.9171 11.0543 11.4822 11.0543 11.2138 10.7862C10.9457 10.5178 10.9457 10.0829 11.2138 9.81451L15.073 5.95535C15.3439 5.70293 15.766 5.71038 16.0278 5.97219C16.2896 6.234 16.2971 6.65613 16.0447 6.92701L12.1855 10.7862Z" fill="#EBEBEB"/>
</g>
</svg>
