<svg width="24" height="24" viewBox="0 0 24 24" fill="none" xmlns="http://www.w3.org/2000/svg">
<g id="&#240;&#159;&#166;&#134; icon &#34;person rotation bold&#34;">
<path id="Vector" d="M12 7.27674e-05C14.7694 7.27674e-05 17.0144 2.27345 17.0144 5.07782C17.0144 7.88219 14.7694 10.1555 12 10.1555C9.23057 10.1555 6.98553 7.88215 6.98553 5.07778C6.98902 2.27481 9.23199 0.00349031 11.9997 0H12V7.27674e-05ZM12 8.08727C13.6413 8.08727 14.9719 6.73992 14.9719 5.07785C14.9719 3.41578 13.6413 2.06842 12 2.06842C10.3586 2.06842 9.02807 3.41578 9.02807 5.07785C9.02982 6.73919 10.3594 8.0855 11.9998 8.08727H12ZM14.0589 21.1984L13.9251 19.1301C16.134 19.0286 18.2073 18.5638 20.1283 17.7936L19.9986 17.8395C21.4447 17.2066 21.9574 16.5561 21.9574 16.19C21.9574 15.6016 20.6798 14.405 17.2493 13.6976L17.6579 11.6707C21.6888 12.498 24 14.1527 24 16.19C24 17.1714 23.4465 18.5841 20.8085 19.7372C18.8194 20.5522 16.5164 21.0778 14.1078 21.1966L14.0589 21.1984ZM10.945 21.2522C8.27136 21.2101 5.72627 20.708 3.36588 19.8208L3.52338 19.8726C0.611737 18.6947 0 17.2189 0 16.1951C0 14.1547 2.31216 12.5072 6.34213 11.6758L6.75064 13.7028C3.32119 14.4101 2.04257 15.6066 2.04257 16.1951C2.04257 16.6191 2.736 17.3265 4.28323 17.9532C6.28205 18.703 8.59062 19.1513 10.9983 19.1837L11.0124 19.1838L10.945 21.2522ZM8.73189 24L7.28471 22.5377L9.55505 20.2387L7.28471 17.9429L8.73189 16.4775L12.4463 20.2388L8.73189 24ZM7.03659 16.2158H4.99404V15.1817V15.1698C4.99404 11.2517 8.13071 8.07535 12 8.07535C15.8652 8.07535 18.9993 11.2448 19.006 15.1572V16.1921H16.9634V15.1578C16.9576 12.3865 14.7376 10.1421 12 10.1421C9.25879 10.1421 7.03661 12.3923 7.03661 15.1681V15.1791V15.1785L7.03659 16.2158Z" fill="white"/>
</g>
</svg>
