<svg width="34" height="34" viewBox="0 0 34 34" fill="none" xmlns="http://www.w3.org/2000/svg">
<g id="Interface essential/Filter">
<g id="Icon">
<path d="M5.66667 10.4695H14.1667C14.9491 10.4695 15.5833 9.83522 15.5833 9.05282C15.5833 8.27042 14.9491 7.63615 14.1667 7.63615H5.66667C4.88426 7.63615 4.25 8.27042 4.25 9.05282C4.25 9.83522 4.88426 10.4695 5.66667 10.4695Z" fill="#808080"/>
<path d="M5.66667 18.8137H8.5C9.15666 20.1225 10.6267 20.8086 12.0516 20.4711C13.4766 20.1337 14.4829 18.8613 14.4829 17.397C14.4829 15.9326 13.4766 14.6602 12.0516 14.3228C10.6267 13.9854 9.15666 14.6715 8.5 15.9803H5.66667C4.88426 15.9803 4.25 16.6146 4.25 17.397C4.25 18.1794 4.88426 18.8137 5.66667 18.8137Z" fill="#808080"/>
<path d="M19.4367 11.9853C20.533 11.9837 21.5486 11.4087 22.1142 10.4695H28.3333C29.1157 10.4695 29.75 9.83522 29.75 9.05282C29.75 8.27042 29.1157 7.63615 28.3333 7.63615H22.355C21.7565 6.1642 20.1577 5.36588 18.6215 5.77183C17.0852 6.17777 16.0895 7.66163 16.2962 9.23712C16.5029 10.8126 17.8477 11.9894 19.4367 11.9853Z" fill="#808080"/>
<path d="M14.1667 24.7778H5.66667C4.88426 24.7778 4.25 25.4121 4.25 26.1945C4.25 26.9769 4.88426 27.6112 5.66667 27.6112H14.1667C14.9491 27.6112 15.5833 26.9769 15.5833 26.1945C15.5833 25.4121 14.9491 24.7778 14.1667 24.7778Z" fill="#808080"/>
<path d="M28.3333 24.7778H22.7517C22.1997 23.414 20.7827 22.6084 19.3285 22.8316C17.8742 23.0549 16.7642 24.2486 16.6469 25.7152C16.5295 27.1818 17.4357 28.5367 18.8359 28.9883C20.2362 29.44 21.7633 28.8699 22.525 27.6112H28.3333C29.1157 27.6112 29.75 26.9769 29.75 26.1945C29.75 25.4121 29.1157 24.7778 28.3333 24.7778Z" fill="#808080"/>
<path d="M28.3333 15.9803H17C16.2176 15.9803 15.5833 16.6146 15.5833 17.397C15.5833 18.1794 16.2176 18.8137 17 18.8137H28.3333C29.1157 18.8137 29.75 18.1794 29.75 17.397C29.75 16.6146 29.1157 15.9803 28.3333 15.9803Z" fill="#808080"/>
</g>
</g>
</svg>
