<svg width="57" height="58" viewBox="0 0 57 58" fill="none" xmlns="http://www.w3.org/2000/svg">
<g id="devices/joystick">
<path id="Icon" fill-rule="evenodd" clip-rule="evenodd" d="M30.1417 21.2969H47.1646C51.0548 21.2969 54.2085 24.5032 54.2085 28.4582V42.7808C54.2085 46.7359 51.0548 49.9421 47.1646 49.9421H9.59691C5.70665 49.9421 2.55298 46.7359 2.55298 42.7808V28.4582C2.55298 24.5032 5.70665 21.2969 9.59691 21.2969H26.6197V16.4034C26.6197 14.0963 28.4594 12.226 30.7287 12.226C31.0529 12.226 31.3157 11.9588 31.3157 11.6292C31.3157 10.6404 32.1041 9.83887 33.0767 9.83887C34.0493 9.83887 34.8377 10.6404 34.8377 11.6292C34.8377 12.7371 34.4048 13.7997 33.6342 14.5831C32.8636 15.3665 31.8185 15.8066 30.7287 15.8066C30.4045 15.8066 30.1417 16.0738 30.1417 16.4034V21.2969ZM18.4018 37.4098H21.3368C22.3094 37.4098 23.0978 36.6083 23.0978 35.6195C23.0978 34.6307 22.3094 33.8292 21.3368 33.8292H18.4018V30.8453C18.4018 29.8566 17.6134 29.055 16.6408 29.055C15.6683 29.055 14.8799 29.8566 14.8799 30.8453V33.8292H11.9449C10.9723 33.8292 10.1839 34.6307 10.1839 35.6195C10.1839 36.6083 10.9723 37.4098 11.9449 37.4098H14.8799V40.3937C14.8799 41.3825 15.6683 42.184 16.6408 42.184C17.6134 42.184 18.4018 41.3825 18.4018 40.3937V37.4098ZM37.7726 28.4582C39.0694 28.4582 40.1206 29.527 40.1206 30.8453C40.1206 32.1637 39.0694 33.2324 37.7726 33.2324C36.4759 33.2324 35.4247 32.1637 35.4247 30.8453C35.4247 29.527 36.4759 28.4582 37.7726 28.4582ZM30.7287 35.6195C30.7287 36.9379 31.7799 38.0066 33.0767 38.0066C34.3734 38.0066 35.4247 36.9379 35.4247 35.6195C35.4247 34.3012 34.3734 33.2324 33.0767 33.2324C31.7799 33.2324 30.7287 34.3012 30.7287 35.6195ZM37.7726 42.7808C36.4759 42.7808 35.4247 41.7121 35.4247 40.3937C35.4247 39.0753 36.4759 38.0066 37.7726 38.0066C39.0694 38.0066 40.1206 39.0753 40.1206 40.3937C40.1206 41.7121 39.0694 42.7808 37.7726 42.7808ZM40.1206 35.6195C40.1206 36.9379 41.1718 38.0066 42.4686 38.0066C43.7654 38.0066 44.8166 36.9379 44.8166 35.6195C44.8166 34.3012 43.7654 33.2324 42.4686 33.2324C41.1718 33.2324 40.1206 34.3012 40.1206 35.6195Z" fill="#0551E6"/>
</g>
</svg>
