<svg width="24" height="25" viewBox="0 0 24 25" fill="none" xmlns="http://www.w3.org/2000/svg">
<g id="message-circle">
<path id="Vector" d="M21 12.4591C21.0034 13.7759 20.6951 15.0749 20.1 16.2502C19.3944 17.6587 18.3098 18.8433 16.9674 19.6715C15.6251 20.4996 14.0782 20.9386 12.5 20.9392C11.1801 20.9427 9.87812 20.635 8.7 20.0413L3 21.9369L4.9 16.2502C4.30493 15.0749 3.99656 13.7759 4 12.4591C4.00061 10.8846 4.44061 9.3413 5.27072 8.00214C6.10083 6.66298 7.28825 5.58084 8.7 4.87692C9.87812 4.28325 11.1801 3.9756 12.5 3.97903H13C15.0843 4.09375 17.053 4.97146 18.5291 6.4441C20.0052 7.91675 20.885 9.88083 21 11.9603V12.4591Z" stroke="white" stroke-width="2" stroke-linecap="round" stroke-linejoin="round"/>
</g>
</svg>
