<svg width="30" height="30" viewBox="0 0 30 30" fill="none" xmlns="http://www.w3.org/2000/svg">
<g id="Interface essential/Sync-retry">
<g id="Icon">
<path id="Path" d="M19.6998 8.30469C19.182 8.30469 18.7623 8.72442 18.7623 9.24219C18.7623 9.75995 19.182 10.1797 19.6998 10.1797C21.9398 10.1933 23.7543 12.0022 23.7748 14.2422V16.7422C23.7543 18.9822 21.9398 20.7911 19.6998 20.8047H16.9248L18.6373 19.1047C19.0028 18.7387 19.0028 18.1457 18.6373 17.7797C18.4632 17.601 18.2242 17.5002 17.9748 17.5002C17.7253 17.5002 17.4864 17.601 17.3123 17.7797L13.9998 21.0797C13.915 21.1664 13.8472 21.2681 13.7998 21.3797C13.7126 21.6135 13.7126 21.8709 13.7998 22.1047C13.8472 22.2163 13.915 22.318 13.9998 22.4047L17.3123 25.7047C17.6783 26.0703 18.2712 26.0703 18.6373 25.7047C19.0028 25.3387 19.0028 24.7457 18.6373 24.3797L16.9248 22.6797H19.6998C22.9753 22.666 25.6292 20.0177 25.6498 16.7422V14.2422C25.6292 10.9667 22.9753 8.31833 19.6998 8.30469Z" fill="#737373"/>
<path id="Path_2" d="M15.6 9.60446C15.6872 9.37066 15.6872 9.11327 15.6 8.87946C15.5482 8.77032 15.4808 8.66927 15.4 8.57946L12.0875 5.27946C11.9134 5.10078 11.6745 5 11.425 5C11.1755 5 10.9366 5.10078 10.7625 5.27946C10.3969 5.64548 10.3969 6.23844 10.7625 6.60446L12.475 8.30446H9.7C6.42444 8.3181 3.77053 10.9664 3.75 14.242V16.742C3.77053 20.0175 6.42444 22.6658 9.7 22.6795C10.2178 22.6795 10.6375 22.2597 10.6375 21.742C10.6375 21.2242 10.2178 20.8045 9.7 20.8045C7.45995 20.7909 5.64545 18.982 5.625 16.742V14.242C5.64545 12.002 7.45995 10.193 9.7 10.1795H12.4625L10.7625 11.8795C10.3969 12.2455 10.3969 12.8384 10.7625 13.2045C11.1285 13.57 11.7215 13.57 12.0875 13.2045L15.4 9.90446C15.4808 9.81465 15.5482 9.7136 15.6 9.60446Z" fill="#737373"/>
</g>
</g>
</svg>
