<svg width="14" height="14" viewBox="0 0 14 14" fill="none" xmlns="http://www.w3.org/2000/svg">
<g id="u:trash-alt">
<path id="Vector" d="M6.13324 10.3004C6.27468 10.3004 6.41034 10.2442 6.51036 10.1442C6.61038 10.0442 6.66657 9.90854 6.66657 9.76709V6.56709C6.66657 6.42564 6.61038 6.28999 6.51036 6.18997C6.41034 6.08995 6.27468 6.03376 6.13324 6.03376C5.99179 6.03376 5.85613 6.08995 5.75611 6.18997C5.65609 6.28999 5.5999 6.42564 5.5999 6.56709V9.76709C5.5999 9.90854 5.65609 10.0442 5.75611 10.1442C5.85613 10.2442 5.99179 10.3004 6.13324 10.3004ZM11.4666 3.90042H9.33324V3.36709C9.33324 2.94274 9.16467 2.53578 8.86461 2.23572C8.56455 1.93566 8.15758 1.76709 7.73324 1.76709H6.66657C6.24222 1.76709 5.83526 1.93566 5.5352 2.23572C5.23514 2.53578 5.06657 2.94274 5.06657 3.36709V3.90042H2.93324C2.79179 3.90042 2.65613 3.95661 2.55611 4.05663C2.45609 4.15665 2.3999 4.29231 2.3999 4.43376C2.3999 4.57521 2.45609 4.71086 2.55611 4.81088C2.65613 4.9109 2.79179 4.96709 2.93324 4.96709H3.46657V10.8338C3.46657 11.2581 3.63514 11.6651 3.9352 11.9651C4.23526 12.2652 4.64222 12.4338 5.06657 12.4338H9.33324C9.75758 12.4338 10.1645 12.2652 10.4646 11.9651C10.7647 11.6651 10.9332 11.2581 10.9332 10.8338V4.96709H11.4666C11.608 4.96709 11.7437 4.9109 11.8437 4.81088C11.9437 4.71086 11.9999 4.57521 11.9999 4.43376C11.9999 4.29231 11.9437 4.15665 11.8437 4.05663C11.7437 3.95661 11.608 3.90042 11.4666 3.90042ZM6.13324 3.36709C6.13324 3.22564 6.18943 3.08999 6.28945 2.98997C6.38947 2.88995 6.52512 2.83376 6.66657 2.83376H7.73324C7.87468 2.83376 8.01034 2.88995 8.11036 2.98997C8.21038 3.08999 8.26657 3.22564 8.26657 3.36709V3.90042H6.13324V3.36709ZM9.86657 10.8338C9.86657 10.9752 9.81038 11.1109 9.71036 11.2109C9.61034 11.3109 9.47468 11.3671 9.33324 11.3671H5.06657C4.92512 11.3671 4.78947 11.3109 4.68945 11.2109C4.58943 11.1109 4.53324 10.9752 4.53324 10.8338V4.96709H9.86657V10.8338ZM8.26657 10.3004C8.40802 10.3004 8.54367 10.2442 8.64369 10.1442C8.74371 10.0442 8.7999 9.90854 8.7999 9.76709V6.56709C8.7999 6.42564 8.74371 6.28999 8.64369 6.18997C8.54367 6.08995 8.40802 6.03376 8.26657 6.03376C8.12512 6.03376 7.98947 6.08995 7.88945 6.18997C7.78943 6.28999 7.73324 6.42564 7.73324 6.56709V9.76709C7.73324 9.90854 7.78943 10.0442 7.88945 10.1442C7.98947 10.2442 8.12512 10.3004 8.26657 10.3004Z" fill="#F92828"/>
</g>
</svg>
