<svg width="31" height="31" viewBox="0 0 31 31" fill="none" xmlns="http://www.w3.org/2000/svg">
<g id="Icon">
<path id="Vector" d="M24.375 16.4033C24.4244 16.0078 24.4615 15.6123 24.4615 15.192C24.4615 14.7718 24.4244 14.3763 24.375 13.9808L26.9829 11.9414C27.2178 11.756 27.2796 11.4222 27.1312 11.1503L24.6592 6.87375C24.548 6.67599 24.3379 6.56475 24.1154 6.56475C24.0412 6.56475 23.9671 6.57711 23.9053 6.60183L20.8276 7.83783C20.1849 7.34343 19.4928 6.93555 18.7388 6.62655L18.2691 3.35115C18.232 3.05451 17.9725 2.83203 17.6635 2.83203H12.7195C12.4105 2.83203 12.1509 3.05451 12.1138 3.35115L11.6441 6.62655C10.8902 6.93555 10.198 7.35579 9.55531 7.83783L6.47767 6.60183C6.40351 6.57711 6.32935 6.56475 6.25519 6.56475C6.04507 6.56475 5.83495 6.67599 5.72371 6.87375L3.25171 11.1503C3.09103 11.4222 3.16519 11.756 3.40003 11.9414L6.00799 13.9808C5.95855 14.3763 5.92147 14.7842 5.92147 15.192C5.92147 15.5999 5.95855 16.0078 6.00799 16.4033L3.40003 18.4427C3.16519 18.6281 3.10339 18.9618 3.25171 19.2338L5.72371 23.5103C5.83495 23.7081 6.04507 23.8193 6.26755 23.8193C6.34171 23.8193 6.41587 23.807 6.47767 23.7822L9.55531 22.5462C10.198 23.0406 10.8902 23.4485 11.6441 23.7575L12.1138 27.0329C12.1509 27.3296 12.4105 27.552 12.7195 27.552H17.6635C17.9725 27.552 18.232 27.3296 18.2691 27.0329L18.7388 23.7575C19.4928 23.4485 20.1849 23.0283 20.8276 22.5462L23.9053 23.7822C23.9794 23.807 24.0536 23.8193 24.1278 23.8193C24.3379 23.8193 24.548 23.7081 24.6592 23.5103L27.1312 19.2338C27.2796 18.9618 27.2178 18.6281 26.9829 18.4427L24.375 16.4033ZM21.9277 14.2898C21.9771 14.6729 21.9895 14.9325 21.9895 15.192C21.9895 15.4516 21.9648 15.7235 21.9277 16.0943L21.7546 17.491L22.8547 18.3562L24.1896 19.3944L23.3244 20.89L21.7546 20.2596L20.4692 19.7405L19.3568 20.581C18.8253 20.9765 18.3186 21.2732 17.8118 21.4833L16.5016 22.0148L16.3039 23.4114L16.0567 25.08H14.3263L14.0914 23.4114L13.8937 22.0148L12.5835 21.4833C12.052 21.2608 11.5576 20.9765 11.0632 20.6057L9.93847 19.7405L8.62831 20.272L7.05859 20.9024L6.19339 19.4068L7.52827 18.3686L8.62831 17.5034L8.45527 16.1067C8.41819 15.7235 8.39347 15.4392 8.39347 15.192C8.39347 14.9448 8.41819 14.6606 8.45527 14.2898L8.62831 12.8931L7.52827 12.0279L6.19339 10.9896L7.05859 9.49407L8.62831 10.1244L9.91375 10.6436L11.0261 9.80307C11.5576 9.40755 12.0644 9.11091 12.5711 8.90079L13.8813 8.36931L14.0791 6.97263L14.3263 5.30403H16.0443L16.2792 6.97263L16.4769 8.36931L17.7871 8.90079C18.3186 9.12327 18.813 9.40755 19.3074 9.77835L20.4321 10.6436L21.7423 10.1121L23.312 9.48171L24.1772 10.9773L22.8547 12.0279L21.7546 12.8931L21.9277 14.2898ZM15.1915 10.248C12.4599 10.248 10.2475 12.4605 10.2475 15.192C10.2475 17.9236 12.4599 20.136 15.1915 20.136C17.923 20.136 20.1355 17.9236 20.1355 15.192C20.1355 12.4605 17.923 10.248 15.1915 10.248ZM15.1915 17.664C13.8319 17.664 12.7195 16.5516 12.7195 15.192C12.7195 13.8324 13.8319 12.72 15.1915 12.72C16.5511 12.72 17.6635 13.8324 17.6635 15.192C17.6635 16.5516 16.5511 17.664 15.1915 17.664Z" fill="#8F8F8F"/>
</g>
</svg>
