<svg width="31" height="31" viewBox="0 0 31 31" fill="none" xmlns="http://www.w3.org/2000/svg">
<g id="Icon">
<path id="Vector" d="M26.3144 9.35649V6.53841C26.3144 5.17881 25.202 4.06641 23.8424 4.06641H6.53841C5.16645 4.06641 4.06641 5.17881 4.06641 6.53841V23.8424C4.06641 25.202 5.16645 26.3144 6.53841 26.3144H23.8424C25.202 26.3144 26.3144 25.202 26.3144 23.8424V21.0243C27.0436 20.5917 27.5504 19.813 27.5504 18.8984V11.4824C27.5504 10.5678 27.0436 9.78909 26.3144 9.35649ZM25.0784 11.4824V18.8984H16.4264V11.4824H25.0784ZM6.53841 23.8424V6.53841H23.8424V9.01041H16.4264C15.0668 9.01041 13.9544 10.1228 13.9544 11.4824V18.8984C13.9544 20.258 15.0668 21.3704 16.4264 21.3704H23.8424V23.8424H6.53841Z" fill="#8F8F8F"/>
<path id="Vector_2" d="M20.1353 17.0439C21.1592 17.0439 21.9893 16.2139 21.9893 15.1899C21.9893 14.166 21.1592 13.3359 20.1353 13.3359C19.1113 13.3359 18.2812 14.166 18.2812 15.1899C18.2812 16.2139 19.1113 17.0439 20.1353 17.0439Z" fill="#8F8F8F"/>
</g>
</svg>
