<svg width="70" height="70" viewBox="0 0 70 70" fill="none" xmlns="http://www.w3.org/2000/svg">
<g id="fluent-mdl2:party-leader">
<path id="Vector" d="M39.9219 32.334C40.7878 32.6758 41.6309 33.0518 42.4512 33.4619C43.2715 33.8721 44.069 34.3392 44.8438 34.8633C44.3424 35.4102 43.8867 35.9798 43.4766 36.5723C43.0664 37.1647 42.6904 37.8027 42.3486 38.4863C40.5941 37.347 38.7256 36.4811 36.7432 35.8887C34.7607 35.2962 32.7214 35 30.625 35C28.6198 35 26.6829 35.262 24.8145 35.7861C22.946 36.3102 21.2028 37.0394 19.585 37.9736C17.9671 38.9079 16.4974 40.0472 15.1758 41.3916C13.8542 42.736 12.7148 44.2171 11.7578 45.835C10.8008 47.4528 10.0602 49.196 9.53613 51.0645C9.01204 52.9329 8.75 54.8698 8.75 56.875H4.375C4.375 54.1406 4.77376 51.5088 5.57129 48.9795C6.36882 46.4502 7.51953 44.1146 9.02344 41.9727C10.5273 39.8307 12.3047 37.9281 14.3555 36.2646C16.4062 34.6012 18.7305 33.291 21.3281 32.334C18.7533 30.6478 16.748 28.5286 15.3125 25.9766C13.877 23.4245 13.1478 20.599 13.125 17.5C13.125 15.0846 13.5807 12.8174 14.4922 10.6982C15.4036 8.5791 16.6455 6.72201 18.2178 5.12695C19.79 3.5319 21.6471 2.27865 23.7891 1.36719C25.931 0.455729 28.2096 0 30.625 0C33.0404 0 35.3076 0.455729 37.4268 1.36719C39.5459 2.27865 41.403 3.52051 42.998 5.09277C44.5931 6.66504 45.8464 8.52214 46.7578 10.6641C47.6693 12.806 48.125 15.0846 48.125 17.5C48.125 19.0039 47.9427 20.4736 47.5781 21.9092C47.2135 23.3447 46.6667 24.7005 45.9375 25.9766C45.2083 27.2526 44.3538 28.4261 43.374 29.4971C42.3942 30.568 41.2435 31.5137 39.9219 32.334ZM17.5 17.5C17.5 19.3229 17.8418 21.0205 18.5254 22.5928C19.209 24.165 20.1432 25.555 21.3281 26.7627C22.513 27.9704 23.903 28.916 25.498 29.5996C27.0931 30.2832 28.8021 30.625 30.625 30.625C32.4251 30.625 34.1227 30.2832 35.7178 29.5996C37.3128 28.916 38.7028 27.9818 39.8877 26.7969C41.0726 25.612 42.0182 24.222 42.7246 22.627C43.431 21.0319 43.7728 19.3229 43.75 17.5C43.75 15.6999 43.4082 14.0023 42.7246 12.4072C42.041 10.8122 41.1068 9.4222 39.9219 8.2373C38.737 7.05241 37.3356 6.10677 35.7178 5.40039C34.0999 4.69401 32.4023 4.35221 30.625 4.375C28.8021 4.375 27.1045 4.7168 25.5322 5.40039C23.96 6.08398 22.57 7.01823 21.3623 8.20312C20.1546 9.38802 19.209 10.7894 18.5254 12.4072C17.8418 14.0251 17.5 15.7227 17.5 17.5ZM67.8125 45.9375C67.8125 47.1224 67.6302 48.2731 67.2656 49.3896C66.901 50.5062 66.3542 51.543 65.625 52.5V70L56.875 65.625L48.125 70V52.5C47.4186 51.543 46.8831 50.5062 46.5186 49.3896C46.154 48.2731 45.9603 47.1224 45.9375 45.9375C45.9375 44.4336 46.2223 43.0208 46.792 41.6992C47.3617 40.3776 48.1364 39.2269 49.1162 38.2471C50.096 37.2673 51.2581 36.4811 52.6025 35.8887C53.9469 35.2962 55.3711 35 56.875 35C58.3789 35 59.7917 35.2848 61.1133 35.8545C62.4349 36.4242 63.5856 37.2103 64.5654 38.2129C65.5452 39.2155 66.3314 40.3776 66.9238 41.6992C67.5163 43.0208 67.8125 44.4336 67.8125 45.9375ZM56.875 39.375C55.9635 39.375 55.1091 39.5459 54.3115 39.8877C53.514 40.2295 52.819 40.6966 52.2266 41.2891C51.6341 41.8815 51.167 42.5765 50.8252 43.374C50.4834 44.1716 50.3125 45.026 50.3125 45.9375C50.3125 46.849 50.4834 47.7034 50.8252 48.501C51.167 49.2985 51.6341 49.9935 52.2266 50.5859C52.819 51.1784 53.514 51.6455 54.3115 51.9873C55.1091 52.3291 55.9635 52.5 56.875 52.5C57.7865 52.5 58.6409 52.3291 59.4385 51.9873C60.236 51.6455 60.931 51.1784 61.5234 50.5859C62.1159 49.9935 62.583 49.2985 62.9248 48.501C63.2666 47.7034 63.4375 46.849 63.4375 45.9375C63.4375 45.026 63.2666 44.1716 62.9248 43.374C62.583 42.5765 62.1159 41.8815 61.5234 41.2891C60.931 40.6966 60.236 40.2295 59.4385 39.8877C58.6409 39.5459 57.7865 39.375 56.875 39.375ZM61.25 62.9248V55.9521C59.8828 56.5674 58.4245 56.875 56.875 56.875C55.3255 56.875 53.8672 56.5674 52.5 55.9521V62.9248C53.2292 62.5602 53.9583 62.207 54.6875 61.8652C55.4167 61.5234 56.1458 61.1475 56.875 60.7373C57.6042 61.1247 58.3333 61.4893 59.0625 61.8311C59.7917 62.1729 60.5208 62.5374 61.25 62.9248Z" fill="#4555BA"/>
</g>
</svg>
