<svg width="71" height="70" viewBox="0 0 71 70" fill="none" xmlns="http://www.w3.org/2000/svg">
<g id="material-symbols-light:business-center-outline">
<path id="Vector" d="M13.9604 58.3334C12.6187 58.3334 11.4987 57.8842 10.6004 56.9859C9.70014 56.0856 9.25 54.9646 9.25 53.6229V25.1271C9.25 23.7854 9.70014 22.6654 10.6004 21.7671C11.4987 20.8668 12.6187 20.4167 13.9604 20.4167H26.75V16.3771C26.75 15.0354 27.2001 13.9154 28.1004 13.0171C28.9987 12.1168 30.1178 11.6667 31.4575 11.6667H39.5367C40.8783 11.6667 41.9993 12.1168 42.8996 13.0171C43.7979 13.9154 44.2471 15.0354 44.2471 16.3771V20.4167H57.0367C58.3783 20.4167 59.4983 20.8668 60.3966 21.7671C61.2969 22.6654 61.7471 23.7854 61.7471 25.1271V53.6229C61.7471 54.9646 61.2979 56.0846 60.3996 56.9829C59.4993 57.8832 58.3783 58.3334 57.0367 58.3334H13.9604ZM29.6667 20.4167H41.3333V16.3771C41.3333 15.9299 41.1467 15.5186 40.7733 15.1433C40.398 14.77 39.9868 14.5833 39.5396 14.5833H31.4604C31.0132 14.5833 30.6019 14.77 30.2267 15.1433C29.8533 15.5186 29.6667 15.9299 29.6667 16.3771V20.4167ZM58.8333 42.2917H41.3333V46.6667H29.6667V42.2917H12.1667V53.6229C12.1667 54.0702 12.3533 54.4814 12.7267 54.8567C13.1019 55.23 13.5132 55.4167 13.9604 55.4167H57.0396C57.4868 55.4167 57.898 55.23 58.2733 54.8567C58.6467 54.4814 58.8333 54.0702 58.8333 53.6229V42.2917ZM32.5833 43.75H38.4167V37.9167H32.5833V43.75ZM12.1667 39.375H29.6667V35H41.3333V39.375H58.8333V25.1271C58.8333 24.6799 58.6467 24.2686 58.2733 23.8933C57.898 23.52 57.4868 23.3333 57.0396 23.3333H13.9604C13.5132 23.3333 13.1019 23.52 12.7267 23.8933C12.3533 24.2686 12.1667 24.6799 12.1667 25.1271V39.375Z" fill="#4555BA"/>
</g>
</svg>
