<svg width="71" height="70" viewBox="0 0 71 70" fill="none" xmlns="http://www.w3.org/2000/svg">
<g id="radix-icons:question-mark-circled">
<path id="Vector" fill-rule="evenodd" clip-rule="evenodd" d="M4.59265 35C4.59265 26.8029 7.84895 18.9414 13.6452 13.1452C19.4414 7.34895 27.3029 4.09265 35.5 4.09265C43.6971 4.09265 51.5585 7.34895 57.3548 13.1452C63.151 18.9414 66.4073 26.8029 66.4073 35C66.4073 43.1971 63.151 51.0585 57.3548 56.8548C51.5585 62.651 43.6971 65.9073 35.5 65.9073C27.3029 65.9073 19.4414 62.651 13.6452 56.8548C7.84895 51.0585 4.59265 43.1971 4.59265 35ZM35.5 8.52598C28.4786 8.52598 21.7449 11.3152 16.78 16.28C11.8152 21.2449 9.02598 27.9786 9.02598 35C9.02598 42.0213 11.8152 48.7551 16.78 53.7199C21.7449 58.6848 28.4786 61.474 35.5 61.474C42.5213 61.474 49.2551 58.6848 54.2199 53.7199C59.1848 48.7551 61.974 42.0213 61.974 35C61.974 27.9786 59.1848 21.2449 54.2199 16.28C49.2551 11.3152 42.5213 8.52598 35.5 8.52598ZM39 49C39 49.9282 38.6312 50.8185 37.9749 51.4749C37.3185 52.1312 36.4282 52.5 35.5 52.5C34.5717 52.5 33.6815 52.1312 33.0251 51.4749C32.3687 50.8185 32 49.9282 32 49C32 48.0717 32.3687 47.1815 33.0251 46.5251C33.6815 45.8687 34.5717 45.5 35.5 45.5C36.4282 45.5 37.3185 45.8687 37.9749 46.5251C38.6312 47.1815 39 48.0717 39 49ZM28.7333 29.1667C28.7333 26.0027 31.4633 22.9833 35.5 22.9833C39.5367 22.9833 42.2667 26.0027 42.2667 29.1667C42.2667 31.458 41.0066 32.6293 38.832 33.95C38.594 34.0993 38.314 34.258 38.0107 34.4353C37.0987 34.9391 36.2196 35.5002 35.3787 36.1153C34.2493 36.9926 32.9333 38.416 32.9333 40.6C32.9308 41.2807 33.1989 41.9345 33.6785 42.4176C34.1581 42.9007 34.8099 43.1735 35.4907 43.176C36.1714 43.1785 36.8252 42.9104 37.3083 42.4308C37.7914 41.9512 38.0642 41.2994 38.0667 40.6187C38.197 40.4424 38.3545 40.2881 38.5333 40.1613C39.0093 39.7927 39.5367 39.4893 40.2413 39.0786C40.6053 38.8686 41.0207 38.626 41.5013 38.3367C43.9933 36.82 47.4 34.3187 47.4 29.1667C47.4 22.9973 42.1967 17.85 35.5 17.85C28.8033 17.85 23.6 22.9973 23.6 29.1667C23.6 29.8474 23.8704 30.5002 24.3517 30.9816C24.8331 31.4629 25.4859 31.7333 26.1667 31.7333C26.8474 31.7333 27.5002 31.4629 27.9816 30.9816C28.4629 30.5002 28.7333 29.8474 28.7333 29.1667Z" fill="#4555BA"/>
</g>
</svg>
