<svg width="26" height="18" viewBox="0 0 26 18" fill="none" xmlns="http://www.w3.org/2000/svg">
<path id="Vector" d="M13.3061 0.919922C7.63786 0.919922 2.79716 4.44558 0.835938 9.42232C2.79716 14.3991 7.63786 17.9247 13.3061 17.9247C18.9744 17.9247 23.8151 14.3991 25.7763 9.42232C23.8151 4.44558 18.9744 0.919922 13.3061 0.919922ZM13.3061 15.0906C10.1772 15.0906 7.63786 12.5512 7.63786 9.42232C7.63786 6.29344 10.1772 3.75405 13.3061 3.75405C16.435 3.75405 18.9744 6.29344 18.9744 9.42232C18.9744 12.5512 16.435 15.0906 13.3061 15.0906ZM13.3061 6.02136C11.4243 6.02136 9.90516 7.54046 9.90516 9.42232C9.90516 11.3042 11.4243 12.8233 13.3061 12.8233C15.188 12.8233 16.7071 11.3042 16.7071 9.42232C16.7071 7.54046 15.188 6.02136 13.3061 6.02136Z" fill="#ED1010"/>
</svg>
