<svg width="45" height="46" viewBox="0 0 45 46" fill="none" xmlns="http://www.w3.org/2000/svg">
<g id="octicon:project-roadmap-24">
<path id="Vector" d="M17.2812 14C16.9083 14 16.5506 14.1482 16.2869 14.4119C16.0232 14.6756 15.875 15.0333 15.875 15.4062C15.875 15.7792 16.0232 16.1369 16.2869 16.4006C16.5506 16.6643 16.9083 16.8125 17.2812 16.8125H31.3438C31.7167 16.8125 32.0744 16.6643 32.3381 16.4006C32.6018 16.1369 32.75 15.7792 32.75 15.4062C32.75 15.0333 32.6018 14.6756 32.3381 14.4119C32.0744 14.1482 31.7167 14 31.3438 14H17.2812ZM14 22.9062C14 22.5333 14.1482 22.1756 14.4119 21.9119C14.6756 21.6482 15.0333 21.5 15.4062 21.5H27.5938C27.9667 21.5 28.3244 21.6482 28.5881 21.9119C28.8518 22.1756 29 22.5333 29 22.9062C29 23.2792 28.8518 23.6369 28.5881 23.9006C28.3244 24.1643 27.9667 24.3125 27.5938 24.3125H15.4062C15.0333 24.3125 14.6756 24.1643 14.4119 23.9006C14.1482 23.6369 14 23.2792 14 22.9062ZM19.1562 29C18.7833 29 18.4256 29.1482 18.1619 29.4119C17.8982 29.6756 17.75 30.0333 17.75 30.4062C17.75 30.7792 17.8982 31.1369 18.1619 31.4006C18.4256 31.6643 18.7833 31.8125 19.1562 31.8125H31.3438C31.7167 31.8125 32.0744 31.6643 32.3381 31.4006C32.6018 31.1369 32.75 30.7792 32.75 30.4062C32.75 30.0333 32.6018 29.6756 32.3381 29.4119C32.0744 29.1482 31.7167 29 31.3438 29H19.1562Z" fill="#4555BA"/>
<path id="Vector_2" d="M3.75 7.53125C3.75 5.72 5.22 4.25 7.03125 4.25H37.9688C39.78 4.25 41.25 5.72 41.25 7.53125V38.4688C41.25 39.339 40.9043 40.1736 40.2889 40.7889C39.6736 41.4043 38.839 41.75 37.9688 41.75H7.03125C6.16101 41.75 5.32641 41.4043 4.71106 40.7889C4.0957 40.1736 3.75 39.339 3.75 38.4688V7.53125ZM7.03125 7.0625C6.90693 7.0625 6.7877 7.11189 6.69979 7.19979C6.61189 7.2877 6.5625 7.40693 6.5625 7.53125V38.4688C6.5625 38.7275 6.7725 38.9375 7.03125 38.9375H37.9688C38.0931 38.9375 38.2123 38.8881 38.3002 38.8002C38.3881 38.7123 38.4375 38.5931 38.4375 38.4688V7.53125C38.4375 7.40693 38.3881 7.2877 38.3002 7.19979C38.2123 7.11189 38.0931 7.0625 37.9688 7.0625H7.03125Z" fill="#4555BA"/>
</g>
</svg>
